{"glyphs":{"0":{"ha":854,"x_min":0,"x_max":0,"o":"m 339 -19 b 79 289 136 -19 46 99 l 151 697 b 517 1006 185 886 319 1006 b 775 697 717 1006 808 886 l 703 289 b 339 -19 669 99 535 -19 m 339 0 b 682 289 526 0 650 110 l 754 697 b 517 986 786 875 701 986 b 172 697 328 986 203 875 l 100 289 b 339 0 68 110 153 0 "},"1":{"ha":529,"x_min":0,"x_max":0,"o":"m 265 0 b 258 6 260 0 258 1 l 428 961 l 143 813 b 135 814 140 811 136 810 l 131 822 b 133 829 129 825 131 828 l 431 983 b 439 986 433 985 435 986 l 446 986 b 451 981 450 986 451 985 l 279 6 b 274 0 278 1 278 0 l 265 0 "},"2":{"ha":803,"x_min":0,"x_max":0,"o":"m 25 0 b 18 7 21 0 18 3 l 39 119 b 369 432 71 304 215 372 b 724 783 576 511 724 556 b 515 986 724 907 646 986 b 176 779 358 986 253 919 b 169 778 175 776 171 776 l 160 781 b 157 789 157 782 154 783 b 515 1006 240 938 353 1006 b 743 785 658 1006 743 919 b 376 414 743 538 588 497 b 57 111 228 357 89 290 l 40 19 l 607 19 b 613 14 611 19 614 18 l 611 6 b 606 0 610 1 610 0 l 25 0 "},"3":{"ha":808,"x_min":0,"x_max":0,"o":"m 328 -19 b 56 235 128 -19 68 72 b 61 242 56 239 57 240 l 68 243 b 75 238 72 244 75 243 b 326 0 85 83 144 0 b 653 321 529 0 653 126 b 479 500 653 425 594 500 l 239 500 b 233 506 235 500 232 501 l 235 514 b 242 519 235 518 238 519 l 481 519 b 711 803 628 519 711 653 b 506 986 711 921 643 986 b 175 753 339 986 244 915 b 167 751 174 750 171 750 l 160 753 b 157 763 157 754 154 756 b 507 1006 224 918 318 1006 b 732 803 658 1006 732 931 b 549 511 732 667 665 546 b 672 322 628 486 672 414 b 328 -19 672 117 540 -19 "},"4":{"ha":813,"x_min":0,"x_max":0,"o":"m 485 0 b 479 6 481 0 478 1 l 533 311 l 39 311 b 33 317 35 311 33 313 l 33 322 b 38 331 33 326 36 328 l 649 1001 b 658 1006 651 1004 654 1006 l 669 1006 b 675 997 675 1006 676 1003 l 557 331 l 708 331 b 714 325 713 331 714 329 l 713 317 b 706 311 711 313 710 311 l 554 311 l 500 6 b 494 0 499 1 499 0 l 485 0 m 536 331 l 650 974 l 63 331 "},"5":{"ha":794,"x_min":0,"x_max":0,"o":"m 319 -19 b 39 194 143 -19 61 57 b 40 200 39 197 38 199 l 51 204 b 58 199 54 206 58 206 b 319 0 76 71 158 0 b 650 347 510 0 650 153 b 417 550 650 476 596 550 l 151 550 b 143 561 143 550 140 553 l 254 971 b 271 986 257 983 260 986 l 744 986 b 750 981 749 986 750 985 l 749 972 b 743 967 747 968 747 967 l 272 967 l 165 569 l 417 569 b 671 347 611 569 671 489 b 319 -19 671 135 515 -19 "},"6":{"ha":840,"x_min":0,"x_max":0,"o":"m 339 -19 b 75 229 163 -19 75 74 b 144 667 75 288 86 336 b 517 1006 185 892 313 1006 b 783 799 679 1006 760 933 b 779 793 783 796 783 794 l 769 790 b 764 796 765 789 764 790 b 517 986 740 921 665 986 b 165 667 325 986 201 878 l 133 488 b 447 550 178 506 288 550 b 710 344 625 550 710 483 b 339 -19 710 125 565 -19 m 339 0 b 688 342 558 0 688 139 b 447 531 688 469 608 531 b 131 465 279 531 167 481 b 96 235 101 303 96 275 b 339 0 96 86 178 0 "},"7":{"ha":689,"x_min":0,"x_max":0,"o":"m 158 0 b 156 6 154 0 154 3 l 708 967 l 158 967 b 153 972 154 967 151 968 l 154 981 b 160 986 156 985 156 986 l 728 986 b 735 982 732 986 735 986 l 733 974 b 729 965 732 969 731 968 l 179 6 b 168 0 176 0 175 0 l 158 0 "},"8":{"ha":835,"x_min":0,"x_max":0,"o":"m 325 -19 b 49 189 142 -19 49 50 b 364 511 49 342 169 467 b 171 739 233 558 171 628 b 507 1006 171 903 299 1006 b 764 803 675 1006 764 935 b 479 497 764 654 654 538 b 692 258 628 442 692 375 b 325 -19 692 86 553 -19 m 442 508 b 743 799 621 536 743 651 b 507 986 743 921 663 986 b 192 743 314 986 192 890 b 442 508 192 624 269 551 m 329 0 b 671 254 532 0 671 96 b 403 499 671 376 594 444 b 69 190 207 469 69 343 b 329 0 69 64 161 0 "},"9":{"ha":840,"x_min":0,"x_max":0,"o":"m 324 -19 b 57 188 168 -19 82 47 b 61 193 57 190 57 192 l 71 196 b 78 190 75 197 78 196 b 324 0 103 61 182 0 b 675 315 518 0 639 108 l 707 499 b 394 436 618 460 501 436 b 131 650 217 436 131 510 b 497 1006 131 871 271 1006 b 765 757 668 1006 765 917 b 694 315 765 697 756 649 b 324 -19 653 92 529 -19 m 394 456 b 710 521 563 456 674 506 b 744 756 742 688 744 711 b 499 986 744 904 657 986 b 153 653 283 986 153 861 b 394 456 153 522 232 456 "}," ":{"ha":353,"x_min":0,"x_max":0,"o":""},"!":{"ha":288,"x_min":0,"x_max":0,"o":"m 88 181 b 82 186 83 181 82 182 l 225 1022 b 231 1028 226 1026 226 1028 l 243 1028 b 249 1022 247 1028 250 1026 l 97 186 b 92 181 96 182 96 181 l 88 181 m 53 -8 b 36 13 38 -8 32 -6 l 38 18 b 60 39 42 33 46 39 l 67 39 b 83 18 82 39 86 32 l 82 13 b 60 -8 78 -3 74 -8 l 53 -8 "},"\"":{"ha":382,"x_min":0,"x_max":0,"o":"m 164 689 b 160 694 160 689 158 690 l 210 981 b 215 986 211 985 211 986 l 228 986 b 233 981 232 986 233 985 l 174 694 b 168 689 174 690 172 689 l 164 689 m 275 689 b 271 694 271 689 269 690 l 321 981 b 326 986 322 985 322 986 l 339 986 b 344 981 343 986 344 985 l 285 694 b 279 689 285 690 283 689 l 275 689 "},"#":{"ha":896,"x_min":0,"x_max":0,"o":"m 88 0 b 83 6 83 0 82 1 l 215 299 l 51 299 b 47 304 47 299 44 300 l 51 313 b 60 318 54 317 54 318 l 225 318 l 358 614 l 194 614 b 190 619 190 614 188 615 l 194 628 b 203 633 197 632 197 633 l 368 633 l 481 882 b 489 888 482 886 483 888 l 500 888 b 504 882 504 888 506 886 l 390 633 l 643 633 l 756 882 b 763 888 758 886 758 888 l 774 888 b 779 882 779 888 781 886 l 667 633 l 833 633 b 838 626 838 633 840 632 l 833 618 b 826 614 831 614 831 614 l 656 614 l 524 318 l 690 318 b 694 311 694 318 697 317 l 690 303 b 683 299 688 299 688 299 l 514 299 l 382 6 b 374 0 379 1 379 0 l 363 0 b 358 6 358 0 357 1 l 490 299 l 238 299 l 106 6 b 99 0 104 1 104 0 l 88 0 m 500 318 l 633 614 l 381 614 l 247 318 "},"$":{"ha":814,"x_min":0,"x_max":0,"o":"m 288 -115 b 283 -110 283 -115 282 -114 l 303 0 b 49 253 140 7 78 103 b 51 261 47 257 47 260 l 61 264 b 68 260 65 265 67 265 b 322 19 101 110 157 19 b 656 285 529 19 656 110 b 410 483 656 424 533 465 b 146 719 282 503 146 525 b 475 986 146 892 267 986 l 496 1096 b 501 1101 496 1100 497 1101 l 510 1101 b 515 1096 514 1101 517 1100 l 496 986 b 754 754 657 979 726 897 b 751 746 756 751 756 747 l 742 743 b 735 747 738 743 736 743 b 475 967 707 889 640 967 b 168 721 279 967 168 878 b 411 504 168 539 292 521 b 676 286 542 486 676 439 b 324 0 676 97 539 0 l 303 -110 b 296 -115 303 -114 300 -115 l 288 -115 "},"%":{"ha":1114,"x_min":0,"x_max":0,"o":"m 283 499 b 119 700 153 499 97 575 l 139 804 b 369 1007 160 929 242 1007 b 532 804 499 1007 554 929 l 514 700 b 283 499 492 575 410 499 m 283 518 b 493 700 399 518 474 586 l 513 804 b 369 988 532 918 482 988 b 157 804 253 988 178 918 l 139 700 b 283 518 119 586 169 518 m 125 0 b 119 7 119 0 118 3 l 968 981 b 979 986 972 986 974 986 l 990 986 b 993 979 996 986 999 985 l 144 6 b 133 0 142 0 140 0 l 125 0 m 744 -21 b 581 181 615 -21 560 56 l 600 285 b 831 488 622 410 704 488 b 993 285 961 488 1015 410 l 975 181 b 744 -21 953 56 872 -21 m 744 -1 b 956 181 861 -1 936 67 l 975 285 b 831 468 994 399 944 468 b 619 285 715 468 640 399 l 601 181 b 744 -1 582 67 632 -1 "},"&":{"ha":892,"x_min":0,"x_max":0,"o":"m 231 -19 b 39 179 113 -19 39 64 b 319 517 39 360 163 447 b 218 739 271 575 218 646 b 463 1006 218 899 317 1006 b 660 824 576 1006 660 938 b 368 514 660 657 531 579 l 354 508 l 607 193 b 725 297 646 228 686 263 b 731 299 728 300 729 300 l 736 292 b 736 283 739 289 739 286 l 619 179 l 758 7 b 756 0 761 3 761 0 l 743 0 b 731 6 738 0 733 1 l 603 167 b 231 -19 422 0 328 -19 m 361 533 b 639 822 503 590 639 665 b 463 986 639 924 564 986 b 239 739 324 986 239 883 b 340 525 239 650 292 585 m 231 0 b 589 179 325 0 417 25 l 331 500 b 60 181 183 436 60 351 b 231 0 60 76 128 0 "},"'":{"ha":271,"x_min":0,"x_max":0,"o":"m 167 689 b 163 694 163 689 161 690 l 213 981 b 218 986 214 985 214 986 l 231 986 b 236 981 235 986 236 985 l 176 694 b 171 689 176 690 175 689 l 167 689 "},"(":{"ha":307,"x_min":0,"x_max":0,"o":"m 108 -310 b 29 -8 36 -254 0 -172 l 154 703 b 339 1003 183 867 243 944 b 349 1000 344 1006 346 1004 l 353 993 b 350 983 354 990 354 986 b 176 703 260 931 204 857 l 51 -8 b 122 -292 24 -162 53 -237 b 124 -299 125 -294 125 -296 l 115 -310 b 108 -310 114 -311 111 -312 "},")":{"ha":307,"x_min":0,"x_max":0,"o":"m -85 -310 b -94 -307 -90 -312 -92 -311 l -99 -300 b -96 -290 -100 -297 -100 -293 b 78 -10 -6 -237 50 -164 l 203 701 b 132 985 231 856 201 931 b 131 992 129 988 129 989 l 139 1003 b 146 1003 140 1004 143 1006 b 225 701 218 947 254 865 l 100 -10 b -85 -310 71 -174 11 -251 "},"*":{"ha":549,"x_min":0,"x_max":0,"o":"m 383 592 b 375 594 379 589 376 590 l 317 732 l 208 590 b 200 589 206 588 203 586 l 192 596 b 192 604 189 599 189 601 l 304 743 l 178 792 b 174 800 174 793 172 796 l 179 813 b 188 814 182 817 183 815 l 311 757 l 339 929 b 344 935 340 933 340 935 l 357 935 b 360 928 360 935 361 933 l 328 757 l 474 813 b 481 810 479 814 479 813 l 483 799 b 478 790 485 793 482 792 l 329 742 l 394 604 b 392 596 396 600 396 599 l 383 592 "},"+":{"ha":819,"x_min":0,"x_max":0,"o":"m 342 126 b 336 132 338 126 336 128 l 392 444 l 107 444 b 103 450 103 444 101 446 l 104 458 b 110 464 104 463 106 464 l 394 464 l 450 776 b 456 782 451 781 451 782 l 464 782 b 469 776 468 782 469 781 l 414 464 l 699 464 b 704 458 703 464 704 463 l 701 450 b 696 444 701 446 700 444 l 411 444 l 356 132 b 350 126 356 128 354 126 l 342 126 "},",":{"ha":246,"x_min":0,"x_max":0,"o":"m -60 -168 b -64 -162 -64 -168 -67 -167 l 31 39 b 44 49 35 47 38 49 l 56 49 b 63 39 63 49 67 46 l -46 -162 b -53 -168 -49 -167 -49 -168 l -60 -168 "},"-":{"ha":597,"x_min":0,"x_max":0,"o":"m 103 360 b 97 365 99 360 96 361 l 99 374 b 104 379 99 378 100 379 l 451 379 b 457 374 456 379 457 378 l 456 365 b 450 360 454 361 454 360 l 103 360 "},".":{"ha":249,"x_min":0,"x_max":0,"o":"m 33 -8 b 17 13 18 -8 13 -6 l 18 18 b 40 39 22 33 26 39 l 47 39 b 64 18 63 39 67 32 l 63 13 b 40 -8 58 -3 54 -8 l 33 -8 "},"/":{"ha":571,"x_min":0,"x_max":0,"o":"m -18 -83 b -22 -78 -24 -83 -24 -81 l 557 981 b 565 986 558 985 560 986 l 575 986 b 579 981 579 986 581 983 l 1 -78 b -8 -83 -1 -82 -3 -83 l -18 -83 "},":":{"ha":281,"x_min":0,"x_max":0,"o":"m 171 617 b 154 638 156 617 150 619 l 156 643 b 178 664 160 658 164 664 l 185 664 b 201 643 200 664 204 657 l 200 638 b 178 617 196 622 192 617 l 171 617 m 60 -8 b 43 13 44 -8 39 -6 l 44 18 b 67 39 49 33 53 39 l 74 39 b 90 18 89 39 93 32 l 89 13 b 67 -8 85 -3 81 -8 l 60 -8 "},";":{"ha":346,"x_min":0,"x_max":0,"o":"m 211 617 b 194 638 196 617 190 619 l 196 643 b 218 664 200 658 204 664 l 225 664 b 242 643 240 664 244 657 l 240 638 b 218 617 236 622 232 617 l 211 617 m 6 -168 b 1 -162 1 -168 -1 -167 l 96 39 b 110 49 100 47 103 49 l 121 49 b 128 39 128 49 132 46 l 19 -162 b 13 -168 17 -167 17 -168 l 6 -168 "},"<":{"ha":708,"x_min":0,"x_max":0,"o":"m 85 440 b 79 450 79 443 78 444 l 79 456 b 88 465 81 461 82 463 l 625 757 b 632 753 631 760 633 758 l 631 743 b 622 732 629 736 628 736 l 111 454 l 111 453 l 522 174 b 528 163 528 169 529 169 l 526 153 b 519 149 525 147 522 146 "},"=":{"ha":842,"x_min":0,"x_max":0,"o":"m 143 582 b 138 588 139 582 138 583 l 139 596 b 147 601 140 600 143 601 l 733 601 b 739 596 738 601 739 600 l 738 588 b 732 582 736 583 736 582 l 143 582 m 94 307 b 89 313 90 307 89 308 l 90 321 b 96 326 92 325 92 326 l 685 326 b 690 321 689 326 692 325 l 689 313 b 683 307 688 308 688 307 l 94 307 "},">":{"ha":708,"x_min":0,"x_max":0,"o":"m 71 149 b 63 153 64 146 61 147 l 64 163 b 74 174 65 169 67 169 l 585 451 l 583 453 l 174 732 b 167 743 167 736 165 736 l 168 753 b 175 757 169 758 171 760 l 610 465 b 615 456 615 463 617 461 l 614 450 b 607 440 614 444 613 443 l 71 149 "},"?":{"ha":757,"x_min":0,"x_max":0,"o":"m 288 171 b 282 178 283 171 281 171 b 485 446 308 326 396 385 b 701 744 576 506 671 571 b 476 1008 726 889 650 1008 b 147 792 315 1008 213 917 b 139 789 146 789 143 788 l 129 792 b 128 800 126 793 125 794 b 478 1028 196 931 306 1028 b 724 742 664 1028 751 900 b 494 426 692 563 589 492 b 301 175 413 372 325 311 b 296 171 300 171 300 171 l 288 171 m 256 -8 b 239 13 240 -8 235 -6 b 240 18 239 14 240 17 b 263 39 244 33 249 39 l 269 39 b 286 18 285 39 289 32 b 285 13 286 17 285 14 b 263 -8 281 -3 276 -8 l 256 -8 "},"@":{"ha":1247,"x_min":0,"x_max":0,"o":"m 501 -183 b 76 358 178 -183 14 7 l 93 451 b 708 1006 153 794 386 1006 b 1135 451 1049 1006 1192 781 l 1118 358 b 835 68 1082 158 951 68 b 774 131 793 68 769 86 b 513 68 744 114 653 68 b 329 290 360 68 306 151 l 369 517 b 629 742 394 656 478 742 b 847 700 732 742 810 718 b 883 633 881 685 890 672 l 796 142 b 836 88 789 103 803 88 b 1097 358 943 88 1064 169 l 1114 451 b 708 986 1169 769 1033 986 b 114 451 397 986 172 783 l 97 358 b 503 -164 38 21 193 -164 b 790 -124 661 -164 790 -124 b 796 -126 794 -122 796 -124 l 794 -139 b 788 -144 794 -142 793 -143 b 501 -183 788 -144 663 -183 m 515 88 b 778 154 668 88 758 142 l 863 633 b 839 683 868 663 863 671 b 629 722 803 701 729 722 b 390 517 490 722 413 644 l 350 290 b 515 88 328 163 376 88 "},"A":{"ha":861,"x_min":0,"x_max":0,"o":"m -39 0 b -42 6 -43 0 -43 3 l 504 988 b 514 994 507 992 508 994 l 524 994 b 531 988 529 994 529 992 l 731 7 b 726 0 732 3 731 0 l 715 0 b 708 6 711 0 710 1 l 638 363 l 181 363 l -19 6 b -28 0 -22 1 -24 0 l -39 0 m 632 382 l 526 911 b 517 969 522 931 519 950 l 515 969 b 483 908 504 949 494 929 l 192 382 "},"B":{"ha":881,"x_min":0,"x_max":0,"o":"m 67 0 b 61 6 63 0 61 1 l 233 981 b 239 986 235 985 235 986 l 575 986 b 799 801 728 986 799 922 b 603 507 799 661 738 549 l 601 506 b 744 321 681 490 744 428 b 428 0 744 131 622 0 l 67 0 m 517 514 b 779 800 682 514 779 639 b 574 967 779 908 714 967 l 251 967 l 172 514 m 424 19 b 724 321 610 19 724 147 b 529 494 724 435 651 494 l 168 494 l 85 19 "},"C":{"ha":875,"x_min":0,"x_max":0,"o":"m 365 -19 b 86 317 146 -19 49 108 l 149 671 b 543 1006 185 878 321 1006 b 832 758 747 1006 821 921 b 828 751 833 754 832 753 l 819 750 b 811 754 815 749 811 749 b 543 986 797 908 731 986 b 169 672 332 986 203 865 l 106 315 b 367 1 72 124 160 1 b 725 243 561 1 656 89 b 735 246 726 247 729 247 l 742 243 b 744 233 746 242 747 240 b 365 -19 669 74 572 -19 "},"D":{"ha":883,"x_min":0,"x_max":0,"o":"m 67 0 b 61 6 63 0 61 1 l 233 981 b 239 986 235 985 235 986 l 490 986 b 796 619 742 986 836 846 l 751 367 b 318 0 711 140 556 0 l 67 0 m 319 19 b 731 367 543 19 693 150 l 775 619 b 489 967 814 836 725 967 l 251 967 l 85 19 "},"E":{"ha":783,"x_min":0,"x_max":0,"o":"m 67 0 b 61 6 63 0 61 1 l 233 981 b 239 986 235 985 235 986 l 758 986 b 764 981 763 986 764 985 l 763 972 b 757 967 761 968 761 967 l 251 967 l 171 510 l 622 510 b 626 504 626 510 628 508 l 625 496 b 619 490 625 492 624 490 l 168 490 l 85 19 l 607 19 b 613 14 611 19 614 18 l 611 6 b 606 0 610 1 610 0 l 67 0 "},"F":{"ha":756,"x_min":0,"x_max":0,"o":"m 67 0 b 61 6 63 0 61 1 l 233 981 b 239 986 235 985 235 986 l 757 986 b 763 981 761 986 763 985 l 761 972 b 756 967 760 968 760 967 l 253 967 l 169 494 l 610 494 b 614 489 614 494 615 493 l 613 481 b 607 475 613 476 611 475 l 167 475 l 83 6 b 78 0 82 1 82 0 l 67 0 "},"G":{"ha":896,"x_min":0,"x_max":0,"o":"m 368 -19 b 86 318 144 -19 49 110 l 149 671 b 543 1006 186 885 318 1006 b 832 758 744 1006 822 922 b 828 751 832 754 832 753 l 821 750 b 813 754 817 749 813 749 b 543 986 803 910 731 986 b 168 669 328 986 201 863 l 107 319 b 367 0 72 122 160 0 b 740 319 575 0 706 122 l 765 460 l 460 460 b 456 465 457 460 456 461 l 457 474 b 463 479 457 478 460 479 l 781 479 b 788 471 786 479 789 476 l 761 318 b 368 -19 725 110 586 -19 "},"H":{"ha":936,"x_min":0,"x_max":0,"o":"m 67 0 b 61 6 63 0 61 1 l 233 981 b 239 986 235 985 235 986 l 249 986 b 254 981 253 986 254 985 l 171 510 l 771 510 l 854 981 b 860 986 856 985 856 986 l 869 986 b 875 981 874 986 875 985 l 703 6 b 697 0 701 1 701 0 l 688 0 b 682 6 683 0 682 1 l 768 490 l 168 490 l 82 6 b 76 0 81 1 81 0 l 67 0 "},"I":{"ha":315,"x_min":0,"x_max":0,"o":"m 65 0 b 63 8 61 0 61 3 l 233 981 b 242 986 235 986 236 986 l 249 986 b 254 979 251 986 256 986 l 82 8 b 75 0 81 3 81 0 l 65 0 "},"J":{"ha":779,"x_min":0,"x_max":0,"o":"m 263 -19 b 22 272 85 -19 14 88 b 26 281 22 275 22 281 l 39 281 b 43 274 43 281 43 279 b 265 1 36 97 99 1 b 583 293 442 1 553 122 l 704 981 b 710 986 706 985 706 986 l 719 986 b 725 981 724 986 725 985 l 604 293 b 263 -19 569 103 454 -19 "},"K":{"ha":815,"x_min":0,"x_max":0,"o":"m 67 0 b 61 6 63 0 61 1 l 233 981 b 239 986 235 985 235 986 l 249 986 b 254 981 253 986 254 985 l 171 510 l 369 510 b 407 508 383 510 397 510 l 806 981 b 818 986 808 985 811 986 l 828 986 b 832 979 835 986 835 983 l 431 504 b 574 356 515 492 550 440 l 672 7 b 668 0 674 3 674 0 l 660 0 b 650 6 653 0 651 1 l 556 346 b 375 490 529 443 490 490 l 168 490 l 82 6 b 76 0 81 1 81 0 l 67 0 "},"L":{"ha":711,"x_min":0,"x_max":0,"o":"m 67 0 b 61 6 63 0 61 1 l 233 981 b 239 986 235 985 235 986 l 249 986 b 254 981 253 986 254 985 l 85 19 l 575 19 b 581 14 579 19 582 18 l 579 6 b 574 0 578 1 578 0 l 67 0 "},"M":{"ha":1093,"x_min":0,"x_max":0,"o":"m 67 0 b 61 6 63 0 61 1 l 233 981 b 239 986 235 985 235 986 l 249 986 b 258 979 254 986 257 983 l 507 268 l 1004 978 b 1017 986 1008 983 1010 986 l 1026 986 b 1032 981 1031 986 1032 985 l 860 6 b 854 0 858 1 858 0 l 844 0 b 839 6 840 0 839 1 l 967 728 b 1006 942 979 799 992 871 l 1004 942 b 882 767 963 883 924 825 l 519 249 b 510 242 517 244 514 242 l 503 242 b 492 249 497 242 494 243 l 310 774 b 249 943 289 829 269 888 l 247 943 b 210 728 235 872 222 799 l 82 6 b 76 0 81 1 81 0 l 67 0 "},"N":{"ha":949,"x_min":0,"x_max":0,"o":"m 67 0 b 61 6 63 0 61 1 l 233 981 b 239 986 235 985 235 986 l 249 986 b 257 982 254 986 257 982 l 613 224 b 700 36 642 161 669 97 l 701 36 b 742 278 715 115 728 199 l 867 982 b 874 986 867 985 868 986 l 882 986 b 888 981 886 986 888 985 l 715 6 b 710 0 714 1 714 0 l 700 0 b 692 6 696 0 694 0 l 325 788 b 250 947 300 840 275 894 l 249 947 b 211 738 235 878 224 807 l 82 6 b 75 0 81 1 81 0 l 67 0 "},"O":{"ha":908,"x_min":0,"x_max":0,"o":"m 368 -19 b 86 317 144 -19 50 107 l 147 669 b 543 1006 185 878 322 1006 b 822 669 767 1006 858 882 l 761 317 b 368 -19 725 106 588 -19 m 365 0 b 740 318 571 0 704 114 l 801 668 b 546 986 836 869 751 986 b 168 668 338 986 203 865 l 107 318 b 365 0 72 119 161 0 "},"P":{"ha":847,"x_min":0,"x_max":0,"o":"m 67 0 b 61 6 63 0 61 1 l 233 981 b 239 986 235 985 235 986 l 583 986 b 807 690 753 986 840 876 b 482 400 775 508 651 400 l 151 400 l 82 6 b 76 0 81 1 81 0 l 67 0 m 482 419 b 786 693 639 419 756 519 b 581 967 817 865 738 967 l 251 967 l 156 419 "},"Q":{"ha":976,"x_min":0,"x_max":0,"o":"m 778 -81 b 771 -81 775 -83 772 -83 l 667 54 b 422 -19 603 7 519 -19 b 142 317 199 -19 104 108 l 203 669 b 600 1006 240 878 379 1006 b 878 669 821 1006 915 878 l 817 317 b 683 67 797 211 753 125 l 788 -67 b 786 -75 789 -69 789 -72 l 778 -81 m 422 0 b 796 318 628 0 763 121 l 857 668 b 600 986 892 865 803 986 b 224 668 392 986 258 865 l 163 318 b 422 0 128 121 217 0 "},"R":{"ha":881,"x_min":0,"x_max":0,"o":"m 67 0 b 61 6 63 0 61 1 l 233 981 b 239 986 235 985 235 986 l 611 986 b 815 718 767 986 844 890 b 521 456 785 553 672 458 b 626 321 578 432 607 390 l 717 7 b 713 0 718 3 718 0 l 706 0 b 696 6 699 0 697 1 l 607 310 b 418 456 579 408 532 456 l 161 456 l 82 6 b 76 0 81 1 81 0 l 67 0 m 519 475 b 794 721 663 475 767 563 b 608 967 822 878 754 967 l 251 967 l 165 475 "},"S":{"ha":856,"x_min":0,"x_max":0,"o":"m 340 -19 b 40 224 168 -19 74 50 b 43 232 39 228 38 229 l 53 235 b 60 231 57 236 58 236 b 342 1 93 65 183 1 b 694 253 547 1 665 86 b 438 483 729 443 585 464 b 153 743 281 504 117 536 b 508 1006 182 907 317 1006 b 807 792 678 1006 765 944 b 804 785 810 789 810 786 l 796 782 b 788 785 792 781 790 779 b 507 985 747 926 667 985 b 172 740 328 985 200 893 b 442 504 139 551 290 524 b 715 250 596 485 753 458 b 340 -19 683 72 557 -19 "},"T":{"ha":732,"x_min":0,"x_max":0,"o":"m 275 0 b 269 6 271 0 269 1 l 439 967 l 135 967 b 129 972 131 967 128 968 l 131 981 b 136 986 132 985 132 986 l 768 986 b 774 981 772 986 774 985 l 772 972 b 767 967 771 968 771 967 l 460 967 l 290 6 b 285 0 289 1 289 0 l 275 0 "},"U":{"ha":936,"x_min":0,"x_max":0,"o":"m 379 -19 b 111 333 156 -19 74 119 l 225 981 b 231 986 226 985 226 986 l 240 986 b 246 981 244 986 246 985 l 132 333 b 379 0 96 132 172 0 b 749 333 589 0 713 132 l 863 981 b 868 986 864 985 864 986 l 878 986 b 883 981 882 986 883 985 l 769 333 b 379 -19 731 119 600 -19 "},"V":{"ha":833,"x_min":0,"x_max":0,"o":"m 326 0 b 318 7 321 0 318 3 l 131 981 b 135 986 131 983 131 986 l 144 986 b 153 981 150 986 151 985 l 319 101 b 333 29 324 78 329 53 l 335 29 b 374 101 349 53 360 78 l 853 981 b 863 986 854 985 857 986 l 872 986 b 875 981 876 986 876 983 l 344 7 b 335 0 343 3 340 0 l 326 0 "},"W":{"ha":1217,"x_min":0,"x_max":0,"o":"m 247 0 b 239 7 242 0 239 1 l 147 981 b 151 986 147 985 147 986 l 161 986 b 169 981 167 986 168 985 l 246 143 b 254 33 250 107 253 69 l 257 33 b 306 142 272 69 290 106 l 676 953 b 686 958 679 957 682 958 l 696 958 b 703 953 700 958 703 957 l 788 139 b 797 33 790 104 794 68 l 800 33 b 844 138 814 68 829 103 l 1219 981 b 1228 986 1221 985 1222 986 l 1238 986 b 1242 981 1242 986 1243 985 l 807 7 b 797 0 806 1 803 0 l 789 0 b 781 7 783 0 781 1 l 697 810 b 686 924 693 847 690 886 l 685 924 b 632 810 668 886 650 847 l 265 7 b 256 0 264 1 261 0 l 247 0 "},"X":{"ha":815,"x_min":0,"x_max":0,"o":"m -35 0 b -36 10 -42 0 -40 4 l 394 500 l 143 981 b 147 986 143 983 143 986 l 160 986 b 168 981 165 986 167 985 l 410 517 l 815 981 b 826 986 818 985 819 986 l 839 986 b 843 981 843 986 844 983 l 422 501 l 679 10 b 676 0 683 4 683 0 l 665 0 b 657 6 660 0 658 1 l 407 483 l -12 6 b -24 0 -15 1 -18 0 l -35 0 "},"Y":{"ha":843,"x_min":0,"x_max":0,"o":"m 331 0 b 325 6 326 0 325 1 l 397 413 l 136 981 b 140 986 136 983 136 986 l 151 986 b 160 981 158 986 158 985 l 411 432 l 854 981 b 865 986 857 985 860 986 l 876 986 b 881 981 881 986 882 983 l 418 411 l 346 6 b 340 0 344 1 344 0 l 331 0 "},"Z":{"ha":750,"x_min":0,"x_max":0,"o":"m -11 0 b -17 6 -15 0 -17 1 l -15 13 b -10 26 -14 18 -14 21 l 726 967 l 165 967 b 160 972 161 967 158 968 l 161 981 b 167 986 163 985 163 986 l 750 986 b 756 981 754 986 756 985 l 754 975 b 750 964 753 969 753 968 l 11 21 l 599 21 b 603 15 603 21 604 19 l 601 6 b 596 0 600 1 600 0 l -11 0 "},"[":{"ha":329,"x_min":0,"x_max":0,"o":"m -14 -351 b -18 -343 -18 -351 -19 -349 l 225 1033 b 233 1040 226 1039 229 1040 l 381 1040 b 386 1033 385 1040 388 1038 l 385 1025 b 378 1021 383 1021 382 1021 l 246 1021 l 7 -332 l 139 -332 b 143 -339 143 -332 144 -335 l 142 -346 b 135 -351 140 -350 139 -351 l -14 -351 "},"\\":{"ha":571,"x_min":0,"x_max":0,"o":"m 376 -83 b 369 -78 371 -83 369 -82 l 164 981 b 168 986 164 983 164 986 l 179 986 b 188 981 185 986 186 985 l 392 -78 b 388 -83 393 -81 393 -83 l 376 -83 "},"]":{"ha":329,"x_min":0,"x_max":0,"o":"m -103 -351 b -108 -346 -107 -351 -110 -350 l -106 -337 b -100 -332 -104 -333 -104 -332 l 32 -332 l 271 1021 l 139 1021 b 135 1026 135 1021 133 1022 l 136 1035 b 142 1040 136 1039 138 1040 l 292 1040 b 297 1035 296 1040 299 1039 l 53 -346 b 47 -351 51 -350 51 -351 l -103 -351 "},"^":{"ha":826,"x_min":0,"x_max":0,"o":"m 154 722 b 151 731 149 722 146 725 l 510 1121 b 518 1125 513 1125 515 1125 l 524 1125 b 532 1121 528 1125 529 1125 l 757 731 b 754 722 760 725 760 722 l 743 722 b 731 728 736 722 735 724 l 518 1100 l 515 1100 l 178 728 b 165 722 172 722 172 722 l 154 722 "},"_":{"ha":714,"x_min":0,"x_max":0,"o":"m -14 -19 b -18 -14 -18 -19 -19 -18 l -17 -6 b -11 0 -17 -1 -15 0 l 550 0 b 556 -6 554 0 556 -1 l 554 -14 b 547 -19 553 -18 551 -19 l -14 -19 "},"`":{"ha":410,"x_min":0,"x_max":0,"o":"m 140 986 b 139 996 138 989 135 992 l 146 1001 b 157 1000 151 1006 153 1004 l 318 844 b 321 833 322 840 325 836 l 315 829 b 306 829 313 826 310 826 "},"a":{"ha":699,"x_min":0,"x_max":0,"o":"m 247 -19 b 33 151 88 -19 33 43 b 318 392 33 324 147 392 b 539 372 414 392 510 378 b 563 533 558 482 563 504 b 374 710 563 632 515 710 b 133 583 257 710 188 656 b 125 581 131 581 129 579 l 118 585 b 118 594 114 588 115 590 b 376 728 183 682 257 728 b 582 536 531 728 582 643 b 510 96 582 493 575 469 b 446 17 501 47 488 35 b 247 -19 390 -7 326 -19 m 250 -1 b 440 33 321 -1 382 10 b 490 96 476 47 483 56 l 536 354 b 315 374 507 360 410 374 b 53 154 156 374 53 307 b 250 -1 53 51 106 -1 "},"b":{"ha":738,"x_min":0,"x_max":0,"o":"m 283 -19 b 96 19 197 -19 136 -1 b 58 96 58 38 50 50 l 221 1022 b 226 1028 222 1026 222 1028 l 235 1028 b 240 1022 239 1028 242 1026 l 176 664 b 422 728 208 681 300 728 b 625 464 583 728 656 638 l 589 256 b 283 -19 557 76 457 -19 m 283 0 b 569 256 446 0 540 86 l 606 464 b 419 708 635 625 569 708 b 174 643 300 708 207 660 l 76 96 b 104 38 71 60 74 54 b 283 0 140 19 203 0 "},"c":{"ha":708,"x_min":0,"x_max":0,"o":"m 276 -19 b 63 244 107 -19 33 81 l 101 465 b 406 728 129 628 232 728 b 626 533 561 728 615 658 b 624 526 626 529 626 528 l 614 524 b 608 528 610 522 608 524 b 404 708 596 653 544 708 b 119 465 243 708 146 614 l 81 244 b 276 0 54 96 118 0 b 551 189 410 0 478 58 b 557 192 554 193 553 193 l 567 189 b 569 181 569 188 571 186 b 276 -19 500 44 422 -19 "},"d":{"ha":738,"x_min":0,"x_max":0,"o":"m 276 -19 b 65 256 100 -19 33 76 l 101 464 b 396 728 132 638 235 728 b 619 664 518 728 593 681 l 683 1022 b 689 1028 685 1026 685 1028 l 697 1028 b 703 1022 701 1028 704 1026 l 539 96 b 478 19 532 50 521 38 b 276 -19 429 -1 360 -19 m 276 0 b 469 38 360 0 428 19 b 521 96 508 54 514 60 l 617 643 b 396 708 592 660 515 708 b 121 464 246 708 150 625 l 85 256 b 276 0 53 86 117 0 "},"e":{"ha":724,"x_min":0,"x_max":0,"o":"m 79 246 b 267 -1 51 93 111 -1 b 544 160 401 -1 486 67 b 553 161 547 163 550 163 l 560 157 b 561 149 562 156 562 153 b 267 -19 499 57 412 -19 b 58 246 94 -19 29 82 b 93 443 69 311 82 378 b 406 728 124 622 240 728 b 625 517 567 728 650 657 b 324 310 601 381 496 310 b 93 327 237 310 173 314 m 403 710 b 114 443 253 710 143 611 l 97 346 b 325 329 178 332 256 329 b 606 519 476 329 582 388 b 403 710 628 646 551 710 "},"f":{"ha":440,"x_min":0,"x_max":0,"o":"m 94 0 b 89 6 90 0 89 1 l 210 690 l 72 690 b 68 696 68 690 67 692 l 69 703 b 75 708 69 707 71 708 l 213 708 l 224 768 b 479 1028 261 972 306 1026 l 486 1028 b 492 1022 490 1028 493 1026 l 490 1014 b 485 1008 490 1010 489 1008 b 242 767 325 1010 275 964 l 232 708 l 432 708 b 438 703 436 708 438 707 l 436 696 b 429 690 435 692 433 690 l 229 690 l 108 6 b 103 0 107 1 107 0 l 94 0 "},"g":{"ha":735,"x_min":0,"x_max":0,"o":"m 204 -361 b -1 -193 74 -361 22 -289 b 0 -186 -3 -190 -3 -187 l 10 -182 b 18 -186 15 -179 17 -182 b 206 -342 42 -274 85 -342 b 490 -62 376 -342 460 -232 l 508 38 b 250 -19 451 10 371 -19 b 63 243 86 -19 35 79 l 100 453 b 403 728 132 632 228 728 b 590 689 488 728 550 710 b 628 613 628 671 636 658 l 508 -62 b 204 -361 476 -244 389 -361 m 251 -1 b 511 61 378 -1 456 32 l 608 613 b 581 671 615 649 613 654 b 401 710 546 689 483 710 b 119 453 240 710 150 621 l 82 243 b 251 -1 54 88 104 -1 "},"h":{"ha":757,"x_min":0,"x_max":0,"o":"m 51 0 b 46 6 47 0 46 1 l 225 1022 b 231 1028 226 1026 226 1028 l 239 1028 b 244 1022 243 1028 246 1026 l 182 668 b 438 728 253 703 338 728 b 626 464 601 728 656 631 l 546 6 b 540 0 544 1 544 0 l 532 0 b 526 6 528 0 526 1 l 607 463 b 435 710 635 622 586 710 b 179 647 342 710 256 686 l 65 6 b 60 0 64 1 64 0 l 51 0 "},"i":{"ha":283,"x_min":0,"x_max":0,"o":"m 214 918 b 199 938 200 918 194 921 l 200 943 b 221 963 204 957 207 963 l 228 963 b 243 943 242 963 246 957 l 242 938 b 221 918 238 924 235 918 l 214 918 m 51 0 b 46 6 47 0 46 1 l 169 703 b 175 708 169 707 171 708 l 183 708 b 189 703 188 708 189 707 l 65 6 b 60 0 64 1 64 0 l 51 0 "},"j":{"ha":283,"x_min":0,"x_max":0,"o":"m 214 918 b 197 939 199 918 193 921 l 199 944 b 221 965 203 960 207 965 l 228 965 b 244 944 243 965 247 958 l 243 939 b 221 918 239 924 235 918 l 214 918 m -201 -319 b -207 -314 -207 -319 -208 -318 l -206 -306 b -201 -300 -206 -301 -204 -300 b 42 -18 -12 -300 10 -200 l 169 703 b 175 708 169 707 171 708 l 183 708 b 189 703 188 708 189 707 l 61 -18 b -201 -319 26 -212 -1 -319 "},"k":{"ha":678,"x_min":0,"x_max":0,"o":"m 51 0 b 46 6 47 0 46 1 l 225 1022 b 231 1028 226 1026 226 1028 l 239 1028 b 244 1022 243 1028 246 1026 l 131 375 l 318 375 l 332 375 l 617 703 b 631 708 622 708 624 708 l 638 708 b 642 701 644 708 644 706 l 353 372 b 460 264 418 361 444 325 l 531 6 b 528 0 531 3 532 0 l 519 0 b 510 4 513 0 511 1 l 442 256 b 315 357 424 325 390 357 l 128 357 l 65 6 b 60 0 64 1 64 0 l 51 0 "},"l":{"ha":294,"x_min":0,"x_max":0,"o":"m 57 0 b 51 6 53 0 51 1 l 231 1022 b 236 1028 232 1026 232 1028 l 244 1028 b 250 1021 249 1028 251 1026 l 71 6 b 65 0 69 1 69 0 l 57 0 "},"m":{"ha":1147,"x_min":0,"x_max":0,"o":"m 47 0 b 42 6 44 0 40 1 l 149 608 b 210 688 156 650 171 669 b 400 728 254 708 318 728 b 579 649 499 728 554 701 b 832 728 626 679 694 728 b 1017 474 992 728 1046 639 l 935 6 b 929 0 933 1 933 0 l 921 0 b 915 6 917 0 914 1 l 997 472 b 831 710 1025 632 978 710 b 586 631 703 710 636 665 b 589 492 599 597 599 549 l 503 6 b 497 0 501 1 501 0 l 490 0 b 483 6 485 0 483 1 l 569 490 b 397 710 597 650 543 710 b 213 669 317 710 264 694 b 168 608 179 653 172 633 l 61 6 b 56 0 60 1 60 0 l 47 0 "},"n":{"ha":753,"x_min":0,"x_max":0,"o":"m 47 0 b 42 6 44 0 42 1 l 149 608 b 207 683 156 650 168 667 b 433 728 256 704 326 728 b 622 464 597 728 651 631 l 542 6 b 536 0 540 1 540 0 l 528 0 b 522 6 524 0 522 1 l 603 463 b 431 710 631 621 582 710 b 213 665 336 710 257 688 b 168 608 179 650 172 633 l 61 6 b 56 0 60 1 60 0 l 47 0 "},"o":{"ha":740,"x_min":0,"x_max":0,"o":"m 281 -19 b 58 211 125 -19 33 68 l 110 497 b 408 728 136 646 249 728 b 632 497 564 728 657 638 l 582 211 b 281 -19 557 68 436 -19 m 279 -1 b 563 210 425 -1 539 79 l 614 499 b 407 710 638 628 550 710 b 129 499 260 710 151 628 l 78 210 b 279 -1 54 81 139 -1 "},"p":{"ha":735,"x_min":0,"x_max":0,"o":"m -7 -306 b -12 -300 -11 -306 -12 -304 l 149 613 b 211 689 157 658 168 671 b 413 728 261 710 328 728 b 621 453 588 728 653 632 l 583 243 b 307 -19 554 79 468 -19 b 69 49 183 -19 99 29 l 7 -300 b 1 -306 7 -304 6 -306 l -7 -306 m 307 0 b 564 243 457 0 538 88 l 601 453 b 411 710 631 622 572 710 b 218 671 329 710 258 689 b 168 613 182 654 175 649 l 74 72 b 307 0 101 51 189 0 "},"q":{"ha":735,"x_min":0,"x_max":0,"o":"m 453 -306 b 447 -300 449 -306 446 -304 l 510 47 b 250 -19 474 28 371 -19 b 63 243 86 -19 35 79 l 100 453 b 403 728 132 632 228 728 b 590 689 488 728 549 710 b 628 613 628 671 636 658 l 467 -300 b 461 -306 467 -304 465 -306 l 453 -306 m 251 0 b 513 72 372 0 476 49 l 608 613 b 581 671 615 649 611 654 b 401 710 546 689 483 710 b 119 453 240 710 149 622 l 82 243 b 251 0 54 88 104 0 "},"r":{"ha":457,"x_min":0,"x_max":0,"o":"m 47 0 b 42 6 44 0 40 1 l 144 589 b 200 665 151 631 163 649 b 414 708 247 686 315 708 l 444 708 b 450 703 449 708 451 707 l 449 696 b 443 690 447 692 447 690 l 413 690 b 207 647 325 690 249 667 b 164 589 175 632 168 614 l 61 6 b 56 0 60 1 60 0 l 47 0 "},"s":{"ha":675,"x_min":0,"x_max":0,"o":"m 265 -19 b 25 160 138 -19 46 26 b 26 167 24 163 24 165 l 36 169 b 43 165 40 171 43 169 b 265 -1 63 43 149 -1 b 513 186 424 -1 513 61 b 328 342 513 289 444 324 b 106 522 214 360 101 385 b 369 728 110 675 210 729 b 589 575 513 726 574 669 b 589 568 589 572 590 569 l 582 565 b 574 569 575 563 575 565 b 368 710 556 656 500 708 b 124 522 217 711 128 656 b 329 360 119 401 222 378 b 532 186 453 339 532 307 b 265 -19 532 49 431 -19 "},"t":{"ha":450,"x_min":0,"x_max":0,"o":"m 326 0 b 142 257 153 0 106 50 l 218 690 l 71 690 b 67 696 67 690 65 692 l 68 703 b 74 708 68 707 69 708 l 221 708 l 250 869 b 256 875 250 874 251 875 l 264 875 b 269 869 268 875 269 874 l 240 708 l 453 708 b 458 703 457 708 458 707 l 457 696 b 450 690 456 692 454 690 l 238 690 l 160 257 b 326 19 125 60 168 19 b 333 14 332 19 335 18 l 332 6 b 326 0 331 1 329 0 "},"u":{"ha":753,"x_min":0,"x_max":0,"o":"m 271 -19 b 82 244 106 -19 53 79 l 163 703 b 168 708 163 707 164 708 l 176 708 b 182 703 181 708 182 707 l 101 246 b 272 0 72 86 122 0 b 493 43 374 0 447 21 b 536 100 525 58 532 75 l 643 703 b 649 708 643 707 644 708 l 657 708 b 663 703 660 708 663 707 l 556 100 b 497 25 549 58 536 42 b 271 -19 447 4 382 -19 "},"v":{"ha":679,"x_min":0,"x_max":0,"o":"m 250 -7 b 242 0 244 -7 243 -6 l 90 699 b 94 708 89 704 89 708 l 101 708 b 110 701 108 708 108 707 l 236 108 b 256 18 243 78 250 49 l 258 18 b 308 107 274 47 290 78 l 644 703 b 654 708 646 707 647 708 l 661 708 b 664 700 665 708 667 706 l 267 0 b 256 -7 263 -6 261 -7 l 250 -7 "},"w":{"ha":1008,"x_min":0,"x_max":0,"o":"m 193 -8 b 188 -1 189 -8 189 -8 l 100 701 b 106 708 99 706 99 708 l 113 708 b 119 701 119 708 119 706 l 189 140 b 203 19 194 101 197 63 l 204 19 b 263 143 222 61 244 104 l 522 675 b 531 681 525 679 525 681 l 539 681 b 547 675 544 681 546 679 l 619 153 b 636 19 625 111 631 65 l 638 19 b 696 147 657 64 676 106 l 963 703 b 971 708 964 708 965 708 l 978 708 b 983 701 983 708 985 706 l 646 -1 b 638 -8 644 -6 642 -8 l 628 -8 b 621 -1 622 -8 621 -6 l 544 558 b 531 649 539 589 535 618 l 529 649 b 485 558 515 618 500 589 l 211 -1 b 204 -8 208 -8 210 -8 l 193 -8 "},"x":{"ha":643,"x_min":0,"x_max":0,"o":"m -32 0 b -35 4 -35 0 -37 1 l 288 364 l 101 704 b 106 708 100 707 101 708 l 115 708 b 124 704 119 708 122 708 l 300 379 l 590 704 b 599 708 593 707 593 708 l 613 708 b 615 704 615 708 618 707 l 314 365 l 507 4 b 506 0 507 1 508 0 l 492 0 b 483 4 488 0 486 1 l 300 349 l -10 4 b -19 0 -12 1 -14 0 l -32 0 "},"y":{"ha":757,"x_min":0,"x_max":0,"o":"m 219 -361 b 14 -194 89 -361 36 -293 b 17 -186 13 -192 11 -189 l 22 -183 b 31 -187 28 -181 31 -183 b 221 -342 54 -276 101 -342 b 508 -62 392 -342 478 -233 l 526 38 b 271 -19 475 17 394 -19 b 82 244 106 -19 53 79 l 163 703 b 168 708 163 707 164 708 l 176 708 b 182 703 181 708 182 707 l 101 246 b 272 -1 72 86 122 -1 b 528 57 392 -1 481 36 l 643 703 b 649 708 643 707 644 708 l 657 708 b 663 703 661 708 663 707 l 526 -62 b 219 -361 494 -244 404 -361 "},"z":{"ha":606,"x_min":0,"x_max":0,"o":"m -11 0 b -17 6 -15 0 -17 1 l -15 13 b -11 22 -14 17 -15 17 l 538 690 l 114 690 b 111 696 111 690 110 692 l 113 703 b 117 708 113 707 114 708 l 560 708 b 565 703 564 708 565 707 l 564 696 b 558 685 563 690 561 689 l 10 18 l 447 18 b 451 13 450 18 451 17 l 450 6 b 446 0 449 1 449 0 l -11 0 "},"{":{"ha":399,"x_min":0,"x_max":0,"o":"m 157 -353 b 47 -182 56 -353 26 -297 l 113 183 b 21 335 131 285 110 335 l 7 335 b 3 340 3 335 1 336 l 4 349 b 10 354 4 353 6 354 l 24 354 b 169 506 113 354 151 404 l 233 869 b 401 1040 254 985 300 1040 l 451 1040 b 457 1035 456 1040 458 1039 l 454 1026 b 449 1021 453 1022 453 1021 l 399 1021 b 256 869 313 1021 274 971 l 190 506 b 86 344 175 418 144 365 b 133 183 138 324 149 271 l 69 -182 b 158 -333 51 -283 72 -333 l 208 -333 b 214 -339 213 -333 215 -335 l 213 -347 b 207 -353 213 -351 211 -353 l 157 -353 "},"|":{"ha":274,"x_min":0,"x_max":0,"o":"m 11 -204 b 6 -199 7 -204 6 -203 l 250 1183 b 256 1189 250 1188 251 1189 l 263 1189 b 268 1183 267 1189 268 1188 l 24 -199 b 18 -204 24 -203 22 -204 l 11 -204 "},"}":{"ha":399,"x_min":0,"x_max":0,"o":"m -106 -353 b -111 -346 -110 -353 -112 -351 l -110 -339 b -103 -333 -108 -333 -107 -333 l -54 -333 b 90 -182 32 -333 72 -283 l 156 183 b 260 344 171 271 200 324 b 213 506 210 365 197 418 l 276 869 b 186 1021 294 971 272 1021 l 136 1021 b 132 1026 132 1021 132 1022 l 133 1035 b 140 1040 135 1040 136 1040 l 189 1040 b 299 869 290 1040 319 985 l 233 506 b 325 354 215 404 238 354 l 338 354 b 343 349 342 354 344 354 l 342 340 b 336 335 340 336 340 335 l 322 335 b 176 183 235 335 194 285 l 113 -182 b -56 -353 92 -297 46 -353 l -106 -353 "},"~":{"ha":782,"x_min":0,"x_max":0,"o":"m 500 401 b 268 468 400 401 361 468 b 126 403 213 468 174 444 b 117 406 122 400 119 403 l 113 410 b 113 419 108 414 110 415 b 268 488 164 461 208 488 b 500 421 369 488 407 421 b 643 486 556 421 600 447 b 651 485 646 489 649 488 l 657 478 b 657 469 660 475 660 472 b 500 401 606 428 560 401 "}," ":{"ha":353,"x_min":0,"x_max":0,"o":""},"¡":{"ha":271,"x_min":0,"x_max":0,"o":"m 163 664 b 146 685 147 664 142 667 l 147 690 b 169 711 151 706 156 711 l 176 711 b 193 690 192 711 196 704 l 192 685 b 169 664 188 669 183 664 l 163 664 m -14 -325 b -19 -319 -18 -325 -21 -324 l 132 517 b 138 522 133 521 133 522 l 142 522 b 147 517 146 522 147 521 l 4 -319 b -1 -325 3 -324 3 -325 l -14 -325 "},"¢":{"ha":736,"x_min":0,"x_max":0,"o":"m 257 -117 b 251 -111 253 -117 251 -115 l 268 -19 b 69 244 110 -14 42 86 l 108 465 b 400 728 135 624 233 722 l 419 842 b 426 847 421 846 422 847 l 436 847 b 442 842 442 847 443 846 l 421 728 b 633 533 569 725 622 656 b 631 526 633 529 633 528 l 621 524 b 615 528 617 522 615 524 b 411 708 603 653 551 708 b 126 465 250 708 153 614 l 88 244 b 283 0 61 96 125 0 b 558 189 417 0 485 58 b 564 192 561 193 560 193 l 574 189 b 576 181 576 188 578 186 b 290 -19 508 47 432 -17 l 274 -111 b 267 -117 274 -115 272 -117 l 257 -117 "},"£":{"ha":863,"x_min":0,"x_max":0,"o":"m -3 0 b -8 6 -7 0 -8 1 l -7 14 b -1 19 -6 18 -6 19 l 33 19 b 171 172 114 19 160 110 l 222 461 l 96 461 b 92 467 92 461 90 463 l 93 475 b 99 481 93 479 94 481 l 225 481 l 276 768 b 571 1006 303 913 389 1006 b 803 786 703 1006 776 956 b 799 781 804 783 803 782 l 792 778 b 783 783 785 775 785 778 b 571 986 757 940 693 986 b 299 768 393 986 319 890 l 247 481 l 631 481 b 636 475 635 481 636 479 l 635 467 b 628 461 633 463 632 461 l 244 461 l 193 172 b 106 22 181 108 150 54 l 101 19 l 232 19 l 664 19 b 669 14 668 19 671 18 l 668 6 b 663 0 667 1 667 0 l -3 0 "},"¤":{"ha":813,"x_min":0,"x_max":0,"o":"m 347 151 b 167 235 271 151 210 183 l 76 153 b 68 153 74 150 71 150 l 64 158 b 64 167 61 161 61 164 l 154 249 b 108 407 126 292 108 346 b 226 683 108 508 154 611 l 168 764 b 168 772 165 767 165 769 l 175 778 b 185 778 178 781 182 781 l 242 699 b 456 782 303 751 381 782 b 636 699 531 782 594 750 l 724 781 b 732 781 728 783 729 783 l 738 775 b 738 767 740 772 740 769 l 649 685 b 693 529 678 643 693 589 b 576 251 693 428 649 324 l 635 171 b 633 163 636 168 638 165 l 628 157 b 619 157 624 154 621 154 l 560 238 b 347 151 499 183 422 151 m 347 172 b 672 528 522 172 672 349 b 454 760 672 663 583 760 b 131 408 279 760 131 589 b 347 172 131 275 218 172 "},"¥":{"ha":857,"x_min":0,"x_max":0,"o":"m 338 0 b 332 6 333 0 332 1 l 374 239 l 139 239 b 135 244 135 239 133 240 l 135 251 b 142 257 136 256 138 257 l 376 257 l 408 435 l 174 435 b 168 440 169 435 168 436 l 169 447 b 175 453 171 451 171 453 l 401 453 l 157 981 b 161 986 157 983 157 986 l 174 986 b 182 981 181 986 181 985 l 422 460 l 846 981 b 857 986 849 985 851 986 l 869 986 b 874 981 874 986 875 983 l 443 453 l 663 453 b 668 447 667 453 669 451 l 667 440 b 661 435 667 436 665 435 l 429 435 l 397 257 l 629 257 b 633 251 633 257 635 256 l 632 244 b 626 239 632 240 631 239 l 394 239 l 353 6 b 347 0 351 1 351 0 l 338 0 "},"¦":{"ha":288,"x_min":0,"x_max":0,"o":"m 160 599 b 154 604 156 599 154 600 l 257 1183 b 263 1189 257 1188 258 1189 l 269 1189 b 275 1183 274 1189 275 1188 l 172 604 b 167 599 171 600 171 599 l 160 599 m 18 -203 b 13 -197 14 -203 13 -201 l 115 382 b 121 388 117 386 117 388 l 128 388 b 133 382 132 388 133 386 l 31 -197 b 25 -203 31 -201 29 -203 l 18 -203 "},"§":{"ha":808,"x_min":0,"x_max":0,"o":"m 300 -312 b 3 -64 122 -312 25 -232 b 7 -58 3 -61 3 -60 l 18 -56 b 24 -62 22 -56 24 -57 b 307 -293 44 -215 139 -293 b 586 -69 482 -293 586 -210 b 338 129 586 51 513 110 b 79 336 156 149 79 210 b 288 583 79 450 139 522 b 161 767 206 608 161 672 b 468 1017 161 921 278 1017 b 750 769 638 1017 724 940 b 746 764 751 767 750 765 l 738 761 b 731 767 732 760 731 760 b 464 997 708 924 622 997 b 182 769 289 997 182 910 b 411 576 182 654 251 593 b 674 382 590 558 674 496 b 482 121 674 275 601 178 b 608 -65 567 88 608 26 b 300 -312 608 -221 494 -312 m 454 132 b 653 379 575 181 653 278 b 419 556 653 482 575 539 b 317 571 386 560 351 565 b 103 336 172 525 103 447 b 332 153 103 226 171 176 b 454 132 378 146 419 140 "},"¨":{"ha":663,"x_min":0,"x_max":0,"o":"m 275 882 b 261 899 263 882 258 886 l 263 906 b 281 921 265 917 267 921 l 289 921 b 303 906 299 921 304 917 l 301 897 b 283 882 300 885 294 882 l 275 882 m 507 882 b 493 899 494 882 490 886 l 494 906 b 513 921 497 917 499 921 l 521 921 b 535 906 531 921 536 917 l 533 897 b 515 882 532 885 526 882 l 507 882 "},"©":{"ha":1131,"x_min":0,"x_max":0,"o":"m 479 -11 b 94 489 182 -11 40 174 b 653 986 150 801 357 986 b 1033 486 946 986 1089 801 b 479 -11 978 174 771 -11 m 481 8 b 1014 489 763 8 961 186 b 651 967 1068 789 933 967 b 114 486 367 967 167 789 b 481 8 61 186 196 8 m 508 192 b 335 394 372 192 313 269 l 364 567 b 601 769 386 692 465 769 b 786 619 729 769 778 715 b 785 614 786 617 788 615 l 774 611 b 768 614 769 610 768 610 b 606 750 760 710 717 750 b 385 567 476 750 406 682 l 354 394 b 507 211 335 282 383 211 b 725 358 615 211 682 256 b 733 360 726 361 728 361 l 739 358 b 743 350 743 357 746 356 b 508 192 699 247 625 192 "},"ª":{"ha":522,"x_min":0,"x_max":0,"o":"m 256 493 b 126 593 164 493 126 538 b 297 733 126 693 189 733 b 425 724 363 733 408 726 b 438 815 435 771 438 794 b 336 911 438 875 410 911 b 199 838 281 911 240 890 b 190 836 196 835 193 835 l 185 839 b 185 850 182 842 181 844 b 338 931 226 906 276 931 b 457 817 424 931 457 888 b 421 589 457 782 450 746 b 369 514 413 544 403 531 b 256 493 342 500 306 493 m 257 513 b 358 529 307 513 335 518 b 401 589 383 540 396 553 l 422 704 b 296 714 407 707 360 714 b 147 594 197 714 147 676 b 257 513 147 549 179 513 "},"«":{"ha":743,"x_min":0,"x_max":0,"o":"m 285 68 b 276 68 282 65 279 64 l 63 361 b 63 368 60 364 60 365 l 381 664 b 389 664 385 667 388 667 l 394 658 b 393 649 396 656 399 653 l 88 365 l 292 82 b 292 74 294 79 294 76 l 285 68 m 563 68 b 554 68 560 65 557 64 l 340 361 b 340 368 338 364 338 365 l 658 664 b 667 664 663 667 665 667 l 672 658 b 671 649 674 656 676 653 l 365 365 l 569 82 b 569 74 572 79 572 76 l 563 68 "},"¬":{"ha":792,"x_min":0,"x_max":0,"o":"m 603 194 b 596 200 597 194 594 196 l 646 488 l 138 488 b 132 493 133 488 132 489 l 133 501 b 139 507 135 506 135 507 l 665 507 b 671 501 669 507 672 506 l 618 200 b 613 194 617 196 617 194 l 603 194 "},"®":{"ha":686,"x_min":0,"x_max":0,"o":"m 340 447 b 147 718 190 447 119 547 b 432 986 175 886 281 986 b 625 715 583 986 653 886 b 340 447 597 547 490 447 m 342 464 b 607 718 479 464 581 558 b 433 968 633 875 568 968 b 165 715 293 968 192 875 b 342 464 139 558 206 464 m 272 571 b 269 575 269 571 269 572 l 318 851 b 329 863 319 860 321 863 l 425 863 b 504 769 483 863 515 829 b 421 685 496 722 465 692 l 461 578 b 457 571 463 574 463 571 l 450 571 b 440 575 443 571 443 571 l 400 682 l 307 682 l 288 575 b 282 571 288 572 286 571 l 272 571 m 396 700 b 486 772 444 700 478 724 b 424 844 494 818 471 844 l 335 844 l 310 700 "},"¯":{"ha":542,"x_min":0,"x_max":0,"o":"m 185 890 b 179 896 179 890 179 893 l 181 903 b 188 908 182 907 183 908 l 492 908 b 497 903 496 908 499 908 l 496 896 b 490 890 494 892 494 890 l 185 890 "},"°":{"ha":521,"x_min":0,"x_max":0,"o":"m 276 578 b 140 739 193 578 140 640 b 340 963 140 864 229 963 b 478 808 425 963 478 903 b 276 578 478 683 386 578 m 279 599 b 457 804 375 599 457 693 b 336 942 457 889 411 942 b 163 740 239 942 163 854 b 279 599 163 653 207 599 "},"±":{"ha":947,"x_min":0,"x_max":0,"o":"m 442 325 b 436 331 438 325 436 326 l 474 540 l 188 540 b 183 546 183 540 182 542 l 185 554 b 190 560 185 558 186 560 l 476 560 l 515 774 b 521 779 515 778 517 779 l 529 779 b 535 774 533 779 535 778 l 496 560 l 779 560 b 785 554 783 560 785 558 l 783 546 b 776 540 782 542 781 540 l 493 540 l 456 331 b 450 325 456 326 454 325 l 442 325 m 128 201 b 124 207 124 201 122 203 l 125 215 b 131 221 125 219 126 221 l 719 221 b 725 215 724 221 725 219 l 724 207 b 717 201 722 203 721 201 l 128 201 "},"´":{"ha":354,"x_min":0,"x_max":0,"o":"m 163 833 b 165 844 160 839 161 842 l 383 1000 b 393 1000 389 1004 389 1004 l 397 996 b 396 986 401 992 400 989 l 175 829 b 165 829 169 825 168 826 "},"µ":{"ha":740,"x_min":0,"x_max":0,"o":"m -15 -306 b -19 -300 -18 -306 -19 -304 l 158 703 b 164 708 158 707 160 708 l 172 708 b 178 703 176 708 179 707 l 97 246 b 268 0 69 86 121 0 b 488 43 364 0 442 21 b 532 99 519 58 528 74 l 639 703 b 644 708 640 707 640 708 l 653 708 b 658 703 656 708 658 707 l 551 99 b 493 25 544 57 532 43 b 268 -19 442 1 372 -19 b 75 122 158 -19 85 25 l 1 -300 b -4 -306 1 -304 0 -306 l -15 -306 "},"¶":{"ha":399,"x_min":0,"x_max":0,"o":"m 68 -124 b 64 -118 64 -124 63 -122 l 231 825 b 179 906 193 825 171 857 b 258 986 189 954 219 986 l 340 986 b 347 981 346 986 347 985 l 153 -118 b 146 -124 153 -122 151 -124 l 135 -124 b 129 -118 129 -124 128 -122 l 319 964 l 281 964 l 89 -118 b 82 -124 88 -122 88 -124 l 68 -124 "},"·":{"ha":286,"x_min":0,"x_max":0,"o":"m 106 338 b 89 358 90 338 85 340 l 90 364 b 113 385 94 379 99 385 l 119 385 b 136 364 135 385 139 378 l 135 358 b 113 338 131 343 126 338 l 106 338 "},"¸":{"ha":353,"x_min":0,"x_max":0,"o":"m 35 -339 b -60 -300 -17 -339 -46 -314 b -62 -289 -64 -296 -64 -293 l -61 -283 b -54 -281 -60 -279 -57 -278 b 36 -321 -36 -299 -8 -321 b 160 -215 101 -321 154 -292 b 86 -135 164 -164 138 -135 b 35 -143 67 -135 49 -139 b 24 -133 26 -146 21 -139 l 85 0 l 104 0 l 47 -124 b 93 -117 58 -119 76 -117 b 179 -218 153 -117 185 -156 b 35 -339 172 -300 114 -339 "},"º":{"ha":528,"x_min":0,"x_max":0,"o":"m 264 494 b 139 657 164 494 121 556 l 158 768 b 339 931 176 868 239 931 b 465 768 442 931 483 868 l 446 657 b 264 494 428 556 367 494 m 265 514 b 426 657 354 514 410 567 l 446 768 b 338 911 461 857 426 911 b 178 768 251 911 193 857 l 158 657 b 265 514 142 567 179 514 "},"»":{"ha":743,"x_min":0,"x_max":0,"o":"m 25 74 b 25 82 22 76 22 79 l 332 365 l 126 649 b 126 658 124 653 122 654 l 133 664 b 142 664 138 668 140 667 l 357 368 b 356 360 358 365 358 363 l 39 68 b 31 68 35 64 33 65 m 303 74 b 303 82 300 76 300 79 l 610 365 l 404 649 b 406 658 401 653 401 656 l 411 664 b 419 664 415 667 418 667 l 633 369 b 632 360 636 365 635 363 l 317 68 b 307 68 313 64 310 65 "},"¼":{"ha":1032,"x_min":0,"x_max":0,"o":"m 251 444 b 246 450 247 444 246 446 l 338 968 l 153 872 b 147 874 150 871 149 871 l 143 881 b 146 888 142 885 143 886 l 340 990 b 349 993 344 992 346 993 l 356 993 b 360 988 360 993 360 990 l 265 450 b 260 444 264 446 264 444 l 251 444 m 129 0 b 126 7 124 0 121 1 l 903 979 b 914 986 907 985 908 986 l 921 986 b 925 979 926 986 931 985 l 150 7 b 136 0 146 1 144 0 l 129 0 m 778 0 b 772 6 774 0 772 1 l 801 171 l 536 171 b 531 175 532 171 531 172 l 532 183 b 536 192 532 186 533 189 l 858 543 b 872 549 864 549 867 549 l 881 549 b 886 542 886 549 888 547 l 824 189 l 899 189 b 904 183 903 189 904 188 l 903 178 b 897 171 901 172 901 171 l 821 171 l 792 6 b 786 0 790 1 790 0 l 778 0 m 804 189 l 864 524 l 558 189 "},"½":{"ha":1117,"x_min":0,"x_max":0,"o":"m 250 444 b 244 450 246 444 244 446 l 336 968 l 151 872 b 146 874 149 871 147 871 l 142 881 b 144 888 140 885 142 886 l 339 990 b 347 993 343 992 344 993 l 354 993 b 358 988 358 993 358 990 l 264 450 b 258 444 263 446 263 444 l 250 444 m 117 0 b 114 7 111 0 108 1 l 890 979 b 901 986 894 985 896 986 l 908 986 b 913 979 914 986 918 985 l 138 7 b 124 0 133 1 132 0 l 117 0 m 621 0 b 613 10 614 0 611 3 l 624 76 b 743 232 638 154 675 206 l 828 265 b 996 442 908 297 996 331 b 872 542 996 504 961 542 b 701 407 749 542 710 429 b 696 403 700 403 699 403 l 688 404 b 685 413 683 406 683 408 b 872 560 693 438 735 560 b 1014 443 971 560 1014 515 b 831 247 1014 322 938 290 l 749 214 b 643 76 690 190 657 153 l 633 18 l 932 18 b 939 13 938 18 939 17 l 938 6 b 931 0 936 1 936 0 l 621 0 "},"¾":{"ha":1103,"x_min":0,"x_max":0,"o":"m 268 435 b 108 592 157 435 113 488 b 111 599 108 597 108 597 l 121 600 b 126 593 125 601 126 600 b 268 453 132 493 178 453 b 440 617 372 453 440 515 b 351 719 440 674 411 719 l 253 719 b 247 725 249 719 246 721 l 249 732 b 254 738 250 736 250 738 l 351 738 b 474 885 433 738 474 807 b 357 988 474 947 429 988 b 175 851 272 988 218 954 b 165 847 172 847 171 846 l 160 849 b 158 858 157 850 156 851 b 360 1006 206 969 264 1006 b 492 889 442 1006 492 958 b 393 728 492 807 464 754 b 458 621 435 715 458 671 b 268 435 458 499 381 435 m 200 0 b 197 7 194 0 192 1 l 974 979 b 985 986 978 985 979 986 l 992 986 b 996 979 997 986 1001 985 l 221 7 b 207 0 217 1 215 0 l 200 0 m 849 0 b 843 6 844 0 843 1 l 872 171 l 607 171 b 601 175 603 171 601 172 l 603 183 b 607 192 603 186 604 189 l 929 543 b 943 549 935 549 938 549 l 951 549 b 957 542 957 549 958 547 l 894 189 l 969 189 b 975 183 974 189 975 188 l 974 178 b 968 171 972 172 972 171 l 892 171 l 863 6 b 857 0 861 1 861 0 l 849 0 m 875 189 l 935 524 l 629 189 "},"¿":{"ha":804,"x_min":0,"x_max":0,"o":"m 489 665 b 472 686 474 665 468 668 b 474 692 472 688 474 690 b 496 713 478 707 482 713 l 503 713 b 519 692 518 713 522 706 b 518 686 519 690 518 688 b 496 665 514 671 510 665 l 489 665 m 281 -324 b 36 -37 94 -324 8 -196 b 264 278 67 142 169 213 b 458 529 346 332 433 393 b 464 533 458 533 460 533 l 472 533 b 476 526 476 533 478 533 b 274 258 450 378 363 319 b 57 -40 182 199 88 133 b 282 -304 32 -185 108 -304 b 611 -87 443 -304 546 -212 b 619 -85 614 -85 615 -83 l 629 -87 b 632 -96 633 -89 633 -90 b 281 -324 563 -226 453 -324 "},"À":{"ha":861,"x_min":0,"x_max":0,"o":"m 450 1219 b 450 1229 446 1222 444 1225 l 456 1233 b 467 1233 461 1238 463 1238 l 628 1078 b 631 1067 632 1074 635 1071 l 625 1063 b 615 1063 622 1060 619 1058 m -39 0 b -42 6 -43 0 -43 3 l 504 988 b 514 994 507 992 508 994 l 524 994 b 531 988 529 994 529 992 l 731 7 b 726 0 732 3 731 0 l 715 0 b 708 6 711 0 710 1 l 638 363 l 181 363 l -19 6 b -28 0 -22 1 -24 0 l -39 0 m 632 382 l 526 911 b 517 969 522 931 519 950 l 515 969 b 483 908 504 949 494 929 l 192 382 "},"Á":{"ha":861,"x_min":0,"x_max":0,"o":"m 431 1069 b 433 1081 426 1074 429 1078 l 650 1236 b 661 1236 656 1240 657 1240 l 665 1232 b 664 1222 669 1228 668 1225 l 443 1065 b 433 1065 438 1061 436 1063 m -39 0 b -42 6 -43 0 -43 3 l 504 988 b 514 994 507 992 508 994 l 524 994 b 531 988 529 994 529 992 l 731 7 b 726 0 732 3 731 0 l 715 0 b 708 6 711 0 710 1 l 638 363 l 181 363 l -19 6 b -28 0 -22 1 -24 0 l -39 0 m 632 382 l 526 911 b 517 969 522 931 519 950 l 515 969 b 483 908 504 949 494 929 l 192 382 "},"Â":{"ha":861,"x_min":0,"x_max":0,"o":"m 347 1065 b 344 1071 340 1065 340 1068 l 544 1235 b 561 1242 554 1242 554 1242 l 563 1242 b 576 1235 569 1242 571 1242 l 717 1071 b 713 1065 719 1068 719 1065 l 701 1065 b 692 1069 696 1065 694 1065 l 560 1222 l 372 1069 b 360 1065 367 1067 365 1065 l 347 1065 m -39 0 b -42 6 -43 0 -43 3 l 504 988 b 514 994 507 992 508 994 l 524 994 b 531 988 529 994 529 992 l 731 7 b 726 0 732 3 731 0 l 715 0 b 708 6 711 0 710 1 l 638 363 l 181 363 l -19 6 b -28 0 -22 1 -24 0 l -39 0 m 632 382 l 526 911 b 517 969 522 931 519 950 l 515 969 b 483 908 504 949 494 929 l 192 382 "},"Ã":{"ha":861,"x_min":0,"x_max":0,"o":"m 356 1081 b 350 1088 351 1081 350 1082 b 461 1207 363 1157 407 1207 b 631 1099 550 1207 554 1099 b 719 1203 676 1099 710 1143 b 725 1207 721 1206 721 1207 l 733 1207 b 739 1200 738 1207 739 1206 b 629 1081 726 1132 688 1081 b 460 1189 542 1081 539 1189 b 369 1085 418 1189 381 1146 b 364 1081 369 1082 368 1081 l 356 1081 m -39 0 b -42 6 -43 0 -43 3 l 504 988 b 514 994 507 992 508 994 l 524 994 b 531 988 529 994 529 992 l 731 7 b 726 0 732 3 731 0 l 715 0 b 708 6 711 0 710 1 l 638 363 l 181 363 l -19 6 b -28 0 -22 1 -24 0 l -39 0 m 632 382 l 526 911 b 517 969 522 931 519 950 l 515 969 b 483 908 504 949 494 929 l 192 382 "},"Ä":{"ha":861,"x_min":0,"x_max":0,"o":"m 424 1126 b 408 1142 410 1126 407 1129 l 410 1150 b 429 1165 411 1161 415 1165 l 436 1165 b 450 1150 447 1165 451 1161 l 449 1142 b 431 1126 447 1129 442 1126 l 424 1126 m 656 1126 b 640 1142 642 1126 639 1129 l 642 1150 b 661 1165 643 1161 647 1165 l 668 1165 b 682 1150 679 1165 683 1161 l 681 1142 b 663 1126 679 1129 674 1126 l 656 1126 m -39 0 b -42 6 -43 0 -43 3 l 504 988 b 514 994 507 992 508 994 l 524 994 b 531 988 529 994 529 992 l 731 7 b 726 0 732 3 731 0 l 715 0 b 708 6 711 0 710 1 l 638 363 l 181 363 l -19 6 b -28 0 -22 1 -24 0 l -39 0 m 632 382 l 526 911 b 517 969 522 931 519 950 l 515 969 b 483 908 504 949 494 929 l 192 382 "},"Å":{"ha":861,"x_min":0,"x_max":0,"o":"m -36 0 b -42 6 -43 0 -43 3 l 497 974 b 419 1096 440 982 407 1028 b 557 1217 432 1168 488 1217 b 649 1093 622 1217 663 1168 b 533 974 638 1028 594 981 l 731 6 b 725 0 731 3 732 0 l 719 0 b 708 6 713 0 710 1 l 638 363 l 181 363 l -19 6 b -31 0 -21 1 -24 0 l -36 0 m 517 989 b 632 1096 578 989 619 1031 b 557 1200 643 1158 610 1200 b 436 1093 493 1200 449 1158 b 517 989 425 1033 457 989 m 632 382 l 524 926 b 517 969 521 940 519 956 l 515 969 b 496 932 508 957 503 944 l 192 382 "},"Æ":{"ha":1110,"x_min":0,"x_max":0,"o":"m -60 0 b -65 6 -67 0 -67 3 l 664 979 b 678 986 668 985 672 986 l 1085 986 b 1090 981 1089 986 1090 985 l 1089 972 b 1083 967 1088 968 1088 967 l 690 967 l 610 508 l 944 508 b 950 503 949 508 951 507 l 949 494 b 943 489 949 490 947 489 l 606 489 l 524 19 l 933 19 b 939 14 938 19 940 18 l 938 6 b 932 0 936 1 936 0 l 507 0 b 500 6 501 0 499 1 l 549 281 l 164 281 l -40 6 b -50 0 -43 1 -44 0 l -60 0 m 551 300 l 668 956 l 181 300 "},"Ç":{"ha":875,"x_min":0,"x_max":0,"o":"m 322 -339 b 228 -300 271 -339 242 -314 b 225 -289 224 -296 224 -293 l 226 -283 b 233 -281 228 -279 231 -278 b 324 -321 251 -299 279 -321 b 447 -215 389 -321 442 -292 b 374 -135 451 -164 425 -135 b 322 -143 354 -135 336 -139 b 311 -133 314 -146 308 -139 l 364 -19 b 86 317 146 -19 49 110 l 149 671 b 543 1006 185 878 321 1006 b 832 758 747 1006 819 921 b 828 751 832 754 832 753 l 821 750 b 813 754 817 749 814 749 b 543 986 794 910 731 986 b 169 672 332 986 203 865 l 106 315 b 367 1 72 124 160 1 b 725 243 561 1 656 89 b 735 246 728 246 729 247 l 742 243 b 744 233 746 242 747 240 b 383 -19 672 76 578 -14 l 335 -124 b 381 -117 346 -119 364 -117 b 467 -218 440 -117 472 -156 b 322 -339 460 -300 401 -339 "},"È":{"ha":783,"x_min":0,"x_max":0,"o":"m 433 1219 b 433 1229 429 1222 428 1225 l 439 1233 b 450 1233 444 1238 446 1238 l 611 1078 b 614 1067 615 1074 618 1071 l 608 1063 b 599 1063 606 1060 603 1058 m 67 0 b 61 6 63 0 61 1 l 233 981 b 239 986 235 985 235 986 l 758 986 b 764 981 763 986 764 985 l 763 972 b 757 967 761 968 761 967 l 251 967 l 171 510 l 622 510 b 626 504 626 510 628 508 l 625 496 b 619 490 625 492 624 490 l 168 490 l 85 19 l 607 19 b 613 14 611 19 614 18 l 611 6 b 606 0 610 1 610 0 l 67 0 "},"É":{"ha":783,"x_min":0,"x_max":0,"o":"m 414 1069 b 417 1081 410 1074 413 1078 l 633 1236 b 644 1236 639 1240 640 1240 l 649 1232 b 647 1222 653 1228 651 1225 l 426 1065 b 417 1065 421 1061 419 1063 m 67 0 b 61 6 63 0 61 1 l 233 981 b 239 986 235 985 235 986 l 758 986 b 764 981 763 986 764 985 l 763 972 b 757 967 761 968 761 967 l 251 967 l 171 510 l 622 510 b 626 504 626 510 628 508 l 625 496 b 619 490 625 492 624 490 l 168 490 l 85 19 l 607 19 b 613 14 611 19 614 18 l 611 6 b 606 0 610 1 610 0 l 67 0 "},"Ê":{"ha":783,"x_min":0,"x_max":0,"o":"m 331 1065 b 328 1071 324 1065 324 1068 l 528 1235 b 544 1242 538 1242 538 1242 l 546 1242 b 560 1235 553 1242 554 1242 l 700 1071 b 696 1065 703 1068 703 1065 l 685 1065 b 675 1069 679 1065 678 1065 l 543 1222 l 356 1069 b 343 1065 350 1067 349 1065 l 331 1065 m 67 0 b 61 6 63 0 61 1 l 233 981 b 239 986 235 985 235 986 l 758 986 b 764 981 763 986 764 985 l 763 972 b 757 967 761 968 761 967 l 251 967 l 171 510 l 622 510 b 626 504 626 510 628 508 l 625 496 b 619 490 625 492 624 490 l 168 490 l 85 19 l 607 19 b 613 14 611 19 614 18 l 611 6 b 606 0 610 1 610 0 l 67 0 "},"Ë":{"ha":783,"x_min":0,"x_max":0,"o":"m 407 1126 b 392 1142 393 1126 390 1129 l 393 1150 b 413 1165 394 1161 399 1165 l 419 1165 b 433 1150 431 1165 435 1161 l 432 1142 b 414 1126 431 1129 425 1126 l 407 1126 m 639 1126 b 624 1142 625 1126 622 1129 l 625 1150 b 644 1165 626 1161 631 1165 l 651 1165 b 665 1150 663 1165 667 1161 l 664 1142 b 646 1126 663 1129 657 1126 l 639 1126 m 67 0 b 61 6 63 0 61 1 l 233 981 b 239 986 235 985 235 986 l 758 986 b 764 981 763 986 764 985 l 763 972 b 757 967 761 968 761 967 l 251 967 l 171 510 l 622 510 b 626 504 626 510 628 508 l 625 496 b 619 490 625 492 624 490 l 168 490 l 85 19 l 607 19 b 613 14 611 19 614 18 l 611 6 b 606 0 610 1 610 0 l 67 0 "},"Ì":{"ha":315,"x_min":0,"x_max":0,"o":"m 176 1219 b 176 1229 172 1222 171 1225 l 182 1233 b 193 1233 188 1238 189 1238 l 354 1078 b 357 1067 358 1074 361 1071 l 351 1063 b 342 1063 349 1060 346 1058 m 65 0 b 63 8 61 0 61 3 l 233 981 b 242 986 235 986 236 986 l 249 986 b 254 979 251 986 256 986 l 82 8 b 75 0 81 3 81 0 l 65 0 "},"Í":{"ha":315,"x_min":0,"x_max":0,"o":"m 157 1069 b 160 1081 153 1074 156 1078 l 376 1236 b 388 1236 382 1240 383 1240 l 392 1232 b 390 1222 396 1228 394 1225 l 169 1065 b 160 1065 164 1061 163 1063 m 65 0 b 63 8 61 0 61 3 l 233 981 b 242 986 235 986 236 986 l 249 986 b 254 979 251 986 256 986 l 82 8 b 75 0 81 3 81 0 l 65 0 "},"Î":{"ha":315,"x_min":0,"x_max":0,"o":"m 74 1065 b 71 1071 67 1065 67 1068 l 271 1235 b 288 1242 281 1242 281 1242 l 289 1242 b 303 1235 296 1242 297 1242 l 443 1071 b 439 1065 446 1068 446 1065 l 428 1065 b 418 1069 422 1065 421 1065 l 286 1222 l 99 1069 b 86 1065 93 1067 92 1065 l 74 1065 m 65 0 b 63 8 61 0 61 3 l 233 981 b 242 986 235 986 236 986 l 249 986 b 254 979 251 986 256 986 l 82 8 b 75 0 81 3 81 0 l 65 0 "},"Ï":{"ha":315,"x_min":0,"x_max":0,"o":"m 150 1126 b 135 1142 136 1126 133 1129 l 136 1150 b 156 1165 138 1161 142 1165 l 163 1165 b 176 1150 174 1165 178 1161 l 175 1142 b 157 1126 174 1129 168 1126 l 150 1126 m 382 1126 b 367 1142 368 1126 365 1129 l 368 1150 b 388 1165 369 1161 374 1165 l 394 1165 b 408 1150 406 1165 410 1161 l 407 1142 b 389 1126 406 1129 400 1126 l 382 1126 m 65 0 b 63 8 61 0 61 3 l 233 981 b 242 986 235 986 236 986 l 249 986 b 254 979 251 986 256 986 l 82 8 b 75 0 81 3 81 0 l 65 0 "},"Ð":{"ha":879,"x_min":0,"x_max":0,"o":"m 63 0 b 57 6 58 0 57 1 l 142 482 l 32 482 b 25 489 26 482 24 483 l 25 494 b 35 501 26 500 28 501 l 144 501 l 229 981 b 235 986 231 985 231 986 l 486 986 b 792 619 738 986 832 846 l 747 367 b 314 0 707 140 551 0 l 63 0 m 315 19 b 726 367 539 19 689 150 l 771 619 b 485 967 810 836 721 967 l 247 967 l 165 501 l 422 501 b 428 494 428 501 429 499 l 426 489 b 419 482 426 483 425 482 l 163 482 l 81 19 "},"Ñ":{"ha":949,"x_min":0,"x_max":0,"o":"m 400 1081 b 394 1088 396 1081 394 1082 b 506 1207 407 1157 451 1207 b 675 1099 594 1207 599 1099 b 764 1203 721 1099 754 1143 b 769 1207 765 1206 765 1207 l 778 1207 b 783 1200 782 1207 783 1206 b 674 1081 771 1132 732 1081 b 504 1189 586 1081 583 1189 b 414 1085 463 1189 425 1146 b 408 1081 414 1082 413 1081 l 400 1081 m 67 0 b 61 6 63 0 61 1 l 233 981 b 239 986 235 985 235 986 l 249 986 b 257 982 254 986 257 982 l 613 224 b 700 36 642 161 669 97 l 701 36 b 742 278 715 115 728 199 l 867 982 b 874 986 867 985 868 986 l 882 986 b 888 981 886 986 888 985 l 715 6 b 710 0 714 1 714 0 l 700 0 b 692 6 696 0 694 0 l 325 788 b 250 947 300 840 275 894 l 249 947 b 211 738 235 878 224 807 l 82 6 b 75 0 81 1 81 0 l 67 0 "},"Ò":{"ha":908,"x_min":0,"x_max":0,"o":"m 476 1233 b 476 1243 472 1236 471 1239 l 482 1247 b 493 1247 488 1251 489 1251 l 654 1092 b 657 1081 658 1088 661 1085 l 651 1076 b 642 1076 649 1074 646 1072 m 368 -19 b 86 317 144 -19 50 107 l 147 669 b 543 1006 185 878 322 1006 b 822 669 767 1006 858 882 l 761 317 b 368 -19 725 106 588 -19 m 365 0 b 740 318 571 0 704 114 l 801 668 b 546 986 836 869 751 986 b 168 668 338 986 203 865 l 107 318 b 365 0 72 119 161 0 "},"Ó":{"ha":908,"x_min":0,"x_max":0,"o":"m 457 1083 b 460 1094 453 1088 456 1092 l 676 1250 b 688 1250 682 1254 683 1254 l 692 1246 b 690 1236 696 1242 694 1239 l 469 1079 b 460 1079 464 1075 463 1076 m 368 -19 b 86 317 144 -19 50 107 l 147 669 b 543 1006 185 878 322 1006 b 822 669 767 1006 858 882 l 761 317 b 368 -19 725 106 588 -19 m 365 0 b 740 318 571 0 704 114 l 801 668 b 546 986 836 869 751 986 b 168 668 338 986 203 865 l 107 318 b 365 0 72 119 161 0 "},"Ô":{"ha":908,"x_min":0,"x_max":0,"o":"m 374 1079 b 371 1085 367 1079 367 1082 l 571 1249 b 588 1256 581 1256 581 1256 l 589 1256 b 603 1249 596 1256 597 1256 l 743 1085 b 739 1079 746 1082 746 1079 l 728 1079 b 718 1083 722 1079 721 1079 l 586 1236 l 399 1083 b 386 1079 393 1081 392 1079 l 374 1079 m 368 -19 b 86 317 144 -19 50 107 l 147 669 b 543 1006 185 878 322 1006 b 822 669 767 1006 858 882 l 761 317 b 368 -19 725 106 588 -19 m 365 0 b 740 318 571 0 704 114 l 801 668 b 546 986 836 869 751 986 b 168 668 338 986 203 865 l 107 318 b 365 0 72 119 161 0 "},"Õ":{"ha":908,"x_min":0,"x_max":0,"o":"m 382 1094 b 376 1101 378 1094 376 1096 b 488 1221 389 1171 433 1221 b 657 1113 576 1221 581 1113 b 746 1217 703 1113 736 1157 b 751 1221 747 1219 747 1221 l 760 1221 b 765 1214 764 1221 765 1219 b 656 1094 753 1146 714 1094 b 486 1203 568 1094 565 1203 b 396 1099 444 1203 407 1160 b 390 1094 396 1096 394 1094 l 382 1094 m 368 -19 b 86 317 144 -19 50 107 l 147 669 b 543 1006 185 878 322 1006 b 822 669 767 1006 858 882 l 761 317 b 368 -19 725 106 588 -19 m 365 0 b 740 318 571 0 704 114 l 801 668 b 546 986 836 869 751 986 b 168 668 338 986 203 865 l 107 318 b 365 0 72 119 161 0 "},"Ö":{"ha":908,"x_min":0,"x_max":0,"o":"m 450 1140 b 435 1156 436 1140 433 1143 l 436 1164 b 456 1179 438 1175 442 1179 l 463 1179 b 476 1164 474 1179 478 1175 l 475 1156 b 457 1140 474 1143 468 1140 l 450 1140 m 682 1140 b 667 1156 668 1140 665 1143 l 668 1164 b 688 1179 669 1175 674 1179 l 694 1179 b 708 1164 706 1179 710 1175 l 707 1156 b 689 1140 706 1143 700 1140 l 682 1140 m 368 -19 b 86 317 144 -19 50 107 l 147 669 b 543 1006 185 878 322 1006 b 822 669 767 1006 858 882 l 761 317 b 368 -19 725 106 588 -19 m 365 0 b 740 318 571 0 704 114 l 801 668 b 546 986 836 869 751 986 b 168 668 338 986 203 865 l 107 318 b 365 0 72 119 161 0 "},"×":{"ha":694,"x_min":0,"x_max":0,"o":"m 515 197 b 506 199 510 193 508 194 l 336 436 l 85 199 b 76 199 82 196 81 194 l 72 203 b 72 213 68 207 68 208 l 325 450 l 157 689 b 157 697 154 693 153 693 l 164 703 b 174 701 168 707 171 706 l 340 464 l 593 703 b 603 703 597 707 600 707 l 607 699 b 606 689 610 694 610 693 l 353 450 l 521 213 b 522 203 524 208 526 206 l 515 197 "},"Ø":{"ha":908,"x_min":0,"x_max":0,"o":"m 29 -62 b 26 -58 25 -62 25 -61 l 128 74 b 86 317 82 132 68 214 l 147 669 b 544 1006 185 878 324 1006 b 775 921 651 1006 728 976 l 863 1035 b 871 1039 865 1039 867 1039 l 885 1039 b 888 1035 888 1039 889 1038 l 788 906 b 822 669 828 847 840 768 l 761 317 b 367 -19 725 106 589 -19 b 140 58 263 -19 189 10 l 51 -58 b 42 -62 49 -62 49 -62 l 29 -62 m 763 904 b 544 986 718 958 650 986 b 168 668 336 986 203 865 l 107 318 b 142 92 90 224 101 147 m 367 0 b 740 318 576 0 707 121 l 801 668 b 775 886 818 757 810 833 l 154 76 b 367 0 197 26 271 0 "},"Ù":{"ha":936,"x_min":0,"x_max":0,"o":"m 488 1219 b 488 1229 483 1222 482 1225 l 493 1233 b 504 1233 499 1238 500 1238 l 665 1078 b 668 1067 669 1074 672 1071 l 663 1063 b 653 1063 660 1060 657 1058 m 379 -19 b 111 333 156 -19 74 119 l 225 981 b 231 986 226 985 226 986 l 240 986 b 246 981 244 986 246 985 l 132 333 b 379 0 96 132 172 0 b 749 333 589 0 713 132 l 863 981 b 868 986 864 985 864 986 l 878 986 b 883 981 882 986 883 985 l 769 333 b 379 -19 731 119 600 -19 "},"Ú":{"ha":936,"x_min":0,"x_max":0,"o":"m 468 1069 b 471 1081 464 1074 467 1078 l 688 1236 b 699 1236 693 1240 694 1240 l 703 1232 b 701 1222 707 1228 706 1225 l 481 1065 b 471 1065 475 1061 474 1063 m 379 -19 b 111 333 156 -19 74 119 l 225 981 b 231 986 226 985 226 986 l 240 986 b 246 981 244 986 246 985 l 132 333 b 379 0 96 132 172 0 b 749 333 589 0 713 132 l 863 981 b 868 986 864 985 864 986 l 878 986 b 883 981 882 986 883 985 l 769 333 b 379 -19 731 119 600 -19 "},"Û":{"ha":936,"x_min":0,"x_max":0,"o":"m 385 1065 b 382 1071 378 1065 378 1068 l 582 1235 b 599 1242 592 1242 592 1242 l 600 1242 b 614 1235 607 1242 608 1242 l 754 1071 b 750 1065 757 1068 757 1065 l 739 1065 b 729 1069 733 1065 732 1065 l 597 1222 l 410 1069 b 397 1065 404 1067 403 1065 l 385 1065 m 379 -19 b 111 333 156 -19 74 119 l 225 981 b 231 986 226 985 226 986 l 240 986 b 246 981 244 986 246 985 l 132 333 b 379 0 96 132 172 0 b 749 333 589 0 713 132 l 863 981 b 868 986 864 985 864 986 l 878 986 b 883 981 882 986 883 985 l 769 333 b 379 -19 731 119 600 -19 "},"Ü":{"ha":936,"x_min":0,"x_max":0,"o":"m 461 1126 b 446 1142 447 1126 444 1129 l 447 1150 b 467 1165 449 1161 453 1165 l 474 1165 b 488 1150 485 1165 489 1161 l 486 1142 b 468 1126 485 1129 479 1126 l 461 1126 m 693 1126 b 678 1142 679 1126 676 1129 l 679 1150 b 699 1165 681 1161 685 1165 l 706 1165 b 719 1150 717 1165 721 1161 l 718 1142 b 700 1126 717 1129 711 1126 l 693 1126 m 379 -19 b 111 333 156 -19 74 119 l 225 981 b 231 986 226 985 226 986 l 240 986 b 246 981 244 986 246 985 l 132 333 b 379 0 96 132 172 0 b 749 333 589 0 713 132 l 863 981 b 868 986 864 985 864 986 l 878 986 b 883 981 882 986 883 985 l 769 333 b 379 -19 731 119 600 -19 "},"Ý":{"ha":843,"x_min":0,"x_max":0,"o":"m 422 1069 b 425 1081 418 1074 421 1078 l 642 1236 b 653 1236 647 1240 649 1240 l 657 1232 b 656 1222 661 1228 660 1225 l 435 1065 b 425 1065 429 1061 428 1063 m 331 0 b 325 6 326 0 325 1 l 397 413 l 136 981 b 140 986 136 983 136 986 l 151 986 b 160 981 158 986 158 985 l 411 432 l 854 981 b 865 986 857 985 860 986 l 876 986 b 881 981 881 986 882 983 l 418 411 l 346 6 b 340 0 344 1 344 0 l 331 0 "},"Þ":{"ha":844,"x_min":0,"x_max":0,"o":"m 67 0 b 61 6 63 0 61 1 l 233 981 b 239 986 235 985 235 986 l 249 986 b 254 981 253 986 254 985 l 224 807 l 525 807 b 774 497 714 807 807 690 b 432 193 742 308 611 193 l 115 193 l 82 6 b 76 0 81 1 81 0 l 67 0 m 431 213 b 753 500 596 213 721 319 b 522 788 783 675 700 788 l 219 788 l 118 213 "},"ß":{"ha":754,"x_min":0,"x_max":0,"o":"m 51 0 b 46 6 47 0 46 1 l 178 754 b 464 1042 211 942 301 1042 b 678 767 632 1042 707 947 b 499 538 665 688 606 574 l 497 536 b 624 281 597 507 647 414 b 314 0 590 92 488 0 l 188 0 b 182 6 183 0 182 1 l 183 13 b 189 18 185 17 185 18 l 315 18 b 604 283 475 18 574 106 b 429 526 631 429 565 526 l 288 526 b 281 532 282 526 279 528 l 282 539 b 288 544 282 543 283 544 l 431 544 b 658 769 568 544 643 681 b 463 1024 688 933 617 1024 b 197 754 314 1024 229 932 l 65 6 b 60 0 64 1 64 0 l 51 0 "},"à":{"ha":699,"x_min":0,"x_max":0,"o":"m 285 1013 b 283 1022 282 1015 279 1018 l 290 1028 b 301 1026 296 1032 297 1031 l 463 871 b 465 860 467 867 469 863 l 460 856 b 450 856 457 853 454 853 m 247 -19 b 33 151 88 -19 33 43 b 318 392 33 324 147 392 b 539 372 414 392 510 378 b 563 533 558 482 563 504 b 374 710 563 632 515 710 b 133 583 257 710 188 656 b 125 581 131 581 129 579 l 118 585 b 118 594 114 588 115 590 b 376 728 183 682 257 728 b 582 536 531 728 582 643 b 510 96 582 493 575 469 b 446 17 501 47 488 35 b 247 -19 390 -7 326 -19 m 250 -1 b 440 33 321 -1 382 10 b 490 96 476 47 483 56 l 536 354 b 315 374 507 360 410 374 b 53 154 156 374 53 307 b 250 -1 53 51 106 -1 "},"á":{"ha":699,"x_min":0,"x_max":0,"o":"m 329 858 b 332 869 326 864 328 867 l 550 1025 b 560 1025 556 1029 556 1029 l 564 1021 b 563 1011 568 1017 567 1014 l 342 854 b 332 854 336 850 335 851 m 247 -19 b 33 151 88 -19 33 43 b 318 392 33 324 147 392 b 539 372 414 392 510 378 b 563 533 558 482 563 504 b 374 710 563 632 515 710 b 133 583 257 710 188 656 b 125 581 131 581 129 579 l 118 585 b 118 594 114 588 115 590 b 376 728 183 682 257 728 b 582 536 531 728 582 643 b 510 96 582 493 575 469 b 446 17 501 47 488 35 b 247 -19 390 -7 326 -19 m 250 -1 b 440 33 321 -1 382 10 b 490 96 476 47 483 56 l 536 354 b 315 374 507 360 410 374 b 53 154 156 374 53 307 b 250 -1 53 51 106 -1 "},"â":{"ha":699,"x_min":0,"x_max":0,"o":"m 222 843 b 219 849 217 843 215 846 l 419 1013 b 436 1019 429 1019 429 1019 l 438 1019 b 451 1013 444 1019 446 1019 l 592 849 b 588 843 594 846 594 843 l 576 843 b 567 847 571 843 569 843 l 435 1001 l 247 847 b 235 843 243 844 240 843 l 222 843 m 247 -19 b 33 151 88 -19 33 43 b 318 392 33 324 147 392 b 539 372 414 392 510 378 b 563 533 558 482 563 504 b 374 710 563 632 515 710 b 133 583 257 710 188 656 b 125 581 131 581 129 579 l 118 585 b 118 594 114 588 115 590 b 376 728 183 682 257 728 b 582 536 531 728 582 643 b 510 96 582 493 575 469 b 446 17 501 47 488 35 b 247 -19 390 -7 326 -19 m 250 -1 b 440 33 321 -1 382 10 b 490 96 476 47 483 56 l 536 354 b 315 374 507 360 410 374 b 53 154 156 374 53 307 b 250 -1 53 51 106 -1 "},"ã":{"ha":699,"x_min":0,"x_max":0,"o":"m 232 868 b 226 875 228 868 225 869 b 336 994 243 943 269 994 b 506 886 426 994 433 886 b 596 990 554 886 596 931 b 601 994 596 993 597 994 l 610 994 b 614 988 614 994 614 993 b 506 868 611 917 565 868 b 336 976 419 868 410 976 b 246 872 281 976 263 928 b 240 868 244 869 244 868 l 232 868 m 247 -19 b 33 151 88 -19 33 43 b 318 392 33 324 147 392 b 539 372 414 392 510 378 b 563 533 558 482 563 504 b 374 710 563 632 515 710 b 133 583 257 710 188 656 b 125 581 131 581 129 579 l 118 585 b 118 594 114 588 115 590 b 376 728 183 682 257 728 b 582 536 531 728 582 643 b 510 96 582 493 575 469 b 446 17 501 47 488 35 b 247 -19 390 -7 326 -19 m 250 -1 b 440 33 321 -1 382 10 b 490 96 476 47 483 56 l 536 354 b 315 374 507 360 410 374 b 53 154 156 374 53 307 b 250 -1 53 51 106 -1 "},"ä":{"ha":699,"x_min":0,"x_max":0,"o":"m 300 918 b 283 939 285 918 279 921 l 285 944 b 307 965 289 960 293 965 l 314 965 b 331 944 329 965 333 958 l 329 939 b 307 918 325 924 321 918 l 300 918 m 531 918 b 514 939 515 918 510 921 l 515 944 b 538 965 519 960 524 965 l 544 965 b 561 944 560 965 564 958 l 560 939 b 538 918 556 924 551 918 l 531 918 m 247 -19 b 33 151 88 -19 33 43 b 318 392 33 324 147 392 b 539 372 414 392 510 378 b 563 533 558 482 563 504 b 374 710 563 632 515 710 b 133 583 257 710 188 656 b 125 581 131 581 129 579 l 118 585 b 118 594 114 588 115 590 b 376 728 183 682 257 728 b 582 536 531 728 582 643 b 510 96 582 493 575 469 b 446 17 501 47 488 35 b 247 -19 390 -7 326 -19 m 250 -1 b 440 33 321 -1 382 10 b 490 96 476 47 483 56 l 536 354 b 315 374 507 360 410 374 b 53 154 156 374 53 307 b 250 -1 53 51 106 -1 "},"å":{"ha":699,"x_min":0,"x_max":0,"o":"m 403 806 b 304 929 331 806 290 854 b 440 1050 318 1001 371 1050 b 533 926 508 1050 546 1001 b 403 806 521 854 469 806 m 404 822 b 517 929 461 822 506 864 b 440 1033 528 992 496 1033 b 322 926 381 1033 333 989 b 404 822 311 864 344 822 m 247 -19 b 33 151 88 -19 33 43 b 318 392 33 324 147 392 b 539 372 414 392 510 378 b 563 533 558 482 563 504 b 374 710 563 632 515 710 b 133 583 257 710 188 656 b 125 581 131 581 129 579 l 118 585 b 118 594 114 588 115 590 b 376 728 183 682 257 728 b 582 536 531 728 582 643 b 510 96 582 493 575 469 b 446 17 501 47 488 35 b 247 -19 390 -7 326 -19 m 250 -1 b 440 33 321 -1 382 10 b 490 96 476 47 483 56 l 536 354 b 315 374 507 360 410 374 b 53 154 156 374 53 307 b 250 -1 53 51 106 -1 "},"æ":{"ha":1072,"x_min":0,"x_max":0,"o":"m 239 -19 b 35 182 107 -19 22 26 b 322 392 46 325 144 392 b 494 369 400 392 468 375 b 513 467 500 401 507 435 b 369 710 535 597 538 710 b 132 582 264 710 194 668 b 125 581 131 581 128 579 l 118 585 b 117 592 115 588 115 589 b 371 728 181 683 257 728 b 540 561 508 728 543 657 b 788 728 585 667 661 728 b 994 556 922 728 999 663 b 710 310 988 368 844 310 b 510 346 638 310 582 322 l 492 243 b 649 -1 465 94 499 -1 b 917 160 767 -1 854 61 b 925 161 919 163 922 163 l 933 156 b 933 149 935 154 935 151 b 649 -19 871 56 781 -19 b 469 99 540 -19 489 25 b 239 -19 432 42 367 -19 m 710 329 b 975 557 915 329 975 456 b 786 710 975 640 928 710 b 528 444 628 710 556 606 l 514 365 b 710 329 586 344 640 329 m 239 -1 b 465 128 390 -1 447 94 b 472 243 463 158 465 201 l 492 351 b 319 374 464 357 396 374 b 54 182 157 374 67 310 b 239 -1 40 40 124 -1 "},"ç":{"ha":708,"x_min":0,"x_max":0,"o":"m 221 -339 b 126 -300 169 -339 140 -314 b 124 -289 122 -296 122 -293 l 125 -283 b 132 -281 126 -279 129 -278 b 222 -321 150 -299 178 -321 b 346 -215 288 -321 340 -292 b 272 -135 350 -164 324 -135 b 221 -143 253 -135 235 -139 b 210 -133 213 -146 207 -139 l 263 -19 b 63 244 104 -14 33 85 l 101 465 b 406 728 129 628 233 728 b 626 533 561 728 615 658 b 624 526 626 529 626 528 l 614 524 b 608 528 610 522 607 524 b 404 708 596 653 544 708 b 119 465 244 708 146 614 l 81 244 b 276 0 54 96 122 0 b 551 189 413 0 489 58 b 557 192 554 192 553 193 l 567 189 b 569 181 569 188 571 186 b 281 -19 501 44 425 -18 l 233 -124 b 279 -117 244 -119 263 -117 b 365 -218 339 -117 371 -156 b 221 -339 358 -300 300 -339 "},"è":{"ha":724,"x_min":0,"x_max":0,"o":"m 310 1014 b 308 1024 307 1017 304 1019 l 315 1029 b 326 1028 321 1033 322 1032 l 488 872 b 490 861 492 868 494 864 l 485 857 b 475 857 482 854 479 854 m 79 246 b 267 -1 51 93 111 -1 b 544 160 401 -1 486 67 b 553 161 547 163 550 163 l 560 157 b 561 149 562 156 562 153 b 267 -19 499 57 412 -19 b 58 246 94 -19 29 82 b 93 443 69 311 82 378 b 406 728 124 622 240 728 b 625 517 567 728 650 657 b 324 310 601 381 496 310 b 93 327 237 310 173 314 m 403 710 b 114 443 253 710 143 611 l 97 346 b 325 329 178 332 256 329 b 606 519 476 329 582 388 b 403 710 628 646 551 710 "},"é":{"ha":724,"x_min":0,"x_max":0,"o":"m 354 860 b 357 871 351 865 353 868 l 575 1026 b 585 1026 581 1031 581 1031 l 589 1022 b 588 1013 593 1018 592 1015 l 367 856 b 357 856 361 851 360 853 m 79 246 b 267 -1 51 93 111 -1 b 544 160 401 -1 486 67 b 553 161 547 163 550 163 l 560 157 b 561 149 562 156 562 153 b 267 -19 499 57 412 -19 b 58 246 94 -19 29 82 b 93 443 69 311 82 378 b 406 728 124 622 240 728 b 625 517 567 728 650 657 b 324 310 601 381 496 310 b 93 327 237 310 173 314 m 403 710 b 114 443 253 710 143 611 l 97 346 b 325 329 178 332 256 329 b 606 519 476 329 582 388 b 403 710 628 646 551 710 "},"ê":{"ha":724,"x_min":0,"x_max":0,"o":"m 247 844 b 244 850 242 844 240 847 l 444 1014 b 461 1021 454 1021 454 1021 l 463 1021 b 476 1014 469 1021 471 1021 l 617 850 b 613 844 619 847 619 844 l 601 844 b 592 849 596 844 594 844 l 460 1003 l 272 849 b 260 844 268 846 265 844 l 247 844 m 79 246 b 267 -1 51 93 111 -1 b 544 160 401 -1 486 67 b 553 161 547 163 550 163 l 560 157 b 561 149 562 156 562 153 b 267 -19 499 57 412 -19 b 58 246 94 -19 29 82 b 93 443 69 311 82 378 b 406 728 124 622 240 728 b 625 517 567 728 650 657 b 324 310 601 381 496 310 b 93 327 237 310 173 314 m 403 710 b 114 443 253 710 143 611 l 97 346 b 325 329 178 332 256 329 b 606 519 476 329 582 388 b 403 710 628 646 551 710 "},"ë":{"ha":724,"x_min":0,"x_max":0,"o":"m 325 919 b 308 940 310 919 304 922 l 310 946 b 332 967 314 961 318 967 l 339 967 b 356 946 354 967 358 960 l 354 940 b 332 919 350 925 346 919 l 325 919 m 556 919 b 539 940 540 919 535 922 l 540 946 b 563 967 544 961 549 967 l 569 967 b 586 946 585 967 589 960 l 585 940 b 563 919 581 925 576 919 l 556 919 m 79 246 b 267 -1 51 93 111 -1 b 544 160 401 -1 486 67 b 553 161 547 163 550 163 l 560 157 b 561 149 562 156 562 153 b 267 -19 499 57 412 -19 b 58 246 94 -19 29 82 b 93 443 69 311 82 378 b 406 728 124 622 240 728 b 625 517 567 728 650 657 b 324 310 601 381 496 310 b 93 327 237 310 173 314 m 403 710 b 114 443 253 710 143 611 l 97 346 b 325 329 178 332 256 329 b 606 519 476 329 582 388 b 403 710 628 646 551 710 "},"ì":{"ha":283,"x_min":0,"x_max":0,"o":"m 236 838 b 226 838 233 835 229 835 l 89 986 b 89 999 83 992 85 994 l 93 1003 b 103 1003 96 1006 100 1006 l 240 850 b 240 842 243 847 243 844 l 236 838 m 51 0 b 46 6 47 0 46 1 l 169 703 b 176 708 171 707 172 708 l 183 708 b 189 703 188 708 189 707 l 65 6 b 60 0 64 1 64 0 l 51 0 "},"í":{"ha":283,"x_min":0,"x_max":0,"o":"m 135 836 b 138 844 132 839 133 842 l 333 996 b 344 994 338 999 340 999 l 347 992 b 344 981 350 989 351 986 l 147 832 b 139 832 143 829 142 829 m 51 0 b 46 6 47 0 46 1 l 169 703 b 176 708 171 707 172 708 l 183 708 b 189 703 188 708 189 707 l 65 6 b 60 0 64 1 64 0 l 51 0 "},"î":{"ha":283,"x_min":0,"x_max":0,"o":"m 72 842 b 68 847 67 842 67 844 l 211 996 b 225 1004 217 1001 219 1004 l 231 1004 b 244 994 238 1004 240 1003 l 333 847 b 329 842 335 844 335 842 l 321 842 b 310 846 314 842 311 842 l 228 986 l 96 846 b 83 842 92 842 89 842 l 72 842 m 51 0 b 46 6 47 0 46 1 l 169 703 b 176 708 171 707 172 708 l 183 708 b 189 703 188 708 189 707 l 65 6 b 60 0 64 1 64 0 l 51 0 "},"ï":{"ha":283,"x_min":0,"x_max":0,"o":"m 135 910 b 122 925 124 910 119 913 l 124 933 b 140 949 125 944 129 949 l 149 949 b 161 933 160 949 163 943 l 160 925 b 143 910 158 914 156 910 l 135 910 m 283 910 b 271 925 272 910 268 913 l 272 933 b 289 949 274 944 278 949 l 297 949 b 310 933 308 949 311 943 l 308 925 b 292 910 307 914 304 910 l 283 910 m 51 0 b 46 6 47 0 46 1 l 169 703 b 176 708 171 707 172 708 l 183 708 b 189 703 188 708 189 707 l 65 6 b 60 0 64 1 64 0 l 51 0 "},"ð":{"ha":758,"x_min":0,"x_max":0,"o":"m 283 -19 b 60 236 106 -19 32 78 l 99 451 b 403 710 126 611 226 710 b 628 557 528 710 611 653 b 578 924 658 732 646 850 l 435 800 b 426 800 431 796 429 796 l 422 804 b 422 814 418 808 418 810 l 565 936 b 304 1010 510 985 425 1010 b 297 1015 297 1010 296 1011 l 299 1022 b 304 1028 300 1026 300 1028 b 578 950 432 1028 522 1001 l 679 1036 b 688 1036 683 1040 685 1039 l 692 1032 b 692 1022 694 1029 696 1026 l 592 938 b 647 565 664 861 678 736 l 589 236 b 283 -19 560 72 458 -19 m 283 0 b 569 236 443 0 544 89 l 608 453 b 401 690 635 601 560 690 b 118 451 239 690 143 600 l 79 236 b 283 0 54 89 124 0 "},"ñ":{"ha":753,"x_min":0,"x_max":0,"o":"m 263 869 b 257 876 258 869 256 871 b 367 996 274 944 300 996 b 536 888 457 996 464 888 b 626 992 585 888 626 932 b 632 996 626 994 628 996 l 640 996 b 644 989 644 996 644 994 b 536 869 642 918 596 869 b 367 978 450 869 440 978 b 276 874 311 978 293 929 b 271 869 275 871 275 869 l 263 869 m 47 0 b 42 6 44 0 42 1 l 149 608 b 207 683 156 650 168 667 b 433 728 256 704 326 728 b 622 464 597 728 651 631 l 542 6 b 536 0 540 1 540 0 l 528 0 b 522 6 524 0 522 1 l 603 463 b 431 710 631 621 582 710 b 213 665 336 710 257 688 b 168 608 179 650 172 633 l 61 6 b 56 0 60 1 60 0 l 47 0 "},"ò":{"ha":740,"x_min":0,"x_max":0,"o":"m 311 1013 b 310 1022 308 1015 306 1018 l 317 1028 b 328 1026 322 1032 324 1031 l 489 871 b 492 860 493 867 496 863 l 486 856 b 476 856 483 853 481 853 m 281 -19 b 58 211 125 -19 33 68 l 110 497 b 408 728 136 646 249 728 b 632 497 564 728 657 638 l 582 211 b 281 -19 557 68 436 -19 m 279 -1 b 563 210 425 -1 539 79 l 614 499 b 407 710 638 628 550 710 b 129 499 260 710 151 628 l 78 210 b 279 -1 54 81 139 -1 "},"ó":{"ha":740,"x_min":0,"x_max":0,"o":"m 356 858 b 358 869 353 864 354 867 l 576 1025 b 586 1025 582 1029 582 1029 l 590 1021 b 589 1011 594 1017 593 1014 l 368 854 b 358 854 363 850 361 851 m 281 -19 b 58 211 125 -19 33 68 l 110 497 b 408 728 136 646 249 728 b 632 497 564 728 657 638 l 582 211 b 281 -19 557 68 436 -19 m 279 -1 b 563 210 425 -1 539 79 l 614 499 b 407 710 638 628 550 710 b 129 499 260 710 151 628 l 78 210 b 279 -1 54 81 139 -1 "},"ô":{"ha":740,"x_min":0,"x_max":0,"o":"m 249 843 b 246 849 243 843 242 846 l 446 1013 b 463 1019 456 1019 456 1019 l 464 1019 b 478 1013 471 1019 472 1019 l 618 849 b 614 843 621 846 621 843 l 603 843 b 593 847 597 843 596 843 l 461 1001 l 274 847 b 261 843 269 844 267 843 l 249 843 m 281 -19 b 58 211 125 -19 33 68 l 110 497 b 408 728 136 646 249 728 b 632 497 564 728 657 638 l 582 211 b 281 -19 557 68 436 -19 m 279 -1 b 563 210 425 -1 539 79 l 614 499 b 407 710 638 628 550 710 b 129 499 260 710 151 628 l 78 210 b 279 -1 54 81 139 -1 "},"õ":{"ha":740,"x_min":0,"x_max":0,"o":"m 258 868 b 253 875 254 868 251 869 b 363 994 269 943 296 994 b 532 886 453 994 460 886 b 622 990 581 886 622 931 b 628 994 622 993 624 994 l 636 994 b 640 988 640 994 640 993 b 532 868 638 917 592 868 b 363 976 446 868 436 976 b 272 872 307 976 289 928 b 267 868 271 869 271 868 l 258 868 m 281 -19 b 58 211 125 -19 33 68 l 110 497 b 408 728 136 646 249 728 b 632 497 564 728 657 638 l 582 211 b 281 -19 557 68 436 -19 m 279 -1 b 563 210 425 -1 539 79 l 614 499 b 407 710 638 628 550 710 b 129 499 260 710 151 628 l 78 210 b 279 -1 54 81 139 -1 "},"ö":{"ha":740,"x_min":0,"x_max":0,"o":"m 326 918 b 310 939 311 918 306 921 l 311 944 b 333 965 315 960 319 965 l 340 965 b 357 944 356 965 360 958 l 356 939 b 333 918 351 924 347 918 l 326 918 m 557 918 b 540 939 542 918 536 921 l 542 944 b 564 965 546 960 550 965 l 571 965 b 588 944 586 965 590 958 l 586 939 b 564 918 582 924 578 918 l 557 918 m 281 -19 b 58 211 125 -19 33 68 l 110 497 b 408 728 136 646 249 728 b 632 497 564 728 657 638 l 582 211 b 281 -19 557 68 436 -19 m 279 -1 b 563 210 425 -1 539 79 l 614 499 b 407 710 638 628 550 710 b 129 499 260 710 151 628 l 78 210 b 279 -1 54 81 139 -1 "},"÷":{"ha":839,"x_min":0,"x_max":0,"o":"m 457 718 b 442 736 443 718 439 721 l 443 742 b 463 760 444 756 449 760 l 468 760 b 483 742 482 760 486 756 l 483 736 b 463 718 481 722 476 718 l 457 718 m 118 440 b 113 446 114 440 113 442 l 114 454 b 119 460 115 458 115 460 l 706 460 b 711 454 710 460 713 458 l 710 446 b 704 440 708 442 708 440 l 118 440 m 356 144 b 340 163 342 144 338 147 l 342 168 b 363 186 344 182 349 186 l 368 186 b 383 168 382 186 385 182 l 382 163 b 361 144 379 149 375 144 l 356 144 "},"ø":{"ha":740,"x_min":0,"x_max":0,"o":"m 26 -51 b 25 -47 24 -51 24 -49 l 99 46 b 58 211 63 86 46 142 l 110 497 b 410 728 135 640 256 728 b 583 672 485 728 544 708 l 653 761 b 660 764 656 764 657 764 l 674 764 b 675 760 676 764 676 763 l 597 658 b 632 497 631 619 644 564 l 582 211 b 281 -19 557 68 436 -19 b 113 33 208 -19 151 -1 l 50 -47 b 40 -51 46 -50 46 -51 l 26 -51 m 571 656 b 408 710 535 690 479 710 b 129 499 267 710 151 628 b 78 210 113 403 94 306 b 111 64 67 150 81 100 m 281 -1 b 563 210 426 -1 540 81 b 614 499 579 306 597 403 b 583 642 624 557 614 606 l 124 50 b 281 -1 160 17 215 -1 "},"ù":{"ha":753,"x_min":0,"x_max":0,"o":"m 317 1013 b 315 1022 314 1015 311 1018 l 322 1028 b 333 1026 328 1032 329 1031 l 494 871 b 497 860 499 867 501 863 l 492 856 b 482 856 489 853 486 853 m 271 -19 b 82 244 106 -19 53 79 l 163 703 b 168 708 163 707 164 708 l 176 708 b 182 703 181 708 182 707 l 101 246 b 272 0 72 86 122 0 b 493 43 374 0 447 21 b 536 100 525 58 532 75 l 643 703 b 649 708 643 707 644 708 l 657 708 b 663 703 660 708 663 707 l 556 100 b 497 25 549 58 536 42 b 271 -19 447 4 382 -19 "},"ú":{"ha":753,"x_min":0,"x_max":0,"o":"m 361 858 b 364 869 358 864 360 867 l 582 1025 b 592 1025 588 1029 588 1029 l 596 1021 b 594 1011 600 1017 599 1014 l 374 854 b 364 854 368 850 367 851 m 271 -19 b 82 244 106 -19 53 79 l 163 703 b 168 708 163 707 164 708 l 176 708 b 182 703 181 708 182 707 l 101 246 b 272 0 72 86 122 0 b 493 43 374 0 447 21 b 536 100 525 58 532 75 l 643 703 b 649 708 643 707 644 708 l 657 708 b 663 703 660 708 663 707 l 556 100 b 497 25 549 58 536 42 b 271 -19 447 4 382 -19 "},"û":{"ha":753,"x_min":0,"x_max":0,"o":"m 254 843 b 251 849 249 843 247 846 l 451 1013 b 468 1019 461 1019 461 1019 l 469 1019 b 483 1013 476 1019 478 1019 l 624 849 b 619 843 626 846 626 843 l 608 843 b 599 847 603 843 601 843 l 467 1001 l 279 847 b 267 843 275 844 272 843 l 254 843 m 271 -19 b 82 244 106 -19 53 79 l 163 703 b 168 708 163 707 164 708 l 176 708 b 182 703 181 708 182 707 l 101 246 b 272 0 72 86 122 0 b 493 43 374 0 447 21 b 536 100 525 58 532 75 l 643 703 b 649 708 643 707 644 708 l 657 708 b 663 703 660 708 663 707 l 556 100 b 497 25 549 58 536 42 b 271 -19 447 4 382 -19 "},"ü":{"ha":753,"x_min":0,"x_max":0,"o":"m 332 918 b 315 939 317 918 311 921 l 317 944 b 339 965 321 960 325 965 l 346 965 b 363 944 361 965 365 958 l 361 939 b 339 918 357 924 353 918 l 332 918 m 563 918 b 546 939 547 918 542 921 l 547 944 b 569 965 551 960 556 965 l 576 965 b 593 944 592 965 596 958 l 592 939 b 569 918 588 924 583 918 l 563 918 m 271 -19 b 82 244 106 -19 53 79 l 163 703 b 168 708 163 707 164 708 l 176 708 b 182 703 181 708 182 707 l 101 246 b 272 0 72 86 122 0 b 493 43 374 0 447 21 b 536 100 525 58 532 75 l 643 703 b 649 708 643 707 644 708 l 657 708 b 663 703 660 708 663 707 l 556 100 b 497 25 549 58 536 42 b 271 -19 447 4 382 -19 "},"ý":{"ha":757,"x_min":0,"x_max":0,"o":"m 360 858 b 363 869 357 864 358 867 l 581 1025 b 590 1025 586 1029 586 1029 l 594 1021 b 593 1011 599 1017 597 1014 l 372 854 b 363 854 367 850 365 851 m 219 -361 b 14 -194 89 -361 36 -293 b 17 -186 13 -192 11 -189 l 22 -183 b 31 -187 28 -181 31 -183 b 221 -342 54 -276 101 -342 b 508 -62 392 -342 478 -233 l 526 38 b 271 -19 475 17 394 -19 b 82 244 106 -19 53 79 l 163 703 b 168 708 163 707 164 708 l 176 708 b 182 703 181 708 182 707 l 101 246 b 272 -1 72 86 122 -1 b 528 57 392 -1 481 36 l 643 703 b 649 708 643 707 644 708 l 657 708 b 663 703 661 708 663 707 l 526 -62 b 219 -361 494 -244 404 -361 "},"þ":{"ha":739,"x_min":0,"x_max":0,"o":"m -3 -306 b -8 -300 -7 -306 -8 -304 l 225 1022 b 231 1028 226 1026 226 1028 l 239 1028 b 244 1022 243 1028 246 1026 l 181 667 b 418 728 213 685 300 728 b 625 451 592 728 656 629 l 588 243 b 310 -19 558 79 471 -19 b 74 50 188 -19 99 31 l 11 -300 b 6 -306 10 -304 10 -306 l -3 -306 m 310 0 b 568 243 460 0 542 88 l 606 451 b 415 710 635 621 576 710 b 178 646 299 710 210 664 l 78 72 b 310 0 104 51 194 0 "},"ÿ":{"ha":757,"x_min":0,"x_max":0,"o":"m 331 918 b 314 939 315 918 310 921 l 315 944 b 338 965 319 960 324 965 l 344 965 b 361 944 360 965 364 958 l 360 939 b 338 918 356 924 351 918 l 331 918 m 561 918 b 544 939 546 918 540 921 l 546 944 b 568 965 550 960 554 965 l 575 965 b 592 944 590 965 594 958 l 590 939 b 568 918 586 924 582 918 l 561 918 m 219 -361 b 14 -194 89 -361 36 -293 b 17 -186 13 -192 11 -189 l 22 -183 b 31 -187 28 -181 31 -183 b 221 -342 54 -276 101 -342 b 508 -62 392 -342 478 -233 l 526 38 b 271 -19 475 17 394 -19 b 82 244 106 -19 53 79 l 163 703 b 168 708 163 707 164 708 l 176 708 b 182 703 181 708 182 707 l 101 246 b 272 -1 72 86 122 -1 b 528 57 392 -1 481 36 l 643 703 b 649 708 643 707 644 708 l 657 708 b 663 703 661 708 663 707 l 526 -62 b 219 -361 494 -244 404 -361 "},"Ā":{"ha":861,"x_min":0,"x_max":0,"o":"m 390 1131 b 386 1136 386 1131 385 1132 l 388 1143 b 393 1149 388 1147 389 1149 l 699 1149 b 703 1143 703 1149 704 1147 l 703 1136 b 696 1131 701 1132 700 1131 l 390 1131 m -39 0 b -42 6 -43 0 -43 3 l 504 988 b 514 994 507 992 508 994 l 524 994 b 531 988 529 994 529 992 l 731 7 b 726 0 732 3 731 0 l 715 0 b 708 6 711 0 710 1 l 638 363 l 181 363 l -19 6 b -28 0 -22 1 -24 0 l -39 0 m 632 382 l 526 911 b 517 969 522 931 519 950 l 515 969 b 483 908 504 949 494 929 l 192 382 "},"ā":{"ha":699,"x_min":0,"x_max":0,"o":"m 267 918 b 261 924 261 918 261 921 l 263 931 b 269 936 264 935 265 936 l 574 936 b 579 931 578 936 581 936 l 578 924 b 572 918 576 919 576 918 l 267 918 m 247 -19 b 33 151 88 -19 33 43 b 318 392 33 324 147 392 b 539 372 414 392 510 378 b 563 533 558 482 563 504 b 374 710 563 632 515 710 b 133 583 257 710 188 656 b 125 581 131 581 129 579 l 118 585 b 118 594 114 588 115 590 b 376 728 183 682 257 728 b 582 536 531 728 582 643 b 510 96 582 493 575 469 b 446 17 501 47 488 35 b 247 -19 390 -7 326 -19 m 250 -1 b 440 33 321 -1 382 10 b 490 96 476 47 483 56 l 536 354 b 315 374 507 360 410 374 b 53 154 156 374 53 307 b 250 -1 53 51 106 -1 "},"Ă":{"ha":861,"x_min":0,"x_max":0,"o":"m 533 1065 b 383 1226 436 1065 383 1114 b 386 1232 383 1229 383 1232 l 394 1233 b 401 1228 400 1235 401 1233 b 535 1085 401 1133 450 1085 b 721 1231 621 1085 678 1122 b 726 1233 724 1233 724 1233 l 736 1232 b 739 1224 739 1232 740 1229 b 533 1065 697 1114 632 1065 m -39 0 b -42 6 -43 0 -43 3 l 504 988 b 514 994 507 992 508 994 l 524 994 b 531 988 529 994 529 992 l 731 7 b 726 0 732 3 731 0 l 715 0 b 708 6 711 0 710 1 l 638 363 l 181 363 l -19 6 b -28 0 -22 1 -24 0 l -39 0 m 632 382 l 526 911 b 517 969 522 931 519 950 l 515 969 b 483 908 504 949 494 929 l 192 382 "},"ă":{"ha":699,"x_min":0,"x_max":0,"o":"m 406 851 b 254 1013 307 851 254 900 b 258 1018 254 1015 256 1018 l 268 1019 b 274 1013 272 1019 274 1018 b 407 871 274 914 319 871 b 592 1017 494 871 542 915 b 597 1019 593 1019 594 1019 l 608 1018 b 610 1010 611 1018 613 1015 b 406 851 557 904 503 851 m 247 -19 b 33 151 88 -19 33 43 b 318 392 33 324 147 392 b 539 372 414 392 510 378 b 563 533 558 482 563 504 b 374 710 563 632 515 710 b 133 583 257 710 188 656 b 125 581 131 581 129 579 l 118 585 b 118 594 114 588 115 590 b 376 728 183 682 257 728 b 582 536 531 728 582 643 b 510 96 582 493 575 469 b 446 17 501 47 488 35 b 247 -19 390 -7 326 -19 m 250 -1 b 440 33 321 -1 382 10 b 490 96 476 47 483 56 l 536 354 b 315 374 507 360 410 374 b 53 154 156 374 53 307 b 250 -1 53 51 106 -1 "},"Ą":{"ha":861,"x_min":0,"x_max":0,"o":"m 583 -344 b 517 -285 551 -344 524 -328 b 708 6 503 -197 604 -96 b 707 14 708 8 707 11 l 638 363 l 181 363 l -19 6 b -28 0 -22 1 -24 0 l -39 0 b -42 6 -43 0 -43 3 l 504 988 b 514 994 507 992 508 994 l 524 994 b 531 988 529 994 529 992 l 731 7 b 729 -1 732 3 731 0 b 536 -279 622 -108 526 -199 b 588 -325 539 -312 558 -325 b 688 -275 617 -325 649 -314 b 693 -276 689 -274 692 -274 l 697 -287 b 693 -296 699 -290 697 -292 b 583 -344 656 -331 618 -344 m 632 382 l 526 911 b 517 969 522 931 519 950 l 515 969 b 483 908 504 949 494 929 l 192 382 "},"ą":{"ha":699,"x_min":0,"x_max":0,"o":"m 343 -344 b 276 -285 313 -344 283 -329 b 443 15 265 -214 342 -100 b 247 -19 388 -7 325 -19 b 33 151 88 -19 33 43 b 318 392 33 324 147 392 b 539 372 414 392 510 378 b 563 533 558 482 563 504 b 374 710 563 632 515 710 b 133 583 257 710 188 656 b 125 581 131 581 129 579 l 118 585 b 118 594 114 588 115 590 b 376 728 183 682 257 728 b 582 536 531 728 582 643 b 508 88 582 493 574 461 b 474 22 500 50 486 38 b 296 -279 368 -93 290 -208 b 349 -325 299 -317 324 -325 b 447 -275 381 -325 417 -307 b 453 -276 449 -274 451 -274 l 457 -287 b 454 -294 458 -290 457 -292 b 343 -344 419 -328 381 -344 m 250 -1 b 440 33 321 -1 382 8 b 490 96 472 47 483 56 l 536 354 b 315 374 507 360 410 374 b 53 154 156 374 53 307 b 250 -1 53 51 106 -1 "},"Ć":{"ha":875,"x_min":0,"x_max":0,"o":"m 454 1069 b 457 1081 450 1074 453 1078 l 674 1236 b 685 1236 679 1240 681 1240 l 689 1232 b 688 1222 693 1228 692 1225 l 467 1065 b 457 1065 461 1061 460 1063 m 365 -19 b 86 317 146 -19 49 108 l 149 671 b 543 1006 185 878 321 1006 b 832 758 747 1006 821 921 b 828 751 833 754 832 753 l 819 750 b 811 754 815 749 811 749 b 543 986 797 908 731 986 b 169 672 332 986 203 865 l 106 315 b 367 1 72 124 160 1 b 725 243 561 1 656 89 b 735 246 726 247 729 247 l 742 243 b 744 233 746 242 747 240 b 365 -19 669 74 572 -19 "},"ć":{"ha":708,"x_min":0,"x_max":0,"o":"m 351 858 b 354 869 349 864 350 867 l 572 1025 b 582 1025 578 1029 578 1029 l 586 1021 b 585 1011 590 1017 589 1014 l 364 854 b 354 854 358 850 357 851 m 276 -19 b 63 244 107 -19 33 81 l 101 465 b 406 728 129 628 232 728 b 626 533 561 728 615 658 b 624 526 626 529 626 528 l 614 524 b 608 528 610 522 608 524 b 404 708 596 653 544 708 b 119 465 243 708 146 614 l 81 244 b 276 0 54 96 118 0 b 551 189 410 0 478 58 b 557 192 554 193 553 193 l 567 189 b 569 181 569 188 571 186 b 276 -19 500 44 422 -19 "},"Ĉ":{"ha":875,"x_min":0,"x_max":0,"o":"m 371 1065 b 368 1071 364 1065 364 1068 l 568 1235 b 585 1242 578 1242 578 1242 l 586 1242 b 600 1235 593 1242 594 1242 l 740 1071 b 736 1065 743 1068 743 1065 l 725 1065 b 715 1069 719 1065 718 1065 l 583 1222 l 396 1069 b 383 1065 390 1067 389 1065 l 371 1065 m 365 -19 b 86 317 146 -19 49 108 l 149 671 b 543 1006 185 878 321 1006 b 832 758 747 1006 821 921 b 828 751 833 754 832 753 l 819 750 b 811 754 815 749 811 749 b 543 986 797 908 731 986 b 169 672 332 986 203 865 l 106 315 b 367 1 72 124 160 1 b 725 243 561 1 656 89 b 735 246 726 247 729 247 l 742 243 b 744 233 746 242 747 240 b 365 -19 669 74 572 -19 "},"ĉ":{"ha":708,"x_min":0,"x_max":0,"o":"m 244 843 b 242 849 239 843 238 846 l 442 1013 b 458 1019 451 1019 451 1019 l 460 1019 b 474 1013 467 1019 468 1019 l 614 849 b 610 843 617 846 617 843 l 599 843 b 589 847 593 843 592 843 l 457 1001 l 269 847 b 257 843 265 844 263 843 l 244 843 m 276 -19 b 63 244 107 -19 33 81 l 101 465 b 406 728 129 628 232 728 b 626 533 561 728 615 658 b 624 526 626 529 626 528 l 614 524 b 608 528 610 522 608 524 b 404 708 596 653 544 708 b 119 465 243 708 146 614 l 81 244 b 276 0 54 96 118 0 b 551 189 410 0 478 58 b 557 192 554 193 553 193 l 567 189 b 569 181 569 188 571 186 b 276 -19 500 44 422 -19 "},"Ċ":{"ha":875,"x_min":0,"x_max":0,"o":"m 563 1119 b 549 1136 550 1119 546 1122 l 550 1142 b 568 1158 553 1154 556 1158 l 574 1158 b 589 1142 586 1158 592 1154 l 588 1136 b 568 1119 585 1124 581 1119 l 563 1119 m 365 -19 b 86 317 146 -19 49 108 l 149 671 b 543 1006 185 878 321 1006 b 832 758 747 1006 821 921 b 828 751 833 754 832 753 l 819 750 b 811 754 815 749 811 749 b 543 986 797 908 731 986 b 169 672 332 986 203 865 l 106 315 b 367 1 72 124 160 1 b 725 243 561 1 656 89 b 735 246 726 247 729 247 l 742 243 b 744 233 746 242 747 240 b 365 -19 669 74 572 -19 "},"ċ":{"ha":708,"x_min":0,"x_max":0,"o":"m 438 918 b 421 939 422 918 417 921 l 422 944 b 444 965 426 960 431 965 l 451 965 b 468 944 467 965 471 958 l 467 939 b 444 918 463 924 458 918 l 438 918 m 276 -19 b 63 244 107 -19 33 81 l 101 465 b 406 728 129 628 232 728 b 626 533 561 728 615 658 b 624 526 626 529 626 528 l 614 524 b 608 528 610 522 608 524 b 404 708 596 653 544 708 b 119 465 243 708 146 614 l 81 244 b 276 0 54 96 118 0 b 551 189 410 0 478 58 b 557 192 554 193 553 193 l 567 189 b 569 181 569 188 571 186 b 276 -19 500 44 422 -19 "},"Č":{"ha":875,"x_min":0,"x_max":0,"o":"m 556 1065 b 542 1072 549 1065 547 1065 l 401 1236 b 406 1242 399 1239 399 1242 l 417 1242 b 426 1238 422 1242 424 1242 l 558 1083 l 746 1238 b 758 1242 751 1240 753 1242 l 771 1242 b 774 1236 778 1242 778 1239 l 572 1072 b 557 1065 563 1065 564 1065 l 556 1065 m 365 -19 b 86 317 146 -19 49 108 l 149 671 b 543 1006 185 878 321 1006 b 832 758 747 1006 821 921 b 828 751 833 754 832 753 l 819 750 b 811 754 815 749 811 749 b 543 986 797 908 731 986 b 169 672 332 986 203 865 l 106 315 b 367 1 72 124 160 1 b 725 243 561 1 656 89 b 735 246 726 247 729 247 l 742 243 b 744 233 746 242 747 240 b 365 -19 669 74 572 -19 "},"č":{"ha":708,"x_min":0,"x_max":0,"o":"m 417 843 b 403 850 410 843 408 843 l 263 1014 b 267 1019 260 1017 260 1019 l 278 1019 b 288 1015 283 1019 285 1019 l 419 861 l 607 1015 b 618 1019 611 1018 613 1019 l 632 1019 b 635 1014 638 1019 636 1017 l 433 850 b 418 843 424 843 425 843 l 417 843 m 276 -19 b 63 244 107 -19 33 81 l 101 465 b 406 728 129 628 232 728 b 626 533 561 728 615 658 b 624 526 626 529 626 528 l 614 524 b 608 528 610 522 608 524 b 404 708 596 653 544 708 b 119 465 243 708 146 614 l 81 244 b 276 0 54 96 118 0 b 551 189 410 0 478 58 b 557 192 554 193 553 193 l 567 189 b 569 181 569 188 571 186 b 276 -19 500 44 422 -19 "},"Ď":{"ha":883,"x_min":0,"x_max":0,"o":"m 528 1065 b 514 1072 521 1065 519 1065 l 374 1236 b 378 1242 371 1239 371 1242 l 389 1242 b 399 1238 394 1242 396 1242 l 531 1083 l 718 1238 b 731 1242 724 1240 725 1242 l 743 1242 b 746 1236 750 1242 750 1239 l 544 1072 b 529 1065 535 1065 536 1065 l 528 1065 m 67 0 b 61 6 63 0 61 1 l 233 981 b 239 986 235 985 235 986 l 490 986 b 796 619 742 986 836 846 l 751 367 b 318 0 711 140 556 0 l 67 0 m 319 19 b 731 367 543 19 693 150 l 775 619 b 489 967 814 836 725 967 l 251 967 l 85 19 "},"ď":{"ha":804,"x_min":0,"x_max":0,"o":"m 275 -19 b 64 256 99 -19 32 76 l 100 464 b 394 728 131 638 233 728 b 618 664 517 728 592 681 l 682 1022 b 688 1028 683 1026 683 1028 l 696 1028 b 701 1022 700 1028 703 1026 l 538 96 b 476 19 531 50 519 38 b 275 -19 428 -1 358 -19 m 747 811 b 743 818 742 811 740 813 l 832 1022 b 840 1028 833 1025 836 1028 l 847 1028 b 853 1021 853 1028 854 1025 l 763 818 b 753 811 760 813 758 811 l 747 811 m 275 0 b 468 38 358 0 426 19 b 519 96 507 54 513 60 l 615 643 b 394 708 590 660 514 708 b 119 464 244 708 149 625 l 83 256 b 275 0 51 86 115 0 "},"Đ":{"ha":879,"x_min":0,"x_max":0,"o":"m 63 0 b 57 6 58 0 57 1 l 142 482 l 32 482 b 25 489 26 482 24 483 l 25 494 b 35 501 26 500 28 501 l 144 501 l 229 981 b 235 986 231 985 231 986 l 486 986 b 792 619 738 986 832 846 l 747 367 b 314 0 707 140 551 0 l 63 0 m 315 19 b 726 367 539 19 689 150 l 771 619 b 485 967 810 836 721 967 l 247 967 l 165 501 l 422 501 b 428 494 428 501 429 499 l 426 489 b 419 482 426 483 425 482 l 163 482 l 81 19 "},"đ":{"ha":738,"x_min":0,"x_max":0,"o":"m 276 -19 b 65 256 100 -19 33 76 l 101 464 b 396 728 132 638 235 728 b 619 664 518 728 593 681 l 657 871 l 439 871 b 433 878 433 871 432 872 l 433 881 b 442 888 435 886 436 888 l 660 888 l 683 1022 b 689 1028 685 1026 685 1028 l 697 1028 b 703 1022 701 1028 704 1026 l 679 888 l 788 888 b 793 881 793 888 794 886 l 793 878 b 785 871 792 872 790 871 l 676 871 l 539 96 b 478 19 532 50 521 38 b 276 -19 429 -1 360 -19 m 276 0 b 469 38 360 0 428 19 b 521 96 508 54 514 60 l 617 643 b 396 708 592 660 515 708 b 121 464 246 708 150 625 l 85 256 b 276 0 53 86 117 0 "},"Ē":{"ha":783,"x_min":0,"x_max":0,"o":"m 374 1131 b 369 1136 369 1131 368 1132 l 371 1143 b 376 1149 371 1147 372 1149 l 682 1149 b 686 1143 686 1149 688 1147 l 686 1136 b 679 1131 685 1132 683 1131 l 374 1131 m 67 0 b 61 6 63 0 61 1 l 233 981 b 239 986 235 985 235 986 l 758 986 b 764 981 763 986 764 985 l 763 972 b 757 967 761 968 761 967 l 251 967 l 171 510 l 622 510 b 626 504 626 510 628 508 l 625 496 b 619 490 625 492 624 490 l 168 490 l 85 19 l 607 19 b 613 14 611 19 614 18 l 611 6 b 606 0 610 1 610 0 l 67 0 "},"ē":{"ha":724,"x_min":0,"x_max":0,"o":"m 292 919 b 286 925 286 919 286 922 l 288 932 b 294 938 289 936 290 938 l 599 938 b 604 932 603 938 606 938 l 603 925 b 597 919 601 921 601 919 l 292 919 m 79 246 b 267 -1 51 93 111 -1 b 544 160 401 -1 486 67 b 553 161 547 163 550 163 l 560 157 b 561 149 562 156 562 153 b 267 -19 499 57 412 -19 b 58 246 94 -19 29 82 b 93 443 69 311 82 378 b 406 728 124 622 240 728 b 625 517 567 728 650 657 b 324 310 601 381 496 310 b 93 327 237 310 173 314 m 403 710 b 114 443 253 710 143 611 l 97 346 b 325 329 178 332 256 329 b 606 519 476 329 582 388 b 403 710 628 646 551 710 "},"Ĕ":{"ha":783,"x_min":0,"x_max":0,"o":"m 517 1065 b 367 1226 419 1065 367 1114 b 369 1232 367 1229 367 1232 l 378 1233 b 385 1228 383 1235 385 1233 b 518 1085 385 1133 433 1085 b 704 1231 604 1085 661 1122 b 710 1233 707 1233 707 1233 l 719 1232 b 722 1224 722 1232 724 1229 b 517 1065 681 1114 615 1065 m 67 0 b 61 6 63 0 61 1 l 233 981 b 239 986 235 985 235 986 l 758 986 b 764 981 763 986 764 985 l 763 972 b 757 967 761 968 761 967 l 251 967 l 171 510 l 622 510 b 626 504 626 510 628 508 l 625 496 b 619 490 625 492 624 490 l 168 490 l 85 19 l 607 19 b 613 14 611 19 614 18 l 611 6 b 606 0 610 1 610 0 l 67 0 "},"ĕ":{"ha":724,"x_min":0,"x_max":0,"o":"m 633 1019 b 635 1011 636 1019 638 1017 b 431 853 582 906 528 853 b 279 1014 332 853 279 901 b 283 1019 279 1017 281 1019 l 293 1021 b 299 1014 297 1021 299 1019 b 432 872 299 915 344 872 b 617 1018 519 872 567 917 b 622 1021 618 1021 619 1021 l 633 1019 m 406 728 b 625 517 567 728 650 657 b 324 310 601 381 496 310 b 93 327 237 310 173 314 l 79 246 b 267 -1 51 93 111 -1 b 544 160 401 -1 486 67 b 553 161 547 163 550 163 l 560 157 b 561 149 563 156 563 153 b 267 -19 499 57 413 -19 b 58 246 94 -19 29 82 b 93 443 69 311 82 378 b 406 728 124 622 240 728 m 606 519 b 403 710 628 646 551 710 b 114 443 253 710 143 611 l 97 346 b 325 329 178 332 256 329 b 606 519 476 329 582 388 "},"Ė":{"ha":783,"x_min":0,"x_max":0,"o":"m 522 1119 b 508 1136 510 1119 506 1122 l 510 1142 b 528 1158 513 1154 515 1158 l 533 1158 b 549 1142 546 1158 551 1154 l 547 1136 b 528 1119 544 1124 540 1119 l 522 1119 m 67 0 b 61 6 63 0 61 1 l 233 981 b 239 986 235 985 235 986 l 758 986 b 764 981 763 986 764 985 l 763 972 b 757 967 761 968 761 967 l 251 967 l 171 510 l 622 510 b 626 504 626 510 628 508 l 625 496 b 619 490 625 492 624 490 l 168 490 l 85 19 l 607 19 b 613 14 611 19 614 18 l 611 6 b 606 0 610 1 610 0 l 67 0 "},"ė":{"ha":724,"x_min":0,"x_max":0,"o":"m 440 919 b 424 940 425 919 419 922 l 425 946 b 447 967 429 961 433 967 l 454 967 b 471 946 469 967 474 960 l 469 940 b 447 919 465 925 461 919 l 440 919 m 79 246 b 267 -1 51 93 111 -1 b 544 160 401 -1 486 67 b 553 161 547 163 550 163 l 560 157 b 561 149 562 156 562 153 b 267 -19 499 57 412 -19 b 58 246 94 -19 29 82 b 93 443 69 311 82 378 b 406 728 124 622 240 728 b 625 517 567 728 650 657 b 324 310 601 381 496 310 b 93 327 237 310 173 314 m 403 710 b 114 443 253 710 143 611 l 97 346 b 325 329 178 332 256 329 b 606 519 476 329 582 388 b 403 710 628 646 551 710 "},"Ę":{"ha":783,"x_min":0,"x_max":0,"o":"m 463 -344 b 396 -285 431 -344 403 -328 b 583 0 382 -199 500 -75 l 67 0 b 61 6 63 0 61 1 l 233 981 b 239 986 235 985 235 986 l 758 986 b 764 981 763 986 764 985 l 763 972 b 757 967 761 968 761 967 l 251 967 l 171 510 l 622 510 b 626 504 626 510 628 508 l 625 496 b 619 490 625 492 624 490 l 168 490 l 85 19 l 607 19 b 614 14 611 19 614 18 l 613 6 b 608 -1 611 1 610 0 b 415 -279 532 -65 408 -203 b 467 -325 418 -312 438 -325 b 567 -275 496 -325 528 -314 b 572 -276 568 -274 571 -274 l 576 -287 b 572 -296 578 -290 576 -292 b 463 -344 536 -332 497 -344 "},"ę":{"ha":724,"x_min":0,"x_max":0,"o":"m 328 -344 b 260 -282 290 -344 263 -322 b 417 14 254 -206 319 -90 b 267 -19 375 -7 317 -19 b 58 246 94 -19 29 82 b 93 443 69 311 82 378 b 406 728 124 622 240 728 b 625 517 567 728 650 657 b 338 310 601 381 496 310 b 96 339 264 310 169 319 l 79 246 b 267 -1 51 93 111 -1 b 543 160 390 -1 475 53 b 551 161 547 163 550 163 l 560 157 b 561 149 563 156 563 153 b 279 -272 475 29 279 -122 b 332 -325 279 -314 301 -325 b 431 -275 364 -325 399 -308 b 436 -278 433 -274 435 -274 l 440 -287 b 438 -294 440 -289 442 -290 b 328 -344 400 -329 363 -344 m 339 329 b 606 519 476 329 582 388 b 403 710 628 646 551 710 b 114 443 253 710 143 611 l 97 358 b 339 329 179 335 269 329 "},"Ě":{"ha":783,"x_min":0,"x_max":0,"o":"m 515 1065 b 501 1072 508 1065 507 1065 l 361 1236 b 365 1242 358 1239 358 1242 l 376 1242 b 386 1238 382 1242 383 1242 l 518 1083 l 706 1238 b 718 1242 711 1240 713 1242 l 731 1242 b 733 1236 738 1242 738 1239 l 532 1072 b 517 1065 522 1065 524 1065 l 515 1065 m 67 0 b 61 6 63 0 61 1 l 233 981 b 239 986 235 985 235 986 l 758 986 b 764 981 763 986 764 985 l 763 972 b 757 967 761 968 761 967 l 251 967 l 171 510 l 622 510 b 626 504 626 510 628 508 l 625 496 b 619 490 625 492 624 490 l 168 490 l 85 19 l 607 19 b 613 14 611 19 614 18 l 611 6 b 606 0 610 1 610 0 l 67 0 "},"ě":{"ha":724,"x_min":0,"x_max":0,"o":"m 635 1021 b 638 1015 640 1021 639 1018 l 436 851 b 421 844 426 844 428 844 l 419 844 b 406 851 413 844 411 844 l 265 1015 b 269 1021 263 1018 263 1021 l 281 1021 b 290 1017 286 1021 288 1021 l 422 863 l 610 1017 b 621 1021 614 1019 615 1021 l 635 1021 m 406 728 b 625 517 567 728 650 657 b 324 310 601 381 496 310 b 93 327 237 310 173 314 l 79 246 b 267 -1 51 93 111 -1 b 544 160 401 -1 486 67 b 553 161 547 163 550 163 l 560 157 b 561 149 563 156 563 153 b 267 -19 499 57 413 -19 b 58 246 94 -19 29 82 b 93 443 69 311 82 378 b 406 728 124 622 240 728 m 606 519 b 403 710 628 646 551 710 b 114 443 253 710 143 611 l 97 346 b 325 329 178 332 256 329 b 606 519 476 329 582 388 "},"Ĝ":{"ha":896,"x_min":0,"x_max":0,"o":"m 372 1079 b 369 1085 365 1079 365 1082 l 569 1249 b 586 1256 579 1256 579 1256 l 588 1256 b 601 1249 594 1256 596 1256 l 742 1085 b 738 1079 744 1082 744 1079 l 726 1079 b 717 1083 721 1079 719 1079 l 585 1236 l 397 1083 b 385 1079 392 1081 390 1079 l 372 1079 m 368 -19 b 86 318 144 -19 49 110 l 149 671 b 543 1006 186 885 318 1006 b 832 758 744 1006 822 922 b 828 751 832 754 832 753 l 821 750 b 813 754 817 749 813 749 b 543 986 803 910 731 986 b 168 669 328 986 201 863 l 107 319 b 367 0 72 122 160 0 b 740 319 575 0 706 122 l 765 460 l 460 460 b 456 465 457 460 456 461 l 457 474 b 463 479 457 478 460 479 l 781 479 b 788 471 786 479 789 476 l 761 318 b 368 -19 725 110 586 -19 "},"ĝ":{"ha":735,"x_min":0,"x_max":0,"o":"m 254 843 b 251 849 249 843 247 846 l 451 1013 b 468 1019 461 1019 461 1019 l 469 1019 b 483 1013 476 1019 478 1019 l 624 849 b 619 843 626 846 626 843 l 608 843 b 599 847 603 843 601 843 l 467 1001 l 279 847 b 267 843 275 844 272 843 l 254 843 m 204 -361 b -1 -193 74 -361 22 -289 b 0 -186 -3 -190 -3 -187 l 10 -182 b 18 -186 15 -179 17 -182 b 206 -342 42 -274 85 -342 b 490 -62 376 -342 460 -232 l 508 38 b 250 -19 451 10 371 -19 b 63 243 86 -19 35 79 l 100 453 b 403 728 132 632 228 728 b 590 689 488 728 550 710 b 628 613 628 671 636 658 l 508 -62 b 204 -361 476 -244 389 -361 m 251 -1 b 511 61 378 -1 456 32 l 608 613 b 581 671 615 649 613 654 b 401 710 546 689 483 710 b 119 453 240 710 150 621 l 82 243 b 251 -1 54 88 104 -1 "},"Ğ":{"ha":896,"x_min":0,"x_max":0,"o":"m 558 1079 b 408 1240 461 1079 408 1128 b 411 1246 408 1243 408 1246 l 419 1247 b 426 1242 425 1249 426 1247 b 560 1099 426 1147 475 1099 b 746 1244 646 1099 703 1136 b 751 1247 749 1247 749 1247 l 761 1246 b 764 1238 764 1246 765 1243 b 558 1079 722 1128 657 1079 m 368 -19 b 86 318 144 -19 49 110 l 149 671 b 543 1006 186 885 318 1006 b 832 758 744 1006 822 922 b 828 751 832 754 832 753 l 821 750 b 813 754 817 749 813 749 b 543 986 803 910 731 986 b 168 669 328 986 201 863 l 107 319 b 367 0 72 122 160 0 b 740 319 575 0 706 122 l 765 460 l 460 460 b 456 465 457 460 456 461 l 457 474 b 463 479 457 478 460 479 l 781 479 b 788 471 786 479 789 476 l 761 318 b 368 -19 725 110 586 -19 "},"ğ":{"ha":735,"x_min":0,"x_max":0,"o":"m 438 851 b 286 1013 339 851 286 900 b 290 1018 286 1015 288 1018 l 300 1019 b 306 1013 304 1019 306 1018 b 439 871 306 914 351 871 b 624 1017 526 871 574 915 b 629 1019 625 1019 626 1019 l 640 1018 b 642 1010 643 1018 644 1015 b 438 851 589 904 535 851 m 204 -361 b -1 -193 74 -361 22 -289 b 0 -186 -3 -190 -3 -187 l 10 -182 b 18 -186 15 -179 17 -182 b 206 -342 42 -274 85 -342 b 490 -62 376 -342 460 -232 l 508 38 b 250 -19 451 10 371 -19 b 63 243 86 -19 35 79 l 100 453 b 403 728 132 632 228 728 b 590 689 488 728 550 710 b 628 613 628 671 636 658 l 508 -62 b 204 -361 476 -244 389 -361 m 251 -1 b 511 61 378 -1 456 32 l 608 613 b 581 671 615 649 613 654 b 401 710 546 689 483 710 b 119 453 240 710 150 621 l 82 243 b 251 -1 54 88 104 -1 "},"Ġ":{"ha":896,"x_min":0,"x_max":0,"o":"m 564 1133 b 550 1150 551 1133 547 1136 l 551 1156 b 569 1172 554 1168 557 1172 l 575 1172 b 590 1156 588 1172 593 1168 l 589 1150 b 569 1133 586 1138 582 1133 l 564 1133 m 368 -19 b 86 318 144 -19 49 110 l 149 671 b 543 1006 186 885 318 1006 b 832 758 744 1006 822 922 b 828 751 832 754 832 753 l 821 750 b 813 754 817 749 813 749 b 543 986 803 910 731 986 b 168 669 328 986 201 863 l 107 319 b 367 0 72 122 160 0 b 740 319 575 0 706 122 l 765 460 l 460 460 b 456 465 457 460 456 461 l 457 474 b 463 479 457 478 460 479 l 781 479 b 788 471 786 479 789 476 l 761 318 b 368 -19 725 110 586 -19 "},"ġ":{"ha":735,"x_min":0,"x_max":0,"o":"m 447 918 b 431 939 432 918 426 921 l 432 944 b 454 965 436 960 440 965 l 461 965 b 478 944 476 965 481 958 l 476 939 b 454 918 472 924 468 918 l 447 918 m 204 -361 b -1 -193 74 -361 22 -289 b 0 -186 -3 -190 -3 -187 l 10 -182 b 18 -186 15 -179 17 -182 b 206 -342 42 -274 85 -342 b 490 -62 376 -342 460 -232 l 508 38 b 250 -19 451 10 371 -19 b 63 243 86 -19 35 79 l 100 453 b 403 728 132 632 228 728 b 590 689 488 728 550 710 b 628 613 628 671 636 658 l 508 -62 b 204 -361 476 -244 389 -361 m 251 -1 b 511 61 378 -1 456 32 l 608 613 b 581 671 615 649 613 654 b 401 710 546 689 483 710 b 119 453 240 710 150 621 l 82 243 b 251 -1 54 88 104 -1 "},"Ģ":{"ha":896,"x_min":0,"x_max":0,"o":"m 368 -19 b 86 318 144 -19 49 110 l 149 671 b 543 1006 186 885 318 1006 b 832 758 744 1006 822 922 b 828 751 832 754 832 753 l 821 750 b 813 754 817 749 813 749 b 543 986 803 910 731 986 b 168 669 328 986 201 863 l 107 319 b 367 0 72 122 160 0 b 740 319 575 0 706 122 l 765 460 l 460 460 b 456 465 457 460 456 461 l 457 474 b 463 479 457 478 460 479 l 781 479 b 788 471 786 479 789 476 l 761 318 b 368 -19 725 110 586 -19 m 250 -335 b 246 -328 244 -335 243 -333 l 347 -124 b 356 -118 349 -121 351 -118 l 363 -118 b 368 -125 368 -118 369 -121 l 265 -328 b 256 -335 263 -333 261 -335 l 250 -335 "},"ģ":{"ha":735,"x_min":0,"x_max":0,"o":"m 399 818 b 393 825 393 818 390 821 l 486 1010 b 496 1017 489 1015 490 1017 l 501 1017 b 506 1010 507 1017 508 1015 l 414 824 b 406 818 413 821 410 818 l 399 818 m 204 -361 b -1 -193 74 -361 22 -289 b 0 -186 -3 -190 -3 -187 l 10 -182 b 18 -186 15 -179 17 -182 b 206 -342 42 -274 85 -342 b 490 -62 376 -342 460 -232 l 508 38 b 250 -19 451 10 371 -19 b 63 243 86 -19 35 79 l 100 453 b 403 728 132 632 228 728 b 590 689 488 728 550 710 b 628 613 628 671 636 658 l 508 -62 b 204 -361 476 -244 389 -361 m 251 -1 b 511 61 378 -1 456 32 l 608 613 b 581 671 615 649 613 654 b 401 710 546 689 483 710 b 119 453 240 710 150 621 l 82 243 b 251 -1 54 88 104 -1 "},"Ĥ":{"ha":936,"x_min":0,"x_max":0,"o":"m 385 1065 b 382 1071 378 1065 378 1068 l 582 1235 b 599 1242 592 1242 592 1242 l 600 1242 b 614 1235 607 1242 608 1242 l 754 1071 b 750 1065 757 1068 757 1065 l 739 1065 b 729 1069 733 1065 732 1065 l 597 1222 l 410 1069 b 397 1065 404 1067 403 1065 l 385 1065 m 67 0 b 61 6 63 0 61 1 l 233 981 b 239 986 235 985 235 986 l 249 986 b 254 981 253 986 254 985 l 171 510 l 771 510 l 854 981 b 860 986 856 985 856 986 l 869 986 b 875 981 874 986 875 985 l 703 6 b 697 0 701 1 701 0 l 688 0 b 682 6 683 0 682 1 l 768 490 l 168 490 l 82 6 b 76 0 81 1 81 0 l 67 0 "},"ĥ":{"ha":757,"x_min":0,"x_max":0,"o":"m 63 1085 b 60 1090 56 1085 56 1088 l 260 1254 b 276 1261 269 1261 269 1261 l 278 1261 b 292 1254 285 1261 286 1261 l 432 1090 b 428 1085 435 1088 435 1085 l 417 1085 b 407 1089 411 1085 410 1085 l 275 1242 l 88 1089 b 75 1085 82 1086 81 1085 l 63 1085 m 51 0 b 46 6 47 0 46 1 l 225 1022 b 231 1028 226 1026 226 1028 l 239 1028 b 244 1022 243 1028 246 1026 l 182 668 b 438 728 253 703 338 728 b 626 464 601 728 656 631 l 546 6 b 540 0 544 1 544 0 l 532 0 b 526 6 528 0 526 1 l 607 463 b 435 710 635 622 586 710 b 179 647 342 710 256 686 l 65 6 b 60 0 64 1 64 0 l 51 0 "},"Ħ":{"ha":942,"x_min":0,"x_max":0,"o":"m 69 0 b 64 6 65 0 64 1 l 200 778 l 97 778 b 90 786 92 778 89 779 l 92 790 b 99 797 93 796 94 797 l 204 797 l 236 981 b 242 986 238 985 238 986 l 251 986 b 257 981 256 986 257 985 l 225 797 l 825 797 l 857 981 b 863 986 858 985 858 986 l 872 986 b 878 981 876 986 878 985 l 846 797 l 950 797 b 957 790 956 797 957 796 l 956 786 b 949 778 954 779 954 778 l 842 778 l 706 6 b 700 0 704 1 704 0 l 690 0 b 685 6 686 0 685 1 l 771 490 l 171 490 l 85 6 b 79 0 83 1 83 0 l 69 0 m 774 510 l 821 778 l 221 778 l 174 510 "},"ħ":{"ha":756,"x_min":0,"x_max":0,"o":"m 50 0 b 44 6 46 0 44 1 l 199 879 l 111 879 b 106 888 106 879 104 881 l 107 890 b 114 897 107 896 110 897 l 201 897 l 224 1022 b 228 1028 225 1026 224 1028 l 238 1028 b 243 1022 242 1028 244 1026 l 221 897 l 431 897 b 436 890 436 897 438 896 l 436 888 b 428 879 435 881 433 879 l 218 879 l 181 668 b 436 728 251 703 336 728 b 625 464 600 728 654 631 l 544 6 b 539 0 543 1 543 0 l 531 0 b 525 6 526 0 525 1 l 606 463 b 433 710 633 622 585 710 b 178 647 340 710 254 686 l 64 6 b 58 0 63 1 63 0 l 50 0 "},"Ĩ":{"ha":315,"x_min":0,"x_max":0,"o":"m 82 1081 b 76 1088 78 1081 76 1082 b 188 1207 89 1157 133 1207 b 357 1099 276 1207 281 1099 b 446 1203 403 1099 436 1143 b 451 1207 447 1206 447 1207 l 460 1207 b 465 1200 464 1207 465 1206 b 356 1081 453 1132 414 1081 b 186 1189 268 1081 265 1189 b 96 1085 144 1189 107 1146 b 90 1081 96 1082 94 1081 l 82 1081 m 65 0 b 63 8 61 0 61 3 l 233 981 b 242 986 235 986 236 986 l 249 986 b 254 979 251 986 256 986 l 82 8 b 75 0 81 3 81 0 l 65 0 "},"ĩ":{"ha":283,"x_min":0,"x_max":0,"o":"m 75 843 b 69 850 71 843 68 844 b 161 965 89 929 111 965 b 276 860 244 965 207 860 b 346 961 311 860 329 894 b 351 965 347 964 347 965 l 357 965 b 363 958 361 965 364 964 b 275 843 343 879 322 843 b 160 949 193 843 229 949 b 86 847 121 949 107 926 b 81 843 85 844 85 843 l 75 843 m 51 0 b 46 6 47 0 46 1 l 169 703 b 176 708 171 707 172 708 l 183 708 b 189 703 188 708 189 707 l 65 6 b 60 0 64 1 64 0 l 51 0 "},"Ī":{"ha":315,"x_min":0,"x_max":0,"o":"m 117 1131 b 113 1136 113 1131 111 1132 l 114 1143 b 119 1149 114 1147 115 1149 l 425 1149 b 429 1143 429 1149 431 1147 l 429 1136 b 422 1131 428 1132 426 1131 l 117 1131 m 65 0 b 63 8 61 0 61 3 l 233 981 b 242 986 235 986 236 986 l 249 986 b 254 979 251 986 256 986 l 82 8 b 75 0 81 3 81 0 l 65 0 "},"ī":{"ha":283,"x_min":0,"x_max":0,"o":"m 113 908 b 108 914 110 908 107 908 l 110 921 b 118 926 111 926 114 926 l 319 926 b 324 921 324 926 324 924 l 322 914 b 317 908 321 910 321 908 l 113 908 m 51 0 b 46 6 47 0 46 1 l 169 703 b 176 708 171 707 172 708 l 183 708 b 189 703 188 708 189 707 l 65 6 b 60 0 64 1 64 0 l 51 0 "},"Ĭ":{"ha":315,"x_min":0,"x_max":0,"o":"m 260 1065 b 110 1226 163 1065 110 1114 b 113 1232 110 1229 110 1232 l 121 1233 b 128 1228 126 1235 128 1233 b 261 1085 128 1133 176 1085 b 447 1231 347 1085 404 1122 b 453 1233 450 1233 450 1233 l 463 1232 b 465 1224 465 1232 467 1229 b 260 1065 424 1114 358 1065 m 65 0 b 63 8 61 0 61 3 l 233 981 b 242 986 235 986 236 986 l 249 986 b 254 979 251 986 256 986 l 82 8 b 75 0 81 3 81 0 l 65 0 "},"ĭ":{"ha":283,"x_min":0,"x_max":0,"o":"m 196 840 b 86 988 121 840 79 888 b 90 993 86 990 88 992 l 99 994 b 106 989 103 994 106 994 b 196 860 96 900 133 860 b 335 986 261 860 313 900 b 343 994 336 993 339 994 l 350 993 b 353 985 353 992 354 990 b 196 840 326 888 268 840 m 51 0 b 46 6 47 0 46 1 l 169 703 b 176 708 171 707 172 708 l 183 708 b 189 703 188 708 189 707 l 65 6 b 60 0 64 1 64 0 l 51 0 "},"Į":{"ha":315,"x_min":0,"x_max":0,"o":"m -7 -344 b -74 -285 -44 -344 -69 -321 b 63 1 -81 -214 -49 -115 b 65 22 61 3 63 7 l 233 981 b 239 986 235 985 235 986 l 249 986 b 254 981 253 986 256 985 l 83 8 b 81 0 82 3 82 1 b -56 -278 -19 -114 -61 -201 b -4 -325 -53 -318 -25 -325 b 97 -275 33 -325 65 -307 b 103 -276 99 -274 101 -274 l 107 -287 b 103 -296 108 -290 106 -293 b -7 -344 74 -322 39 -344 "},"į":{"ha":283,"x_min":0,"x_max":0,"o":"m 214 918 b 199 938 200 918 194 921 l 200 943 b 221 963 204 957 207 963 l 228 963 b 243 943 242 963 246 957 l 242 938 b 221 918 238 924 235 918 l 214 918 m -12 -344 b -79 -261 -65 -344 -83 -306 b 46 4 -69 -154 31 -15 l 46 6 l 169 703 b 175 708 169 707 171 708 l 183 708 b 189 703 188 708 190 707 l 67 14 b 64 1 65 7 65 4 b -60 -265 54 -10 -47 -153 b -8 -325 -62 -308 -42 -325 b 92 -275 21 -325 53 -314 b 97 -276 93 -274 96 -274 l 101 -287 b 97 -296 103 -290 101 -292 b -12 -344 61 -332 22 -344 "},"İ":{"ha":315,"x_min":0,"x_max":0,"o":"m 265 1119 b 251 1136 253 1119 249 1122 l 253 1142 b 271 1158 256 1154 258 1158 l 276 1158 b 292 1142 289 1158 294 1154 l 290 1136 b 271 1119 288 1124 283 1119 l 265 1119 m 65 0 b 63 8 61 0 61 3 l 233 981 b 242 986 235 986 236 986 l 249 986 b 254 979 251 986 256 986 l 82 8 b 75 0 81 3 81 0 l 65 0 "},"ı":{"ha":283,"x_min":0,"x_max":0,"o":"m 51 0 b 46 6 47 0 46 1 l 169 703 b 176 708 171 707 172 708 l 183 708 b 189 703 188 708 189 707 l 65 6 b 60 0 64 1 64 0 l 51 0 "},"Ĳ":{"ha":1042,"x_min":0,"x_max":0,"o":"m 65 0 b 63 8 61 0 61 3 l 233 981 b 242 986 235 986 236 986 l 249 986 b 254 979 251 986 256 986 l 82 8 b 75 0 81 3 81 0 l 65 0 m 525 -19 b 285 272 347 -19 276 88 b 289 281 285 275 285 281 l 301 281 b 306 274 306 281 306 279 b 528 1 299 97 361 1 b 846 293 704 1 815 122 l 967 981 b 972 986 968 985 968 986 l 982 986 b 988 981 986 986 988 985 l 867 293 b 525 -19 832 103 717 -19 "},"ĳ":{"ha":567,"x_min":0,"x_max":0,"o":"m 442 918 b 425 939 426 918 421 921 l 426 944 b 449 965 431 960 435 965 l 456 965 b 472 944 471 965 475 958 l 471 939 b 449 918 467 924 463 918 l 442 918 m 214 918 b 199 938 200 918 194 921 l 200 943 b 221 963 204 957 207 963 l 228 963 b 243 943 242 963 246 957 l 242 938 b 221 918 238 924 235 918 l 214 918 m 26 -319 b 21 -314 21 -319 19 -318 l 22 -306 b 26 -300 22 -301 24 -300 b 269 -18 215 -300 238 -200 l 397 703 b 403 708 397 707 399 708 l 411 708 b 417 703 415 708 417 707 l 289 -18 b 26 -319 254 -212 226 -319 m 51 0 b 46 6 47 0 46 1 l 169 703 b 175 708 169 707 171 708 l 183 708 b 189 703 188 708 189 707 l 65 6 b 60 0 64 1 64 0 l 51 0 "},"Ĵ":{"ha":779,"x_min":0,"x_max":0,"o":"m 544 1065 b 542 1071 538 1065 538 1068 l 742 1235 b 758 1242 751 1242 751 1242 l 760 1242 b 774 1235 767 1242 768 1242 l 914 1071 b 910 1065 917 1068 917 1065 l 899 1065 b 889 1069 893 1065 892 1065 l 757 1222 l 569 1069 b 557 1065 564 1067 563 1065 l 544 1065 m 263 -19 b 22 272 85 -19 14 88 b 26 281 22 275 22 281 l 39 281 b 43 274 43 281 43 279 b 265 1 36 97 99 1 b 583 293 442 1 553 122 l 704 981 b 710 986 706 985 706 986 l 719 986 b 725 981 724 986 725 985 l 604 293 b 263 -19 569 103 454 -19 "},"ĵ":{"ha":283,"x_min":0,"x_max":0,"o":"m 72 842 b 68 847 67 842 67 844 l 211 996 b 225 1004 217 1001 219 1004 l 231 1004 b 244 994 238 1004 240 1003 l 333 847 b 329 842 335 844 335 842 l 321 842 b 310 846 314 842 311 842 l 228 986 l 96 846 b 83 842 92 842 89 842 l 72 842 m -201 -319 b -207 -314 -207 -319 -208 -318 l -206 -306 b -201 -300 -206 -301 -204 -300 b 42 -18 -12 -300 10 -200 l 169 703 b 175 708 169 707 171 708 l 183 708 b 189 703 188 708 189 707 l 61 -18 b -201 -319 26 -212 -1 -319 "},"Ķ":{"ha":815,"x_min":0,"x_max":0,"o":"m 67 0 b 61 6 63 0 61 1 l 233 981 b 239 986 235 985 235 986 l 249 986 b 254 981 253 986 254 985 l 171 510 l 369 510 b 407 508 383 510 397 510 l 806 981 b 818 986 808 985 811 986 l 828 986 b 832 979 835 986 835 983 l 431 504 b 574 356 515 492 550 440 l 672 7 b 668 0 674 3 674 0 l 660 0 b 650 6 653 0 651 1 l 556 346 b 375 490 529 443 490 490 l 168 490 l 82 6 b 76 0 81 1 81 0 l 67 0 m 243 -335 b 239 -328 238 -335 236 -333 l 340 -124 b 349 -118 342 -121 344 -118 l 356 -118 b 361 -125 361 -118 363 -121 l 258 -328 b 249 -335 256 -333 254 -335 l 243 -335 "},"ķ":{"ha":678,"x_min":0,"x_max":0,"o":"m 51 0 b 46 6 47 0 46 1 l 225 1022 b 231 1028 226 1026 226 1028 l 239 1028 b 244 1022 243 1028 246 1026 l 131 375 l 318 375 l 332 375 l 617 703 b 631 708 622 708 624 708 l 638 708 b 642 701 644 708 644 706 l 353 372 b 460 264 418 361 444 325 l 531 6 b 528 0 531 3 532 0 l 519 0 b 510 4 513 0 511 1 l 442 256 b 315 357 424 325 390 357 l 128 357 l 65 6 b 60 0 64 1 64 0 l 51 0 m 156 -335 b 151 -328 150 -335 149 -333 l 253 -124 b 261 -118 254 -121 257 -118 l 268 -118 b 274 -125 274 -118 275 -121 l 171 -328 b 161 -335 168 -333 167 -335 l 156 -335 "},"ĸ":{"ha":613,"x_min":0,"x_max":0,"o":"m 51 0 b 46 6 47 0 46 1 l 169 703 b 175 708 169 707 171 708 l 183 708 b 189 703 188 708 189 707 l 111 264 l 557 703 b 572 708 563 708 565 708 l 581 708 b 585 701 586 708 588 706 l 293 413 l 472 8 b 468 0 474 3 475 0 l 460 0 b 451 6 456 0 453 0 l 276 399 l 106 235 l 65 6 b 60 0 64 1 64 0 l 51 0 "},"Ĺ":{"ha":711,"x_min":0,"x_max":0,"o":"m 158 1069 b 161 1081 154 1074 157 1078 l 378 1236 b 389 1236 383 1240 385 1240 l 393 1232 b 392 1222 397 1228 396 1225 l 171 1065 b 161 1065 165 1061 164 1063 m 67 0 b 61 6 63 0 61 1 l 233 981 b 239 986 235 985 235 986 l 249 986 b 254 981 253 986 254 985 l 85 19 l 575 19 b 581 14 579 19 582 18 l 579 6 b 574 0 578 1 578 0 l 67 0 "},"ĺ":{"ha":294,"x_min":0,"x_max":0,"o":"m 190 1085 b 193 1093 188 1088 189 1090 l 392 1222 b 403 1221 396 1225 399 1225 l 406 1218 b 403 1207 408 1215 410 1211 l 203 1081 b 194 1081 199 1078 197 1078 m 57 0 b 51 6 53 0 51 1 l 231 1022 b 236 1028 232 1026 232 1028 l 244 1028 b 250 1021 249 1028 251 1026 l 71 6 b 65 0 69 1 69 0 l 57 0 "},"Ļ":{"ha":711,"x_min":0,"x_max":0,"o":"m 67 0 b 61 6 63 0 61 1 l 233 981 b 239 986 235 985 235 986 l 249 986 b 254 981 253 986 254 985 l 85 19 l 575 19 b 581 14 579 19 582 18 l 579 6 b 574 0 578 1 578 0 l 67 0 m 199 -335 b 194 -328 193 -335 192 -333 l 296 -124 b 304 -118 297 -121 300 -118 l 311 -118 b 317 -125 317 -118 318 -121 l 214 -328 b 204 -335 211 -333 210 -335 l 199 -335 "},"ļ":{"ha":294,"x_min":0,"x_max":0,"o":"m 57 0 b 51 6 53 0 51 1 l 231 1022 b 236 1028 232 1026 232 1028 l 244 1028 b 250 1021 249 1028 251 1026 l 71 6 b 65 0 69 1 69 0 l 57 0 m -54 -335 b -58 -328 -60 -335 -61 -333 l 43 -124 b 51 -118 44 -121 47 -118 l 58 -118 b 64 -125 64 -118 65 -121 l -39 -328 b -49 -335 -42 -333 -43 -335 l -54 -335 "},"Ľ":{"ha":711,"x_min":0,"x_max":0,"o":"m 67 0 b 61 6 63 0 61 1 l 233 981 b 239 986 235 985 235 986 l 249 986 b 254 981 253 986 254 985 l 85 19 l 575 19 b 581 14 579 19 582 18 l 579 6 b 574 0 578 1 578 0 l 67 0 m 471 710 b 465 717 465 710 463 711 l 576 981 b 586 986 579 986 581 986 l 594 986 b 599 979 600 986 601 985 l 486 717 b 478 710 483 711 483 710 l 471 710 "},"ľ":{"ha":294,"x_min":0,"x_max":0,"o":"m 57 0 b 51 6 53 0 51 1 l 231 1022 b 236 1028 232 1026 232 1028 l 244 1028 b 250 1021 249 1028 251 1026 l 71 6 b 65 0 69 1 69 0 l 57 0 m 281 811 b 276 818 275 811 274 813 l 365 1022 b 374 1028 367 1025 369 1028 l 381 1028 b 386 1021 386 1028 388 1025 l 296 818 b 286 811 293 813 292 811 l 281 811 "},"Ŀ":{"ha":711,"x_min":0,"x_max":0,"o":"m 67 0 b 61 6 63 0 61 1 l 233 981 b 239 986 235 985 235 986 l 249 986 b 254 981 253 986 254 985 l 85 19 l 575 19 b 581 14 579 19 582 18 l 579 6 b 574 0 578 1 578 0 l 67 0 m 451 451 b 435 472 436 451 431 454 l 436 478 b 458 499 440 493 444 499 l 465 499 b 482 478 481 499 485 492 l 481 472 b 458 451 476 457 472 451 l 451 451 "},"ŀ":{"ha":392,"x_min":0,"x_max":0,"o":"m 57 0 b 51 6 53 0 51 1 l 231 1022 b 236 1028 232 1026 232 1028 l 244 1028 b 250 1021 249 1028 251 1026 l 71 6 b 65 0 69 1 69 0 l 57 0 m 268 494 b 251 515 253 494 247 497 l 253 521 b 275 542 257 536 261 542 l 282 542 b 299 521 297 542 301 535 l 297 515 b 275 494 293 500 289 494 l 268 494 "},"Ł":{"ha":743,"x_min":0,"x_max":0,"o":"m 88 0 b 81 6 82 0 81 1 l 157 435 l 15 365 b 6 367 13 364 7 363 l 3 375 b 6 383 1 379 3 382 l 161 460 l 253 981 b 260 986 254 985 254 986 l 268 986 b 274 981 272 986 274 985 l 183 469 l 557 653 b 565 650 563 656 564 654 l 568 643 b 564 635 569 639 568 638 l 179 446 l 104 19 l 594 19 b 600 14 599 19 601 18 l 599 6 b 593 0 597 1 597 0 l 88 0 "},"ł":{"ha":376,"x_min":0,"x_max":0,"o":"m 93 0 b 88 6 89 0 88 1 l 175 501 l 40 428 b 33 429 38 426 36 425 l 31 435 b 33 443 29 439 31 442 l 179 522 l 267 1022 b 272 1028 268 1026 268 1028 l 281 1028 b 286 1022 285 1028 288 1026 l 200 533 l 343 611 b 350 610 349 615 347 614 l 354 606 b 350 597 356 601 356 601 l 197 514 l 107 6 b 101 0 106 1 106 0 l 93 0 "},"Ń":{"ha":949,"x_min":0,"x_max":0,"o":"m 475 1069 b 478 1081 471 1074 474 1078 l 694 1236 b 706 1236 700 1240 701 1240 l 710 1232 b 708 1222 714 1228 713 1225 l 488 1065 b 478 1065 482 1061 481 1063 m 67 0 b 61 6 63 0 61 1 l 233 981 b 239 986 235 985 235 986 l 249 986 b 257 982 254 986 257 982 l 613 224 b 700 36 642 161 669 97 l 701 36 b 742 278 715 115 728 199 l 867 982 b 874 986 867 985 868 986 l 882 986 b 888 981 886 986 888 985 l 715 6 b 710 0 714 1 714 0 l 700 0 b 692 6 696 0 694 0 l 325 788 b 250 947 300 840 275 894 l 249 947 b 211 738 235 878 224 807 l 82 6 b 75 0 81 1 81 0 l 67 0 "},"ń":{"ha":753,"x_min":0,"x_max":0,"o":"m 360 860 b 363 871 357 865 358 868 l 581 1026 b 590 1026 586 1031 586 1031 l 594 1022 b 593 1013 599 1018 597 1015 l 372 856 b 363 856 367 851 365 853 m 47 0 b 42 6 44 0 42 1 l 149 608 b 207 683 156 650 168 667 b 433 728 256 704 326 728 b 622 464 597 728 651 631 l 542 6 b 536 0 540 1 540 0 l 528 0 b 522 6 524 0 522 1 l 603 463 b 431 710 631 621 582 710 b 213 665 336 710 257 688 b 168 608 179 650 172 633 l 61 6 b 56 0 60 1 60 0 l 47 0 "},"Ņ":{"ha":949,"x_min":0,"x_max":0,"o":"m 67 0 b 61 6 63 0 61 1 l 233 981 b 239 986 235 985 235 986 l 249 986 b 257 982 254 986 257 982 l 613 224 b 700 36 642 161 669 97 l 701 36 b 742 278 715 115 728 199 l 867 982 b 874 986 867 985 868 986 l 882 986 b 888 981 886 986 888 985 l 715 6 b 710 0 714 1 714 0 l 700 0 b 692 6 696 0 694 0 l 325 788 b 250 947 300 840 275 894 l 249 947 b 211 738 235 878 224 807 l 82 6 b 75 0 81 1 81 0 l 67 0 m 265 -335 b 261 -328 260 -335 258 -333 l 363 -124 b 371 -118 364 -121 367 -118 l 378 -118 b 383 -125 383 -118 385 -121 l 281 -328 b 271 -335 278 -333 276 -335 l 265 -335 "},"ņ":{"ha":753,"x_min":0,"x_max":0,"o":"m 47 0 b 42 6 44 0 42 1 l 149 608 b 207 683 156 650 168 667 b 433 728 256 704 326 728 b 622 464 597 728 651 631 l 542 6 b 536 0 540 1 540 0 l 528 0 b 522 6 524 0 522 1 l 603 463 b 431 710 631 621 582 710 b 213 665 336 710 257 688 b 168 608 179 650 172 633 l 61 6 b 56 0 60 1 60 0 l 47 0 m 193 -335 b 189 -328 188 -335 186 -333 l 290 -124 b 299 -118 292 -121 294 -118 l 306 -118 b 311 -125 311 -118 313 -121 l 208 -328 b 199 -335 206 -333 204 -335 l 193 -335 "},"Ň":{"ha":949,"x_min":0,"x_max":0,"o":"m 576 1065 b 563 1072 569 1065 568 1065 l 422 1236 b 426 1242 419 1239 419 1242 l 438 1242 b 447 1238 443 1242 444 1242 l 579 1083 l 767 1238 b 779 1242 772 1240 774 1242 l 792 1242 b 794 1236 799 1242 799 1239 l 593 1072 b 578 1065 583 1065 585 1065 l 576 1065 m 67 0 b 61 6 63 0 61 1 l 233 981 b 239 986 235 985 235 986 l 249 986 b 257 982 254 986 257 982 l 613 224 b 700 36 642 161 669 97 l 701 36 b 742 278 715 115 728 199 l 867 982 b 874 986 867 985 868 986 l 882 986 b 888 981 886 986 888 985 l 715 6 b 710 0 714 1 714 0 l 700 0 b 692 6 696 0 694 0 l 325 788 b 250 947 300 840 275 894 l 249 947 b 211 738 235 878 224 807 l 82 6 b 75 0 81 1 81 0 l 67 0 "},"ň":{"ha":753,"x_min":0,"x_max":0,"o":"m 425 844 b 411 851 418 844 417 844 l 271 1015 b 275 1021 268 1018 268 1021 l 286 1021 b 296 1017 292 1021 293 1021 l 428 863 l 615 1017 b 626 1021 619 1019 621 1021 l 640 1021 b 643 1015 646 1021 644 1018 l 442 851 b 426 844 432 844 433 844 l 425 844 m 47 0 b 42 6 44 0 42 1 l 149 608 b 207 683 156 650 168 667 b 433 728 256 704 326 728 b 622 464 597 728 651 631 l 542 6 b 536 0 540 1 540 0 l 528 0 b 522 6 524 0 522 1 l 603 463 b 431 710 631 621 582 710 b 213 665 336 710 257 688 b 168 608 179 650 172 633 l 61 6 b 56 0 60 1 60 0 l 47 0 "},"ŉ":{"ha":753,"x_min":0,"x_max":0,"o":"m 114 792 b 110 797 110 792 107 793 l 207 1006 b 221 1015 211 1014 214 1015 l 229 1015 b 236 1006 236 1015 239 1013 l 125 797 b 118 792 122 793 122 792 l 114 792 m 47 0 b 42 6 44 0 42 1 l 149 608 b 207 683 156 650 168 667 b 433 728 256 704 326 728 b 622 464 597 728 651 631 l 542 6 b 536 0 540 1 540 0 l 528 0 b 522 6 524 0 522 1 l 603 463 b 431 710 631 621 582 710 b 213 665 336 710 257 688 b 168 608 179 650 172 633 l 61 6 b 56 0 60 1 60 0 l 47 0 "},"Ŋ":{"ha":949,"x_min":0,"x_max":0,"o":"m 404 -319 b 399 -314 399 -319 397 -318 l 400 -306 b 404 -300 400 -300 401 -300 b 689 -31 582 -300 657 -206 l 694 0 l 325 788 b 250 947 300 840 275 894 l 249 947 b 211 738 235 878 224 807 l 82 6 b 75 0 81 1 81 0 l 67 0 b 61 6 63 0 61 1 l 233 981 b 239 986 235 985 235 986 l 249 986 b 257 982 254 986 257 982 l 611 224 b 700 36 642 163 669 97 l 701 36 b 743 278 715 115 729 199 l 867 982 b 874 986 868 985 868 986 l 882 986 b 888 981 886 986 888 985 l 708 -32 b 404 -319 676 -218 593 -319 "},"ŋ":{"ha":753,"x_min":0,"x_max":0,"o":"m 275 -319 b 269 -314 269 -319 268 -318 l 271 -306 b 275 -300 271 -301 272 -300 b 518 -18 464 -300 486 -200 l 603 463 b 431 710 631 622 582 710 b 213 665 336 710 257 688 b 168 608 179 650 172 633 l 61 6 b 56 0 60 1 60 0 l 47 0 b 42 6 44 0 42 1 l 149 608 b 207 683 156 650 168 667 b 433 728 256 704 326 728 b 622 464 597 728 651 629 l 538 -18 b 275 -319 503 -212 475 -319 "},"Ō":{"ha":908,"x_min":0,"x_max":0,"o":"m 417 1144 b 413 1150 413 1144 411 1146 l 414 1157 b 419 1163 414 1161 415 1163 l 725 1163 b 729 1157 729 1163 731 1161 l 729 1150 b 722 1144 728 1146 726 1144 l 417 1144 m 368 -19 b 86 317 144 -19 50 107 l 147 669 b 543 1006 185 878 322 1006 b 822 669 767 1006 858 882 l 761 317 b 368 -19 725 106 588 -19 m 365 0 b 740 318 571 0 704 114 l 801 668 b 546 986 836 869 751 986 b 168 668 338 986 203 865 l 107 318 b 365 0 72 119 161 0 "},"ō":{"ha":740,"x_min":0,"x_max":0,"o":"m 293 918 b 288 924 288 918 288 921 l 289 931 b 296 936 290 935 292 936 l 600 936 b 606 931 604 936 607 936 l 604 924 b 599 918 603 919 603 918 l 293 918 m 281 -19 b 58 211 125 -19 33 68 l 110 497 b 408 728 136 646 249 728 b 632 497 564 728 657 638 l 582 211 b 281 -19 557 68 436 -19 m 279 -1 b 563 210 425 -1 539 79 l 614 499 b 407 710 638 628 550 710 b 129 499 260 710 151 628 l 78 210 b 279 -1 54 81 139 -1 "},"Ŏ":{"ha":908,"x_min":0,"x_max":0,"o":"m 560 1079 b 410 1240 463 1079 410 1128 b 413 1246 410 1243 410 1246 l 421 1247 b 428 1242 426 1249 428 1247 b 561 1099 428 1147 476 1099 b 747 1244 647 1099 704 1136 b 753 1247 750 1247 750 1247 l 763 1246 b 765 1238 765 1246 767 1243 b 560 1079 724 1128 658 1079 m 368 -19 b 86 317 144 -19 50 107 l 147 669 b 543 1006 185 878 322 1006 b 822 669 767 1006 858 882 l 761 317 b 368 -19 725 106 588 -19 m 365 0 b 740 318 571 0 704 114 l 801 668 b 546 986 836 869 751 986 b 168 668 338 986 203 865 l 107 318 b 365 0 72 119 161 0 "},"ŏ":{"ha":740,"x_min":0,"x_max":0,"o":"m 432 851 b 281 1013 333 851 281 900 b 285 1018 281 1015 282 1018 l 294 1019 b 300 1013 299 1019 300 1018 b 433 871 300 914 346 871 b 618 1017 521 871 568 915 b 624 1019 619 1019 621 1019 l 635 1018 b 636 1010 638 1018 639 1015 b 432 851 583 904 529 851 m 281 -19 b 58 211 125 -19 33 68 l 110 497 b 408 728 136 646 249 728 b 632 497 564 728 657 638 l 582 211 b 281 -19 557 68 436 -19 m 279 -1 b 563 210 425 -1 539 79 l 614 499 b 407 710 638 628 550 710 b 129 499 260 710 151 628 l 78 210 b 279 -1 54 81 139 -1 "},"Ő":{"ha":908,"x_min":0,"x_max":0,"o":"m 401 1076 b 400 1083 397 1078 397 1081 l 565 1250 b 575 1254 569 1254 571 1256 l 583 1251 b 586 1244 590 1249 589 1247 l 417 1076 b 406 1074 414 1072 410 1072 m 613 1079 b 610 1086 608 1081 607 1083 l 779 1247 b 790 1251 783 1251 785 1253 l 799 1249 b 801 1242 804 1246 804 1244 l 628 1079 b 618 1076 624 1075 621 1075 m 368 -19 b 86 317 144 -19 50 107 l 147 669 b 543 1006 185 878 322 1006 b 822 669 767 1006 858 882 l 761 317 b 368 -19 725 106 588 -19 m 365 0 b 740 318 571 0 704 114 l 801 668 b 546 986 836 869 751 986 b 168 668 338 986 203 865 l 107 318 b 365 0 72 119 161 0 "},"ő":{"ha":740,"x_min":0,"x_max":0,"o":"m 283 842 b 282 849 279 844 279 846 l 447 1015 b 457 1019 451 1019 453 1021 l 465 1017 b 468 1010 471 1015 471 1013 l 300 843 b 289 839 296 839 293 836 m 494 842 b 493 849 490 844 490 846 l 658 1015 b 668 1019 663 1019 664 1021 l 676 1017 b 679 1010 682 1015 682 1013 l 511 843 b 500 839 507 839 504 836 m 281 -19 b 58 211 125 -19 33 68 l 110 497 b 408 728 136 646 249 728 b 632 497 564 728 657 638 l 582 211 b 281 -19 557 68 436 -19 m 279 -1 b 563 210 425 -1 539 79 l 614 499 b 407 710 638 628 550 710 b 129 499 260 710 151 628 l 78 210 b 279 -1 54 81 139 -1 "},"Œ":{"ha":1176,"x_min":0,"x_max":0,"o":"m 381 -21 b 86 317 153 -21 49 108 l 147 669 b 558 1007 185 878 329 1007 b 707 986 613 1007 667 999 l 1150 986 b 1156 981 1154 986 1156 985 l 1154 972 b 1149 967 1153 968 1153 967 l 718 967 l 638 508 l 1013 508 b 1018 503 1017 508 1019 507 l 1017 494 b 1011 489 1017 490 1015 489 l 633 489 l 551 19 l 999 19 b 1004 14 1003 19 1006 18 l 1003 6 b 997 0 1001 1 1001 0 l 536 0 b 381 -21 489 -12 432 -21 m 381 -1 b 529 18 449 -1 511 13 l 699 967 b 558 988 675 974 619 988 b 168 668 344 988 203 865 l 107 318 b 381 -1 72 121 169 -1 "},"œ":{"ha":1138,"x_min":0,"x_max":0,"o":"m 267 -19 b 58 210 132 -19 33 67 l 110 499 b 388 728 135 643 246 728 b 589 543 514 728 590 657 b 864 728 642 663 732 728 b 1057 517 999 728 1082 657 b 800 310 1033 381 928 310 b 561 339 726 310 635 319 l 540 224 b 732 -1 517 90 585 -1 b 982 160 840 -1 922 64 b 990 161 986 163 989 163 l 999 157 b 1000 149 1001 156 1001 153 b 732 -19 938 57 851 -19 b 518 146 599 -19 529 42 b 267 -19 474 44 385 -19 m 267 -1 b 517 208 399 -1 496 90 l 568 493 b 386 710 592 622 517 710 b 129 500 260 710 151 629 l 78 208 b 267 -1 54 79 147 -1 m 801 329 b 1038 519 908 329 1014 388 b 861 710 1060 646 983 710 b 579 443 711 710 613 610 l 563 358 b 801 329 644 335 732 329 "},"Ŕ":{"ha":881,"x_min":0,"x_max":0,"o":"m 429 1069 b 432 1081 425 1074 428 1078 l 649 1236 b 660 1236 654 1240 656 1240 l 664 1232 b 663 1222 668 1228 667 1225 l 442 1065 b 432 1065 436 1061 435 1063 m 67 0 b 61 6 63 0 61 1 l 233 981 b 239 986 235 985 235 986 l 611 986 b 815 718 767 986 844 890 b 521 456 785 553 672 458 b 626 321 578 432 607 390 l 717 7 b 713 0 718 3 718 0 l 706 0 b 696 6 699 0 697 1 l 607 310 b 418 456 579 408 532 456 l 161 456 l 82 6 b 76 0 81 1 81 0 l 67 0 m 519 475 b 794 721 663 475 767 563 b 608 967 822 878 754 967 l 251 967 l 165 475 "},"ŕ":{"ha":457,"x_min":0,"x_max":0,"o":"m 258 858 b 261 869 256 864 257 867 l 479 1025 b 489 1025 485 1029 485 1029 l 493 1021 b 492 1011 497 1017 496 1014 l 271 854 b 261 854 265 850 264 851 m 47 0 b 42 6 44 0 40 1 l 144 589 b 200 665 151 631 163 649 b 414 708 247 686 315 708 l 444 708 b 450 703 449 708 451 707 l 449 696 b 443 690 447 692 447 690 l 413 690 b 207 647 325 690 249 667 b 164 589 175 632 168 614 l 61 6 b 56 0 60 1 60 0 l 47 0 "},"Ŗ":{"ha":881,"x_min":0,"x_max":0,"o":"m 67 0 b 61 6 63 0 61 1 l 233 981 b 239 986 235 985 235 986 l 611 986 b 815 718 767 986 844 890 b 521 456 785 553 672 458 b 626 321 578 432 607 390 l 717 7 b 713 0 718 3 718 0 l 706 0 b 696 6 699 0 697 1 l 607 310 b 418 456 579 408 532 456 l 161 456 l 82 6 b 76 0 81 1 81 0 l 67 0 m 519 475 b 794 721 663 475 767 563 b 608 967 822 878 754 967 l 251 967 l 165 475 m 261 -335 b 257 -328 256 -335 254 -333 l 358 -124 b 367 -118 360 -121 363 -118 l 374 -118 b 379 -125 379 -118 381 -121 l 276 -328 b 267 -335 274 -333 272 -335 l 261 -335 "},"ŗ":{"ha":457,"x_min":0,"x_max":0,"o":"m 47 0 b 42 6 44 0 40 1 l 144 589 b 200 665 151 631 163 649 b 414 708 247 686 315 708 l 444 708 b 450 703 449 708 451 707 l 449 696 b 443 690 447 692 447 690 l 413 690 b 207 647 325 690 249 667 b 164 589 175 632 168 614 l 61 6 b 56 0 60 1 60 0 l 47 0 m -14 -335 b -18 -328 -19 -335 -21 -333 l 83 -124 b 92 -118 85 -121 88 -118 l 99 -118 b 104 -125 104 -118 106 -121 l 1 -328 b -8 -335 -1 -333 -3 -335 l -14 -335 "},"Ř":{"ha":881,"x_min":0,"x_max":0,"o":"m 531 1065 b 517 1072 524 1065 522 1065 l 376 1236 b 381 1242 374 1239 374 1242 l 392 1242 b 401 1238 397 1242 399 1242 l 533 1083 l 721 1238 b 733 1242 726 1240 728 1242 l 746 1242 b 749 1236 753 1242 753 1239 l 547 1072 b 532 1065 538 1065 539 1065 l 531 1065 m 67 0 b 61 6 63 0 61 1 l 233 981 b 239 986 235 985 235 986 l 611 986 b 815 718 767 986 844 890 b 521 456 785 553 672 458 b 626 321 578 432 607 390 l 717 7 b 713 0 718 3 718 0 l 706 0 b 696 6 699 0 697 1 l 607 310 b 418 456 579 408 532 456 l 161 456 l 82 6 b 76 0 81 1 81 0 l 67 0 m 519 475 b 794 721 663 475 767 563 b 608 967 822 878 754 967 l 251 967 l 165 475 "},"ř":{"ha":457,"x_min":0,"x_max":0,"o":"m 324 843 b 310 850 317 843 315 843 l 169 1014 b 174 1019 167 1017 167 1019 l 185 1019 b 194 1015 190 1019 192 1019 l 326 861 l 514 1015 b 525 1019 518 1018 519 1019 l 539 1019 b 542 1014 544 1019 543 1017 l 340 850 b 325 843 331 843 332 843 l 324 843 m 47 0 b 42 6 44 0 40 1 l 144 589 b 200 665 151 631 163 649 b 414 708 247 686 315 708 l 444 708 b 450 703 449 708 451 707 l 449 696 b 443 690 447 692 447 690 l 413 690 b 207 647 325 690 249 667 b 164 589 175 632 168 614 l 61 6 b 56 0 60 1 60 0 l 47 0 "},"Ś":{"ha":856,"x_min":0,"x_max":0,"o":"m 433 1082 b 436 1093 429 1086 432 1090 l 653 1249 b 664 1249 658 1253 660 1253 l 668 1244 b 667 1235 672 1240 671 1238 l 446 1078 b 436 1078 440 1074 439 1075 m 340 -19 b 40 224 168 -19 74 50 b 43 232 39 228 38 229 l 53 235 b 60 231 57 236 58 236 b 342 1 93 65 183 1 b 694 253 547 1 665 86 b 438 483 729 443 585 464 b 153 743 281 504 117 536 b 508 1006 182 907 317 1006 b 807 792 678 1006 765 944 b 804 785 810 789 810 786 l 796 782 b 788 785 792 781 790 779 b 507 985 747 926 667 985 b 172 740 328 985 200 893 b 442 504 139 551 290 524 b 715 250 596 485 753 458 b 340 -19 683 72 557 -19 "},"ś":{"ha":675,"x_min":0,"x_max":0,"o":"m 325 860 b 328 871 322 865 324 868 l 546 1026 b 556 1026 551 1031 551 1031 l 560 1022 b 558 1013 564 1018 563 1015 l 338 856 b 328 856 332 851 331 853 m 265 -19 b 25 160 138 -19 46 26 b 26 167 24 163 24 165 l 36 169 b 43 165 40 171 43 169 b 265 -1 63 43 149 -1 b 513 186 424 -1 513 61 b 328 342 513 289 444 324 b 106 522 214 360 101 385 b 369 728 110 675 210 729 b 589 575 513 726 574 669 b 589 568 589 572 590 569 l 582 565 b 574 569 575 563 575 565 b 368 710 556 656 500 708 b 124 522 217 711 128 656 b 329 360 119 401 222 378 b 532 186 453 339 532 307 b 265 -19 532 49 431 -19 "},"Ŝ":{"ha":856,"x_min":0,"x_max":0,"o":"m 350 1078 b 347 1083 343 1078 343 1081 l 547 1247 b 564 1254 557 1254 557 1254 l 565 1254 b 579 1247 572 1254 574 1254 l 719 1083 b 715 1078 722 1081 722 1078 l 704 1078 b 694 1082 699 1078 697 1078 l 563 1235 l 375 1082 b 363 1078 369 1079 368 1078 l 350 1078 m 340 -19 b 40 224 168 -19 74 50 b 43 232 39 228 38 229 l 53 235 b 60 231 57 236 58 236 b 342 1 93 65 183 1 b 694 253 547 1 665 86 b 438 483 729 443 585 464 b 153 743 281 504 117 536 b 508 1006 182 907 317 1006 b 807 792 678 1006 765 944 b 804 785 810 789 810 786 l 796 782 b 788 785 792 781 790 779 b 507 985 747 926 667 985 b 172 740 328 985 200 893 b 442 504 139 551 290 524 b 715 250 596 485 753 458 b 340 -19 683 72 557 -19 "},"ŝ":{"ha":675,"x_min":0,"x_max":0,"o":"m 218 844 b 215 850 213 844 211 847 l 415 1014 b 432 1021 425 1021 425 1021 l 433 1021 b 447 1014 440 1021 442 1021 l 588 850 b 583 844 590 847 590 844 l 572 844 b 563 849 567 844 565 844 l 431 1003 l 243 849 b 231 844 239 846 236 844 l 218 844 m 265 -19 b 25 160 138 -19 46 26 b 26 167 24 163 24 165 l 36 169 b 43 165 40 171 43 169 b 265 -1 63 43 149 -1 b 513 186 424 -1 513 61 b 328 342 513 289 444 324 b 106 522 214 360 101 385 b 369 728 110 675 210 729 b 589 575 513 726 574 669 b 589 568 589 572 590 569 l 582 565 b 574 569 575 563 575 565 b 368 710 556 656 500 708 b 124 522 217 711 128 656 b 329 360 119 401 222 378 b 532 186 453 339 532 307 b 265 -19 532 49 431 -19 "},"Ş":{"ha":856,"x_min":0,"x_max":0,"o":"m 807 792 b 804 785 810 789 810 786 l 796 782 b 787 785 792 781 790 779 b 507 985 747 926 667 985 b 172 740 328 985 200 893 b 442 504 139 551 290 524 b 715 250 596 485 753 458 b 378 -18 685 83 572 -8 l 324 -139 b 367 -132 335 -135 353 -132 b 460 -231 432 -132 471 -168 b 308 -351 444 -313 388 -351 b 217 -315 257 -351 231 -329 b 211 -301 211 -313 210 -310 l 213 -293 b 217 -292 213 -289 215 -288 b 310 -333 233 -310 261 -333 b 440 -228 375 -333 426 -304 b 364 -149 450 -176 415 -149 b 310 -160 346 -149 324 -154 b 300 -149 303 -163 297 -156 l 358 -19 b 340 -19 352 -19 346 -19 b 40 224 168 -19 74 50 b 43 232 39 228 38 229 l 53 235 b 60 231 57 236 58 236 b 342 1 93 65 183 1 b 694 253 547 1 665 86 b 438 483 729 443 585 464 b 153 743 281 504 117 536 b 508 1006 182 907 317 1006 b 807 792 678 1006 765 944 "},"ş":{"ha":675,"x_min":0,"x_max":0,"o":"m 201 -339 b 107 -300 150 -339 121 -314 b 104 -289 103 -296 103 -293 l 106 -283 b 113 -281 107 -279 110 -278 b 203 -321 131 -299 158 -321 b 326 -215 268 -321 321 -292 b 253 -135 331 -164 304 -135 b 201 -143 233 -135 215 -139 b 190 -133 193 -146 188 -139 l 242 -19 b 25 160 126 -14 44 35 b 26 167 24 163 24 165 l 36 169 b 43 165 40 171 43 169 b 265 -1 63 43 149 -1 b 513 186 424 -1 513 61 b 328 342 513 289 444 324 b 106 522 214 360 101 385 b 369 728 110 675 210 729 b 589 575 513 726 574 669 b 589 568 589 572 590 569 l 582 565 b 574 569 575 563 575 565 b 368 710 556 656 500 708 b 124 522 217 711 128 656 b 329 360 119 401 222 378 b 532 186 453 339 532 307 b 263 -19 532 53 436 -19 l 214 -124 b 260 -117 225 -119 243 -117 b 346 -218 319 -117 351 -156 b 201 -339 339 -300 281 -339 "},"Š":{"ha":856,"x_min":0,"x_max":0,"o":"m 535 1078 b 521 1085 528 1078 526 1078 l 381 1249 b 385 1254 378 1251 378 1254 l 396 1254 b 406 1250 401 1254 403 1254 l 538 1096 l 725 1250 b 738 1254 731 1253 732 1254 l 750 1254 b 753 1249 757 1254 757 1251 l 551 1085 b 536 1078 542 1078 543 1078 l 535 1078 m 340 -19 b 40 224 168 -19 74 50 b 43 232 39 228 38 229 l 53 235 b 60 231 57 236 58 236 b 342 1 93 65 183 1 b 694 253 547 1 665 86 b 438 483 729 443 585 464 b 153 743 281 504 117 536 b 508 1006 182 907 317 1006 b 807 792 678 1006 765 944 b 804 785 810 789 810 786 l 796 782 b 788 785 792 781 790 779 b 507 985 747 926 667 985 b 172 740 328 985 200 893 b 442 504 139 551 290 524 b 715 250 596 485 753 458 b 340 -19 683 72 557 -19 "},"š":{"ha":675,"x_min":0,"x_max":0,"o":"m 390 844 b 376 851 383 844 382 844 l 236 1015 b 240 1021 233 1018 233 1021 l 251 1021 b 261 1017 257 1021 258 1021 l 393 863 l 581 1017 b 592 1021 585 1019 586 1021 l 606 1021 b 608 1015 611 1021 610 1018 l 407 851 b 392 844 397 844 399 844 l 390 844 m 265 -19 b 25 160 138 -19 46 26 b 26 167 24 163 24 165 l 36 169 b 43 165 40 171 43 169 b 265 -1 63 43 149 -1 b 513 186 424 -1 513 61 b 328 342 513 289 444 324 b 106 522 214 360 101 385 b 369 728 110 675 210 729 b 589 575 513 726 574 669 b 589 568 589 572 590 569 l 582 565 b 574 569 575 563 575 565 b 368 710 556 656 500 708 b 124 522 217 711 128 656 b 329 360 119 401 222 378 b 532 186 453 339 532 307 b 265 -19 532 49 431 -19 "},"Ţ":{"ha":732,"x_min":0,"x_max":0,"o":"m 275 0 b 269 6 271 0 269 1 l 439 967 l 135 967 b 129 972 131 967 128 968 l 131 981 b 136 986 132 985 132 986 l 768 986 b 774 981 772 986 774 985 l 772 972 b 767 967 771 968 771 967 l 460 967 l 290 6 b 285 0 289 1 289 0 l 275 0 m 156 -335 b 151 -328 150 -335 149 -333 l 253 -124 b 261 -118 254 -121 257 -118 l 268 -118 b 274 -125 274 -118 275 -121 l 171 -328 b 161 -335 168 -333 167 -335 l 156 -335 "},"ţ":{"ha":450,"x_min":0,"x_max":0,"o":"m 453 708 b 458 703 457 708 458 707 l 457 696 b 450 690 456 692 454 690 l 238 690 l 160 257 b 326 19 125 60 168 19 b 333 14 332 19 335 18 l 332 6 b 326 0 331 1 329 0 b 249 5 297 0 272 1 l 190 -124 b 236 -117 201 -119 219 -117 b 322 -218 296 -117 328 -156 b 178 -339 315 -300 257 -339 b 83 -300 126 -339 97 -314 b 81 -289 79 -296 79 -293 l 82 -283 b 89 -281 83 -279 86 -278 b 179 -321 107 -299 135 -321 b 303 -215 244 -321 297 -292 b 229 -135 307 -164 281 -135 b 178 -143 210 -135 192 -139 b 167 -133 169 -146 164 -139 l 231 8 b 142 257 136 29 113 95 l 218 690 l 71 690 b 67 696 67 690 65 692 l 68 703 b 74 708 68 707 69 708 l 221 708 l 250 869 b 256 875 250 874 251 875 l 264 875 b 269 869 268 875 269 874 l 240 708 l 453 708 "},"Ť":{"ha":732,"x_min":0,"x_max":0,"o":"m 468 1065 b 454 1072 461 1065 460 1065 l 314 1236 b 318 1242 311 1239 311 1242 l 329 1242 b 339 1238 335 1242 336 1242 l 471 1083 l 658 1238 b 671 1242 664 1240 665 1242 l 683 1242 b 686 1236 690 1242 690 1239 l 485 1072 b 469 1065 475 1065 476 1065 l 468 1065 m 275 0 b 269 6 271 0 269 1 l 439 967 l 135 967 b 129 972 131 967 128 968 l 131 981 b 136 986 132 985 132 986 l 768 986 b 774 981 772 986 774 985 l 772 972 b 767 967 771 968 771 967 l 460 967 l 290 6 b 285 0 289 1 289 0 l 275 0 "},"ť":{"ha":450,"x_min":0,"x_max":0,"o":"m 378 811 b 374 818 372 811 371 813 l 463 1022 b 471 1028 464 1025 467 1028 l 478 1028 b 483 1021 483 1028 485 1025 l 393 818 b 383 811 390 813 389 811 l 378 811 m 326 0 b 142 257 153 0 106 50 l 218 690 l 71 690 b 67 696 67 690 65 692 l 68 703 b 74 708 68 707 69 708 l 221 708 l 250 869 b 256 875 250 874 251 875 l 264 875 b 269 869 268 875 269 874 l 240 708 l 453 708 b 458 703 457 708 458 707 l 457 696 b 450 690 456 692 454 690 l 238 690 l 160 257 b 326 19 125 60 168 19 b 333 14 332 19 335 18 l 332 6 b 326 0 331 1 329 0 "},"Ŧ":{"ha":718,"x_min":0,"x_max":0,"o":"m 268 0 b 263 6 264 0 263 1 l 342 451 l 128 451 b 122 460 122 451 121 453 l 122 464 b 131 471 124 469 126 471 l 344 471 l 432 967 l 135 967 b 129 972 131 967 128 968 l 131 981 b 136 986 132 985 132 986 l 754 986 b 760 981 758 986 760 985 l 758 972 b 753 967 757 968 757 967 l 453 967 l 365 471 l 579 471 b 585 464 585 471 586 469 l 585 460 b 576 451 583 453 582 451 l 363 451 l 283 6 b 278 0 282 1 282 0 l 268 0 "},"ŧ":{"ha":450,"x_min":0,"x_max":0,"o":"m 326 0 b 142 257 129 0 110 78 l 163 374 l 44 374 b 38 381 40 374 36 375 l 39 385 b 46 392 40 390 40 392 l 165 392 l 218 690 l 71 690 b 67 696 67 690 65 692 l 68 703 b 74 708 68 707 69 708 l 221 708 l 250 869 b 256 875 250 874 251 875 l 264 875 b 269 869 268 875 269 874 l 240 708 l 453 708 b 458 703 457 708 458 707 l 457 696 b 450 690 456 692 454 690 l 238 690 l 185 392 l 368 392 b 375 385 374 392 376 390 l 374 381 b 367 374 372 375 372 374 l 182 374 l 160 257 b 326 19 122 61 167 19 b 333 14 332 19 333 18 l 332 6 b 326 0 331 1 329 0 "},"Ũ":{"ha":936,"x_min":0,"x_max":0,"o":"m 393 1081 b 388 1088 389 1081 388 1082 b 499 1207 400 1157 444 1207 b 668 1099 588 1207 592 1099 b 757 1203 714 1099 747 1143 b 763 1207 758 1206 758 1207 l 771 1207 b 776 1200 775 1207 776 1206 b 667 1081 764 1132 725 1081 b 497 1189 579 1081 576 1189 b 407 1085 456 1189 418 1146 b 401 1081 407 1082 406 1081 l 393 1081 m 379 -19 b 111 333 156 -19 74 119 l 225 981 b 231 986 226 985 226 986 l 240 986 b 246 981 244 986 246 985 l 132 333 b 379 0 96 132 172 0 b 749 333 589 0 713 132 l 863 981 b 868 986 864 985 864 986 l 878 986 b 883 981 882 986 883 985 l 769 333 b 379 -19 731 119 600 -19 "},"ũ":{"ha":753,"x_min":0,"x_max":0,"o":"m 264 868 b 258 875 260 868 257 869 b 368 994 275 943 301 994 b 538 886 458 994 465 886 b 628 990 586 886 628 931 b 633 994 628 993 629 994 l 642 994 b 646 988 646 994 646 993 b 538 868 643 917 597 868 b 368 976 451 868 442 976 b 278 872 313 976 294 928 b 272 868 276 869 276 868 l 264 868 m 271 -19 b 82 244 106 -19 53 79 l 163 703 b 168 708 163 707 164 708 l 176 708 b 182 703 181 708 182 707 l 101 246 b 272 0 72 86 122 0 b 493 43 374 0 447 21 b 536 100 525 58 532 75 l 643 703 b 649 708 643 707 644 708 l 657 708 b 663 703 660 708 663 707 l 556 100 b 497 25 549 58 536 42 b 271 -19 447 4 382 -19 "},"Ū":{"ha":936,"x_min":0,"x_max":0,"o":"m 428 1131 b 424 1136 424 1131 422 1132 l 425 1143 b 431 1149 425 1147 426 1149 l 736 1149 b 740 1143 740 1149 742 1147 l 740 1136 b 733 1131 739 1132 738 1131 l 428 1131 m 379 -19 b 111 333 156 -19 74 119 l 225 981 b 231 986 226 985 226 986 l 240 986 b 246 981 244 986 246 985 l 132 333 b 379 0 96 132 172 0 b 749 333 589 0 713 132 l 863 981 b 868 986 864 985 864 986 l 878 986 b 883 981 882 986 883 985 l 769 333 b 379 -19 731 119 600 -19 "},"ū":{"ha":753,"x_min":0,"x_max":0,"o":"m 299 918 b 293 924 293 918 293 921 l 294 931 b 301 936 296 935 297 936 l 606 936 b 611 931 610 936 613 936 l 610 924 b 604 918 608 919 608 918 l 299 918 m 271 -19 b 82 244 106 -19 53 79 l 163 703 b 168 708 163 707 164 708 l 176 708 b 182 703 181 708 182 707 l 101 246 b 272 0 72 86 122 0 b 493 43 374 0 447 21 b 536 100 525 58 532 75 l 643 703 b 649 708 643 707 644 708 l 657 708 b 663 703 660 708 663 707 l 556 100 b 497 25 549 58 536 42 b 271 -19 447 4 382 -19 "},"Ŭ":{"ha":936,"x_min":0,"x_max":0,"o":"m 571 1065 b 421 1226 474 1065 421 1114 b 424 1232 421 1229 421 1232 l 432 1233 b 439 1228 438 1235 439 1233 b 572 1085 439 1133 488 1085 b 758 1231 658 1085 715 1122 b 764 1233 761 1233 761 1233 l 774 1232 b 776 1224 776 1232 778 1229 b 571 1065 735 1114 669 1065 m 379 -19 b 111 333 156 -19 74 119 l 225 981 b 231 986 226 985 226 986 l 240 986 b 246 981 244 986 246 985 l 132 333 b 379 0 96 132 172 0 b 749 333 589 0 713 132 l 863 981 b 868 986 864 985 864 986 l 878 986 b 883 981 882 986 883 985 l 769 333 b 379 -19 731 119 600 -19 "},"ŭ":{"ha":753,"x_min":0,"x_max":0,"o":"m 438 851 b 286 1013 339 851 286 900 b 290 1018 286 1015 288 1018 l 300 1019 b 306 1013 304 1019 306 1018 b 439 871 306 914 351 871 b 624 1017 526 871 574 915 b 629 1019 625 1019 626 1019 l 640 1018 b 642 1010 643 1018 644 1015 b 438 851 589 904 535 851 m 271 -19 b 82 244 106 -19 53 79 l 163 703 b 168 708 163 707 164 708 l 176 708 b 182 703 181 708 182 707 l 101 246 b 272 0 72 86 122 0 b 493 43 374 0 447 21 b 536 100 525 58 532 75 l 643 703 b 649 708 643 707 644 708 l 657 708 b 663 703 660 708 663 707 l 556 100 b 497 25 549 58 536 42 b 271 -19 447 4 382 -19 "},"Ů":{"ha":936,"x_min":0,"x_max":0,"o":"m 571 1051 b 475 1175 500 1051 461 1100 b 611 1296 488 1247 542 1296 b 703 1172 679 1296 717 1247 b 571 1051 690 1100 638 1051 m 571 1068 b 688 1175 629 1068 675 1110 b 611 1279 699 1238 667 1279 b 490 1172 550 1279 501 1238 b 571 1068 479 1110 513 1068 m 379 -19 b 111 333 156 -19 74 119 l 225 981 b 231 986 226 985 226 986 l 240 986 b 246 981 244 986 246 985 l 132 333 b 379 0 96 132 172 0 b 749 333 589 0 713 132 l 863 981 b 868 986 864 985 864 986 l 878 986 b 883 981 882 986 883 985 l 769 333 b 379 -19 731 119 600 -19 "},"ů":{"ha":753,"x_min":0,"x_max":0,"o":"m 435 806 b 336 929 363 806 322 854 b 472 1050 350 1001 403 1050 b 565 926 540 1050 578 1001 b 435 806 553 854 501 806 m 436 822 b 549 929 493 822 538 864 b 472 1033 560 992 528 1033 b 354 926 413 1033 365 989 b 436 822 343 864 376 822 m 271 -19 b 82 244 106 -19 53 79 l 163 703 b 168 708 163 707 164 708 l 176 708 b 182 703 181 708 182 707 l 101 246 b 272 0 72 86 122 0 b 493 43 374 0 447 21 b 536 100 525 58 532 75 l 643 703 b 649 708 643 707 644 708 l 657 708 b 663 703 660 708 663 707 l 556 100 b 497 25 549 58 536 42 b 271 -19 447 4 382 -19 "},"Ű":{"ha":936,"x_min":0,"x_max":0,"o":"m 413 1063 b 411 1069 408 1064 408 1067 l 576 1236 b 586 1240 581 1240 582 1242 l 594 1238 b 597 1231 601 1235 600 1233 l 428 1063 b 417 1060 425 1058 421 1058 m 624 1065 b 621 1072 619 1067 618 1069 l 790 1233 b 801 1238 794 1238 796 1239 l 810 1235 b 813 1228 815 1232 815 1231 l 639 1065 b 629 1063 635 1061 632 1061 m 379 -19 b 111 333 156 -19 74 119 l 225 981 b 231 986 226 985 226 986 l 240 986 b 246 981 244 986 246 985 l 132 333 b 379 0 96 132 172 0 b 749 333 589 0 713 132 l 863 981 b 868 986 864 985 864 986 l 878 986 b 883 981 882 986 883 985 l 769 333 b 379 -19 731 119 600 -19 "},"ű":{"ha":753,"x_min":0,"x_max":0,"o":"m 289 842 b 288 849 285 844 285 846 l 453 1015 b 463 1019 457 1019 458 1021 l 471 1017 b 474 1010 476 1015 476 1013 l 306 843 b 294 839 301 839 299 836 m 500 842 b 499 849 496 844 496 846 l 664 1015 b 674 1019 668 1019 669 1021 l 682 1017 b 685 1010 688 1015 688 1013 l 517 843 b 506 839 513 839 510 836 m 271 -19 b 82 244 106 -19 53 79 l 163 703 b 168 708 163 707 164 708 l 176 708 b 182 703 181 708 182 707 l 101 246 b 272 0 72 86 122 0 b 493 43 374 0 447 21 b 536 100 525 58 532 75 l 643 703 b 649 708 643 707 644 708 l 657 708 b 663 703 660 708 663 707 l 556 100 b 497 25 549 58 536 42 b 271 -19 447 4 382 -19 "},"Ų":{"ha":936,"x_min":0,"x_max":0,"o":"m 442 -344 b 372 -285 406 -344 378 -329 b 551 18 363 -208 433 -100 b 379 -19 501 -6 444 -19 b 111 333 156 -19 74 119 l 225 981 b 231 986 226 985 226 986 l 240 986 b 246 981 244 986 246 985 l 132 333 b 379 0 96 132 172 0 b 749 333 589 0 713 132 l 863 981 b 868 986 864 985 864 986 l 878 986 b 883 981 882 986 883 985 l 769 333 b 614 50 747 211 688 113 b 392 -279 486 -57 383 -197 b 443 -325 396 -317 415 -325 b 543 -275 478 -325 513 -307 b 549 -276 544 -274 547 -274 l 553 -287 b 551 -293 553 -289 554 -290 b 442 -344 513 -332 467 -344 "},"ų":{"ha":753,"x_min":0,"x_max":0,"o":"m 385 -344 b 318 -282 354 -344 322 -329 b 485 19 313 -212 368 -108 b 271 -19 438 0 372 -19 b 82 244 106 -19 53 79 l 163 703 b 168 708 163 707 164 708 l 176 708 b 182 703 181 708 182 707 l 101 246 b 272 0 72 86 122 0 b 493 43 374 0 447 21 b 536 100 525 58 532 75 l 643 703 b 649 708 643 707 644 708 l 657 708 b 663 703 660 708 663 707 l 556 100 b 531 43 551 74 544 57 b 338 -282 415 -74 328 -207 b 390 -325 342 -314 361 -325 b 489 -275 424 -325 458 -307 b 494 -278 492 -274 493 -274 l 499 -287 b 494 -296 499 -292 499 -292 b 385 -344 454 -332 419 -344 "},"Ŵ":{"ha":1217,"x_min":0,"x_max":0,"o":"m 526 1065 b 524 1071 519 1065 519 1068 l 724 1235 b 740 1242 733 1242 733 1242 l 742 1242 b 756 1235 749 1242 750 1242 l 896 1071 b 892 1065 899 1068 899 1065 l 881 1065 b 871 1069 875 1065 874 1065 l 739 1222 l 551 1069 b 539 1065 546 1067 544 1065 l 526 1065 m 247 0 b 239 7 242 0 239 1 l 147 981 b 151 986 147 985 147 986 l 161 986 b 169 981 167 986 168 985 l 246 143 b 254 33 250 107 253 69 l 257 33 b 306 142 272 69 290 106 l 676 953 b 686 958 679 957 682 958 l 696 958 b 703 953 700 958 703 957 l 788 139 b 797 33 790 104 794 68 l 800 33 b 844 138 814 68 829 103 l 1219 981 b 1228 986 1221 985 1222 986 l 1238 986 b 1242 981 1242 986 1243 985 l 807 7 b 797 0 806 1 803 0 l 789 0 b 781 7 783 0 781 1 l 697 810 b 686 924 693 847 690 886 l 685 924 b 632 810 668 886 650 847 l 265 7 b 256 0 264 1 261 0 l 247 0 "},"ŵ":{"ha":1008,"x_min":0,"x_max":0,"o":"m 383 843 b 381 849 378 843 376 846 l 581 1013 b 597 1019 590 1019 590 1019 l 599 1019 b 613 1013 606 1019 607 1019 l 753 849 b 749 843 756 846 756 843 l 738 843 b 728 847 732 843 731 843 l 596 1001 l 408 847 b 396 843 404 844 401 843 l 383 843 m 193 -8 b 188 -1 189 -8 189 -8 l 100 701 b 106 708 99 706 99 708 l 113 708 b 119 701 119 708 119 706 l 189 140 b 203 19 194 101 197 63 l 204 19 b 263 143 222 61 244 104 l 522 675 b 531 681 525 679 525 681 l 539 681 b 547 675 544 681 546 679 l 619 153 b 636 19 625 111 631 65 l 638 19 b 696 147 657 64 676 106 l 963 703 b 971 708 964 708 965 708 l 978 708 b 983 701 983 708 985 706 l 646 -1 b 638 -8 644 -6 642 -8 l 628 -8 b 621 -1 622 -8 621 -6 l 544 558 b 531 649 539 589 535 618 l 529 649 b 485 558 515 618 500 589 l 211 -1 b 204 -8 208 -8 210 -8 l 193 -8 "},"Ŷ":{"ha":843,"x_min":0,"x_max":0,"o":"m 339 1065 b 336 1071 332 1065 332 1068 l 536 1235 b 553 1242 546 1242 546 1242 l 554 1242 b 568 1235 561 1242 563 1242 l 708 1071 b 704 1065 711 1068 711 1065 l 693 1065 b 683 1069 688 1065 686 1065 l 551 1222 l 364 1069 b 351 1065 358 1067 357 1065 l 339 1065 m 331 0 b 325 6 326 0 325 1 l 397 413 l 136 981 b 140 986 136 983 136 986 l 151 986 b 160 981 158 986 158 985 l 411 432 l 854 981 b 865 986 857 985 860 986 l 876 986 b 881 981 881 986 882 983 l 418 411 l 346 6 b 340 0 344 1 344 0 l 331 0 "},"ŷ":{"ha":757,"x_min":0,"x_max":0,"o":"m 253 843 b 250 849 247 843 246 846 l 450 1013 b 467 1019 460 1019 460 1019 l 468 1019 b 482 1013 475 1019 476 1019 l 622 849 b 618 843 625 846 625 843 l 607 843 b 597 847 601 843 600 843 l 465 1001 l 278 847 b 265 843 274 844 271 843 l 253 843 m 219 -361 b 14 -194 89 -361 36 -293 b 17 -186 13 -192 11 -189 l 22 -183 b 31 -187 28 -181 31 -183 b 221 -342 54 -276 101 -342 b 508 -62 392 -342 478 -233 l 526 38 b 271 -19 475 17 394 -19 b 82 244 106 -19 53 79 l 163 703 b 168 708 163 707 164 708 l 176 708 b 182 703 181 708 182 707 l 101 246 b 272 -1 72 86 122 -1 b 528 57 392 -1 481 36 l 643 703 b 649 708 643 707 644 708 l 657 708 b 663 703 661 708 663 707 l 526 -62 b 219 -361 494 -244 404 -361 "},"Ÿ":{"ha":843,"x_min":0,"x_max":0,"o":"m 415 1126 b 400 1142 401 1126 399 1129 l 401 1150 b 421 1165 403 1161 407 1165 l 428 1165 b 442 1150 439 1165 443 1161 l 440 1142 b 422 1126 439 1129 433 1126 l 415 1126 m 647 1126 b 632 1142 633 1126 631 1129 l 633 1150 b 653 1165 635 1161 639 1165 l 660 1165 b 674 1150 671 1165 675 1161 l 672 1142 b 654 1126 671 1129 665 1126 l 647 1126 m 331 0 b 325 6 326 0 325 1 l 397 413 l 136 981 b 140 986 136 983 136 986 l 151 986 b 160 981 158 986 158 985 l 411 432 l 854 981 b 865 986 857 985 860 986 l 876 986 b 881 981 881 986 882 983 l 418 411 l 346 6 b 340 0 344 1 344 0 l 331 0 "},"Ź":{"ha":750,"x_min":0,"x_max":0,"o":"m 379 1069 b 382 1081 375 1074 378 1078 l 599 1236 b 610 1236 604 1240 606 1240 l 614 1232 b 613 1222 618 1228 617 1225 l 392 1065 b 382 1065 386 1061 385 1063 m -11 0 b -17 6 -15 0 -17 1 l -15 13 b -10 26 -14 18 -14 21 l 726 967 l 165 967 b 160 972 161 967 158 968 l 161 981 b 167 986 163 985 163 986 l 750 986 b 756 981 754 986 756 985 l 754 975 b 750 964 753 969 753 968 l 11 21 l 599 21 b 603 15 603 21 604 19 l 601 6 b 596 0 600 1 600 0 l -11 0 "},"ź":{"ha":606,"x_min":0,"x_max":0,"o":"m 289 858 b 292 869 286 864 288 867 l 510 1025 b 519 1025 515 1029 515 1029 l 524 1021 b 522 1011 528 1017 526 1014 l 301 854 b 292 854 296 850 294 851 m -11 0 b -17 6 -15 0 -17 1 l -15 13 b -11 22 -14 17 -15 17 l 538 690 l 114 690 b 111 696 111 690 110 692 l 113 703 b 117 708 113 707 114 708 l 560 708 b 565 703 564 708 565 707 l 564 696 b 558 685 563 690 561 689 l 10 18 l 447 18 b 451 13 450 18 451 17 l 450 6 b 446 0 449 1 449 0 l -11 0 "},"Ż":{"ha":750,"x_min":0,"x_max":0,"o":"m 488 1119 b 474 1136 475 1119 471 1122 l 475 1142 b 493 1158 478 1154 481 1158 l 499 1158 b 514 1142 511 1158 517 1154 l 513 1136 b 493 1119 510 1124 506 1119 l 488 1119 m -11 0 b -17 6 -15 0 -17 1 l -15 13 b -10 26 -14 18 -14 21 l 726 967 l 165 967 b 160 972 161 967 158 968 l 161 981 b 167 986 163 985 163 986 l 750 986 b 756 981 754 986 756 985 l 754 975 b 750 964 753 969 753 968 l 11 21 l 599 21 b 603 15 603 21 604 19 l 601 6 b 596 0 600 1 600 0 l -11 0 "},"ż":{"ha":606,"x_min":0,"x_max":0,"o":"m 375 918 b 358 939 360 918 354 921 l 360 944 b 382 965 364 960 368 965 l 389 965 b 406 944 404 965 408 958 l 404 939 b 382 918 400 924 396 918 l 375 918 m -11 0 b -17 6 -15 0 -17 1 l -15 13 b -11 22 -14 17 -15 17 l 538 690 l 114 690 b 111 696 111 690 110 692 l 113 703 b 117 708 113 707 114 708 l 560 708 b 565 703 564 708 565 707 l 564 696 b 558 685 563 690 561 689 l 10 18 l 447 18 b 451 13 450 18 451 17 l 450 6 b 446 0 449 1 449 0 l -11 0 "},"Ž":{"ha":750,"x_min":0,"x_max":0,"o":"m 481 1065 b 467 1072 474 1065 472 1065 l 326 1236 b 331 1242 324 1239 324 1242 l 342 1242 b 351 1238 347 1242 349 1242 l 483 1083 l 671 1238 b 683 1242 676 1240 678 1242 l 696 1242 b 699 1236 703 1242 703 1239 l 497 1072 b 482 1065 488 1065 489 1065 l 481 1065 m -11 0 b -17 6 -15 0 -17 1 l -15 13 b -10 26 -14 18 -14 21 l 726 967 l 165 967 b 160 972 161 967 158 968 l 161 981 b 167 986 163 985 163 986 l 750 986 b 756 981 754 986 756 985 l 754 975 b 750 964 753 969 753 968 l 11 21 l 599 21 b 603 15 603 21 604 19 l 601 6 b 596 0 600 1 600 0 l -11 0 "},"ž":{"ha":606,"x_min":0,"x_max":0,"o":"m 354 843 b 340 850 347 843 346 843 l 200 1014 b 204 1019 197 1017 197 1019 l 215 1019 b 225 1015 221 1019 222 1019 l 357 861 l 544 1015 b 556 1019 549 1018 550 1019 l 569 1019 b 572 1014 575 1019 574 1017 l 371 850 b 356 843 361 843 363 843 l 354 843 m -11 0 b -17 6 -15 0 -17 1 l -15 13 b -11 22 -14 17 -15 17 l 538 690 l 114 690 b 111 696 111 690 110 692 l 113 703 b 117 708 113 707 114 708 l 560 708 b 565 703 564 708 565 707 l 564 696 b 558 685 563 690 561 689 l 10 18 l 447 18 b 451 13 450 18 451 17 l 450 6 b 446 0 449 1 449 0 l -11 0 "},"ſ":{"ha":321,"x_min":0,"x_max":0,"o":"m 103 0 b 97 6 99 0 97 1 l 218 690 l 76 690 b 72 696 72 690 71 692 l 74 703 b 79 708 74 707 75 708 l 221 708 l 232 767 b 497 1028 268 974 331 1028 b 503 1022 501 1028 504 1026 l 501 1014 b 496 1008 501 1010 500 1008 b 251 767 339 1008 286 964 l 117 6 b 111 0 115 1 115 0 l 103 0 "},"ƒ":{"ha":592,"x_min":0,"x_max":0,"o":"m -153 -306 b -160 -300 -158 -306 -160 -304 l -158 -292 b -153 -286 -157 -287 -156 -286 b 126 -36 6 -286 85 -186 l 269 488 l 65 488 b 60 493 61 488 60 489 l 61 501 b 67 507 63 506 63 507 l 276 507 l 346 764 b 644 1028 389 921 474 1028 b 650 1022 649 1028 651 1026 l 649 1014 b 643 1008 649 1010 647 1008 b 368 761 485 1008 410 911 l 299 507 l 514 507 b 519 501 518 507 521 506 l 518 493 b 513 488 517 489 517 488 l 290 488 l 146 -39 b -153 -306 104 -196 15 -306 "},"Ǻ":{"ha":861,"x_min":0,"x_max":0,"o":"m 476 1211 b 468 1213 469 1208 469 1211 l 464 1218 b 471 1226 463 1222 465 1224 l 692 1333 b 704 1332 699 1336 701 1338 l 706 1326 b 704 1319 708 1322 710 1322 l 476 1211 m -36 0 b -42 6 -43 0 -43 3 l 497 974 b 418 1082 440 982 410 1019 b 544 1185 425 1139 476 1185 b 646 1079 613 1185 654 1139 b 533 974 638 1019 594 982 l 731 6 b 725 0 731 3 732 0 l 719 0 b 708 6 713 0 710 1 l 638 363 l 179 363 l -19 6 b -31 0 -21 1 -24 0 l -36 0 m 517 989 b 631 1082 574 989 624 1022 b 544 1168 636 1129 601 1168 b 433 1079 482 1168 439 1129 b 517 989 426 1022 457 989 m 632 382 l 524 926 b 517 969 521 940 519 956 l 515 969 b 493 926 508 956 500 940 l 190 382 "},"ǻ":{"ha":646,"x_min":0,"x_max":0,"o":"m 321 1103 b 325 1111 319 1108 321 1110 l 551 1173 b 560 1171 557 1175 557 1175 l 563 1167 b 560 1161 566 1163 564 1162 l 331 1098 b 323 1100 326 1096 325 1097 m 403 814 b 304 937 332 814 292 862 b 440 1058 318 1010 371 1058 b 533 935 508 1058 546 1010 b 403 814 521 862 469 814 m 404 831 b 517 937 461 831 506 872 b 440 1042 528 1000 496 1042 b 321 935 379 1042 332 1000 b 404 831 310 872 344 831 m 247 -19 b 33 151 88 -19 33 43 b 318 392 33 324 147 392 b 539 372 414 392 510 378 b 563 533 558 482 563 504 b 374 710 563 632 515 710 b 133 583 257 710 188 656 b 125 581 131 581 129 579 l 118 585 b 118 594 114 587 115 590 b 376 728 183 682 257 728 b 582 536 531 728 582 643 b 510 96 582 493 575 469 b 446 17 501 47 488 35 b 247 -19 390 -7 326 -19 m 250 -1 b 440 33 321 -1 382 10 b 490 96 476 47 483 56 l 536 354 b 315 374 507 360 410 374 b 53 154 156 374 53 307 b 250 -1 53 51 106 -1 "},"Ǽ":{"ha":1110,"x_min":0,"x_max":0,"o":"m 790 1069 b 793 1081 786 1074 789 1078 l 1010 1236 b 1021 1236 1015 1240 1017 1240 l 1025 1232 b 1024 1222 1029 1228 1028 1225 l 803 1065 b 793 1065 797 1061 796 1063 m -60 0 b -65 6 -67 0 -67 3 l 664 979 b 678 986 668 985 672 986 l 1085 986 b 1090 981 1089 986 1090 985 l 1089 972 b 1083 967 1088 968 1088 967 l 690 967 l 610 508 l 944 508 b 950 503 949 508 951 507 l 949 494 b 943 489 949 490 947 489 l 606 489 l 524 19 l 933 19 b 939 14 938 19 940 18 l 938 6 b 932 0 936 1 936 0 l 507 0 b 500 6 501 0 499 1 l 549 281 l 164 281 l -40 6 b -50 0 -43 1 -44 0 l -60 0 m 551 300 l 668 956 l 181 300 "},"ǽ":{"ha":1072,"x_min":0,"x_max":0,"o":"m 515 858 b 518 869 513 864 514 867 l 736 1025 b 746 1025 742 1029 742 1029 l 750 1021 b 749 1011 754 1017 753 1014 l 528 854 b 518 854 522 850 521 851 m 239 -19 b 35 182 107 -19 22 26 b 322 392 46 325 144 392 b 494 369 400 392 468 375 b 513 467 500 401 507 435 b 369 710 535 597 538 710 b 132 582 264 710 194 668 b 125 581 131 581 128 579 l 118 585 b 117 592 115 588 115 589 b 371 728 181 683 257 728 b 540 561 508 728 543 657 b 788 728 585 667 661 728 b 994 556 922 728 999 663 b 710 310 988 368 844 310 b 510 346 638 310 582 322 l 492 243 b 649 -1 465 94 499 -1 b 917 160 767 -1 854 61 b 925 161 919 163 922 163 l 933 156 b 933 149 935 154 935 151 b 649 -19 871 56 781 -19 b 469 99 540 -19 489 25 b 239 -19 432 42 367 -19 m 710 329 b 975 557 915 329 975 456 b 786 710 975 640 928 710 b 528 444 628 710 556 606 l 514 365 b 710 329 586 344 640 329 m 239 -1 b 465 128 390 -1 447 94 b 472 243 463 158 465 201 l 492 351 b 319 374 464 357 396 374 b 54 182 157 374 67 310 b 239 -1 40 40 124 -1 "},"Ǿ":{"ha":908,"x_min":0,"x_max":0,"o":"m 454 1083 b 457 1094 450 1088 453 1092 l 674 1250 b 685 1250 679 1254 681 1254 l 689 1246 b 688 1236 693 1242 692 1239 l 467 1079 b 457 1079 461 1075 460 1076 m 29 -62 b 26 -58 25 -62 25 -61 l 128 74 b 86 317 82 132 68 214 l 147 669 b 544 1006 185 878 324 1006 b 775 921 651 1006 728 976 l 863 1035 b 871 1039 865 1039 867 1039 l 885 1039 b 888 1035 888 1039 889 1038 l 788 906 b 822 669 828 847 840 768 l 761 317 b 367 -19 725 106 589 -19 b 140 58 263 -19 189 10 l 51 -58 b 42 -62 49 -62 49 -62 l 29 -62 m 763 904 b 544 986 718 958 650 986 b 168 668 336 986 203 865 l 107 318 b 142 92 90 224 101 147 m 367 0 b 740 318 576 0 707 121 l 801 668 b 775 886 818 757 810 833 l 154 76 b 367 0 197 26 271 0 "},"ǿ":{"ha":740,"x_min":0,"x_max":0,"o":"m 351 819 b 354 831 349 825 350 828 l 572 986 b 582 986 578 990 578 990 l 586 982 b 585 972 590 978 589 975 l 364 815 b 354 815 358 811 357 813 m 26 -51 b 25 -47 24 -51 24 -49 l 99 46 b 58 211 63 86 46 142 l 110 497 b 410 728 135 640 256 728 b 583 672 485 728 544 708 l 653 761 b 660 764 656 764 657 764 l 674 764 b 675 760 676 764 676 763 l 597 658 b 632 497 631 619 644 564 l 582 211 b 281 -19 557 68 436 -19 b 113 33 208 -19 151 -1 l 50 -47 b 40 -51 46 -50 46 -51 l 26 -51 m 571 656 b 408 710 535 690 479 710 b 129 499 267 710 151 628 b 78 210 113 403 94 306 b 111 64 67 150 81 100 m 281 -1 b 563 210 426 -1 540 81 b 614 499 579 306 597 403 b 583 642 624 557 614 606 l 124 50 b 281 -1 160 17 215 -1 "},"Ș":{"ha":856,"x_min":0,"x_max":0,"o":"m 340 -19 b 40 224 168 -19 74 50 b 43 232 39 228 38 229 l 53 235 b 60 231 57 236 58 236 b 342 1 93 65 183 1 b 694 253 547 1 665 86 b 438 483 729 443 585 464 b 153 743 281 504 117 536 b 508 1006 182 907 317 1006 b 807 792 678 1006 765 944 b 804 785 810 789 810 786 l 796 782 b 788 785 792 781 790 779 b 507 985 747 926 667 985 b 172 740 328 985 200 893 b 442 504 139 551 290 524 b 715 250 596 485 753 458 b 340 -19 683 72 557 -19 m 246 -347 b 242 -340 240 -347 239 -346 l 343 -136 b 351 -131 344 -133 347 -131 l 358 -131 b 364 -137 364 -131 365 -133 l 261 -340 b 251 -347 258 -346 257 -347 l 246 -347 "},"ș":{"ha":675,"x_min":0,"x_max":0,"o":"m 265 -19 b 25 160 138 -19 46 26 b 26 167 24 163 24 165 l 36 169 b 43 165 40 171 43 169 b 265 -1 63 43 149 -1 b 513 186 424 -1 513 61 b 328 342 513 289 444 324 b 106 522 214 360 101 385 b 369 728 110 675 210 729 b 589 575 513 726 574 669 b 589 568 589 572 590 569 l 582 565 b 574 569 575 563 575 565 b 368 710 556 656 500 708 b 124 522 217 711 128 656 b 329 360 119 401 222 378 b 532 186 453 339 532 307 b 265 -19 532 49 431 -19 m 154 -335 b 150 -328 149 -335 147 -333 l 251 -124 b 260 -118 253 -121 256 -118 l 267 -118 b 272 -125 272 -118 274 -121 l 169 -328 b 160 -335 167 -333 165 -335 l 154 -335 "},"ț":{"ha":450,"x_min":0,"x_max":0,"o":"m 326 0 b 142 257 153 0 106 50 l 218 690 l 71 690 b 67 696 67 690 65 692 l 68 703 b 74 708 68 707 69 708 l 221 708 l 250 869 b 256 875 250 874 251 875 l 264 875 b 269 869 268 875 269 874 l 240 708 l 453 708 b 458 703 457 708 458 707 l 457 696 b 450 690 456 692 454 690 l 238 690 l 160 257 b 326 19 125 60 168 19 b 333 14 332 19 335 18 l 332 6 b 326 0 331 1 329 0 m 111 -335 b 107 -328 106 -335 104 -333 l 208 -124 b 217 -118 210 -121 213 -118 l 224 -118 b 229 -125 229 -118 231 -121 l 126 -328 b 117 -335 124 -333 122 -335 l 111 -335 "},"ȷ":{"ha":283,"x_min":0,"x_max":0,"o":"m -201 -319 b -207 -314 -207 -319 -208 -318 l -206 -306 b -201 -300 -206 -301 -204 -300 b 42 -18 -12 -300 10 -200 l 169 703 b 175 708 169 707 171 708 l 183 708 b 189 703 188 708 189 707 l 61 -18 b -201 -319 26 -212 -1 -319 "},"ˆ":{"ha":496,"x_min":0,"x_max":0,"o":"m 121 815 b 118 821 115 815 114 818 l 318 985 b 335 992 328 992 328 992 l 336 992 b 350 985 343 992 344 992 l 490 821 b 486 815 493 818 493 815 l 475 815 b 465 819 469 815 468 815 l 333 974 l 146 819 b 133 815 142 817 139 815 l 121 815 "},"ˇ":{"ha":514,"x_min":0,"x_max":0,"o":"m 306 815 b 292 822 299 815 297 815 l 151 986 b 156 992 149 989 149 992 l 167 992 b 176 988 172 992 174 992 l 308 833 l 496 988 b 507 992 500 990 501 992 l 521 992 b 524 986 526 992 525 989 l 322 822 b 307 815 313 815 314 815 l 306 815 "},"˘":{"ha":396,"x_min":0,"x_max":0,"o":"m 250 824 b 99 985 151 824 108 872 b 103 990 99 988 100 990 l 113 992 b 118 985 117 992 118 990 b 251 843 128 886 164 843 b 436 989 339 843 393 885 b 442 992 438 992 439 992 l 453 990 b 454 982 456 990 457 988 b 250 824 410 872 347 824 "},"˙":{"ha":353,"x_min":0,"x_max":0,"o":"m 240 882 b 226 899 228 882 224 886 l 228 906 b 246 921 231 917 232 921 l 254 921 b 268 906 264 921 269 917 l 267 897 b 249 882 265 885 260 882 l 240 882 "},"˚":{"ha":358,"x_min":0,"x_max":0,"o":"m 232 758 b 133 882 161 758 121 807 b 269 1003 147 954 200 1003 b 363 879 338 1003 375 954 b 232 758 350 807 299 758 m 233 775 b 346 882 290 775 335 817 b 269 986 357 944 325 986 b 150 879 208 986 161 944 b 233 775 139 817 174 775 "},"˛":{"ha":403,"x_min":0,"x_max":0,"o":"m 50 -344 b -17 -285 18 -344 -10 -328 b 171 0 -28 -214 47 -112 l 197 0 b 3 -279 78 -107 -4 -212 b 54 -325 6 -312 25 -325 b 154 -275 83 -325 115 -314 b 160 -276 156 -274 158 -274 l 164 -287 b 160 -296 165 -290 164 -292 b 50 -344 122 -331 85 -344 "},"˜":{"ha":421,"x_min":0,"x_max":0,"o":"m 94 840 b 89 847 90 840 88 842 b 199 967 101 917 132 967 b 368 858 289 967 296 858 b 458 963 417 858 450 903 b 464 967 458 965 460 967 l 472 967 b 476 960 476 967 478 965 b 368 840 465 892 428 840 b 199 949 282 840 272 949 b 108 844 143 949 118 906 b 103 840 107 842 107 840 l 94 840 "},"˝":{"ha":546,"x_min":0,"x_max":0,"o":"m 179 818 b 178 825 175 821 175 822 l 343 992 b 353 996 347 996 349 997 l 361 993 b 364 986 367 992 367 989 l 196 819 b 185 815 192 815 189 813 m 390 818 b 389 825 386 821 386 822 l 554 992 b 564 996 558 996 560 997 l 572 993 b 575 986 578 992 578 989 l 407 819 b 396 815 403 815 400 813 "},"̀":{"ha":0,"x_min":0,"x_max":0,"o":"m -265 1013 b -267 1022 -268 1015 -271 1018 l -260 1028 b -249 1026 -254 1032 -253 1031 l -87 871 b -85 860 -83 867 -81 863 l -90 856 b -100 856 -93 853 -96 853 "},"́":{"ha":0,"x_min":0,"x_max":0,"o":"m -187 858 b -185 869 -190 864 -189 867 l 33 1025 b 43 1025 39 1029 39 1029 l 47 1021 b 46 1011 51 1017 50 1014 l -175 854 b -185 854 -181 850 -182 851 "},"̂":{"ha":0,"x_min":0,"x_max":0,"o":"m -369 843 b -372 849 -375 843 -376 846 l -172 1013 b -156 1019 -162 1019 -162 1019 l -154 1019 b -140 1013 -147 1019 -146 1019 l 0 849 b -4 843 3 846 3 843 l -15 843 b -25 847 -21 843 -22 843 l -157 1001 l -344 847 b -357 843 -349 844 -351 843 l -369 843 "},"̃":{"ha":0,"x_min":0,"x_max":0,"o":"m -321 868 b -326 875 -325 868 -328 869 b -217 994 -310 943 -283 994 b -47 886 -126 994 -119 886 b 43 990 1 886 43 931 b 49 994 43 993 44 994 l 57 994 b 61 988 61 994 61 993 b -47 868 58 917 13 868 b -217 976 -133 868 -143 976 b -307 872 -272 976 -290 928 b -312 868 -308 869 -308 868 l -321 868 "},"̄":{"ha":0,"x_min":0,"x_max":0,"o":"m -351 918 b -357 924 -357 918 -357 921 l -356 931 b -349 936 -354 935 -353 936 l -44 936 b -39 931 -40 936 -37 936 l -40 924 b -46 918 -42 919 -42 918 l -351 918 "},"̆":{"ha":0,"x_min":0,"x_max":0,"o":"m -142 851 b -293 1013 -240 851 -293 900 b -289 1018 -293 1015 -292 1018 l -279 1019 b -274 1013 -275 1019 -274 1018 b -140 871 -274 914 -228 871 b 44 1017 -53 871 -6 915 b 50 1019 46 1019 47 1019 l 61 1018 b 63 1010 64 1018 65 1015 b -142 851 10 904 -44 851 "},"̇":{"ha":0,"x_min":0,"x_max":0,"o":"m -106 918 b -122 939 -121 918 -126 921 l -121 944 b -99 965 -117 960 -112 965 l -92 965 b -75 944 -76 965 -72 958 l -76 939 b -99 918 -81 924 -85 918 l -106 918 "},"̈":{"ha":0,"x_min":0,"x_max":0,"o":"m -379 918 b -396 939 -394 918 -400 921 l -394 944 b -372 965 -390 960 -386 965 l -365 965 b -349 944 -350 965 -346 958 l -350 939 b -372 918 -354 924 -358 918 l -379 918 m -149 918 b -165 939 -164 918 -169 921 l -164 944 b -142 965 -160 960 -156 965 l -135 965 b -118 944 -119 965 -115 958 l -119 939 b -142 918 -124 924 -128 918 l -149 918 "},"̊":{"ha":0,"x_min":0,"x_max":0,"o":"m -118 806 b -217 929 -190 806 -231 854 b -81 1050 -203 1001 -150 1050 b 13 926 -12 1050 25 1001 b -118 806 0 854 -51 806 m -117 822 b -4 929 -60 822 -15 864 b -81 1033 7 992 -25 1033 b -199 926 -140 1033 -187 989 b -117 822 -210 864 -176 822 "},"̋":{"ha":0,"x_min":0,"x_max":0,"o":"m -362 842 b -364 849 -367 844 -367 846 l -199 1015 b -189 1019 -194 1019 -193 1021 l -181 1017 b -178 1010 -175 1015 -175 1013 l -346 843 b -357 839 -350 839 -353 836 m -151 842 b -153 849 -156 844 -156 846 l 13 1015 b 22 1019 17 1019 18 1021 l 31 1017 b 33 1010 36 1015 36 1013 l -135 843 b -146 839 -139 839 -142 836 "},"̌":{"ha":0,"x_min":0,"x_max":0,"o":"m -204 843 b -218 850 -211 843 -212 843 l -358 1014 b -354 1019 -361 1017 -361 1019 l -343 1019 b -333 1015 -337 1019 -336 1019 l -201 861 l -14 1015 b -3 1019 -10 1018 -8 1019 l 11 1019 b 14 1014 17 1019 15 1017 l -187 850 b -203 843 -197 843 -196 843 l -204 843 "},"̧":{"ha":0,"x_min":0,"x_max":0,"o":"m -318 -339 b -412 -300 -369 -339 -399 -314 b -415 -289 -417 -296 -417 -293 l -414 -283 b -407 -281 -412 -279 -410 -278 b -317 -321 -389 -299 -361 -321 b -193 -215 -251 -321 -199 -292 b -267 -135 -189 -164 -215 -135 b -318 -143 -286 -135 -304 -139 b -329 -133 -326 -146 -332 -139 l -268 0 l -249 0 l -306 -124 b -260 -117 -294 -119 -276 -117 b -174 -218 -200 -117 -168 -156 b -318 -339 -181 -300 -239 -339 "},"̨":{"ha":0,"x_min":0,"x_max":0,"o":"m -353 -344 b -419 -285 -385 -344 -412 -328 b -232 0 -431 -214 -356 -112 l -206 0 b -400 -279 -325 -107 -407 -212 b -349 -325 -397 -312 -378 -325 b -249 -275 -319 -325 -287 -314 b -243 -276 -247 -274 -244 -274 l -239 -287 b -243 -296 -237 -290 -239 -292 b -353 -344 -281 -331 -318 -344 "},"π":{"ha":815,"x_min":0,"x_max":0,"o":"m 689 -1 b 681 1 685 -4 683 -3 b 636 197 644 60 636 111 l 636 690 l 243 690 l 243 6 b 238 0 243 1 242 0 l 229 0 b 224 6 225 0 224 1 l 224 690 b 56 638 151 689 114 675 b 46 638 51 635 49 633 l 42 644 b 44 653 40 647 40 650 b 239 708 107 696 160 708 l 764 708 b 769 703 768 708 769 707 l 769 696 b 764 690 769 692 768 690 l 656 690 l 656 197 b 697 13 656 115 661 67 b 696 3 700 8 700 6 l 689 -1 "},"Ё":{"ha":783,"x_min":0,"x_max":0,"o":"m 407 1126 b 392 1142 393 1126 390 1129 l 393 1150 b 413 1165 394 1161 399 1165 l 419 1165 b 433 1150 431 1165 435 1161 l 432 1142 b 414 1126 431 1129 425 1126 l 407 1126 m 639 1126 b 624 1142 625 1126 622 1129 l 625 1150 b 644 1165 626 1161 631 1165 l 651 1165 b 665 1150 663 1165 667 1161 l 664 1142 b 646 1126 663 1129 657 1126 l 639 1126 m 67 0 b 61 6 63 0 61 1 l 233 981 b 239 986 235 985 235 986 l 758 986 b 764 981 763 986 764 985 l 763 972 b 757 967 761 968 761 967 l 251 967 l 171 510 l 622 510 b 626 504 626 510 628 508 l 625 496 b 619 490 625 492 624 490 l 168 490 l 85 19 l 607 19 b 613 14 611 19 614 18 l 611 6 b 606 0 610 1 610 0 l 67 0 "},"А":{"ha":861,"x_min":0,"x_max":0,"o":"m -39 0 b -42 6 -43 0 -43 3 l 504 988 b 514 994 507 992 508 994 l 524 994 b 531 988 529 994 529 992 l 731 7 b 726 0 732 3 731 0 l 715 0 b 708 6 711 0 710 1 l 638 363 l 181 363 l -19 6 b -28 0 -22 1 -24 0 l -39 0 m 632 382 l 526 911 b 517 969 522 931 519 950 l 515 969 b 483 908 504 949 494 929 l 192 382 "},"Б":{"ha":860,"x_min":0,"x_max":0,"o":"m 67 0 b 61 6 63 0 61 1 l 233 981 b 239 986 235 985 235 986 l 794 986 b 800 981 799 986 800 985 l 799 972 b 793 967 797 968 797 967 l 251 967 l 175 533 l 496 533 b 746 324 672 533 749 468 b 421 0 743 135 617 0 l 67 0 m 414 19 b 725 321 615 19 722 161 b 492 514 728 456 653 514 l 172 514 l 85 19 "},"В":{"ha":881,"x_min":0,"x_max":0,"o":"m 67 0 b 61 6 63 0 61 1 l 233 981 b 239 986 235 985 235 986 l 575 986 b 799 801 728 986 799 922 b 603 507 799 661 738 549 l 601 506 b 744 321 681 490 744 428 b 428 0 744 131 622 0 l 67 0 m 517 514 b 779 800 682 514 779 639 b 574 967 779 908 714 967 l 251 967 l 172 514 m 424 19 b 724 321 610 19 724 147 b 529 494 724 435 651 494 l 168 494 l 85 19 "},"Г":{"ha":697,"x_min":0,"x_max":0,"o":"m 67 0 b 61 6 63 0 61 1 l 233 981 b 239 986 235 985 235 986 l 726 986 b 732 981 731 986 732 985 l 731 972 b 725 967 729 968 729 967 l 251 967 l 82 6 b 76 0 81 1 81 0 l 67 0 "},"Д":{"ha":946,"x_min":0,"x_max":0,"o":"m -76 -212 b -82 -207 -81 -212 -82 -211 l -43 14 b -37 19 -42 18 -42 19 l 28 19 b 300 703 100 67 201 149 l 349 981 b 354 986 350 985 350 986 l 865 986 b 871 981 869 986 871 985 l 701 19 l 797 19 b 803 14 801 19 804 18 l 764 -207 b 758 -212 764 -211 763 -212 l 749 -212 b 743 -207 744 -212 743 -211 l 779 0 l -25 0 l -61 -207 b -68 -212 -61 -211 -64 -212 l -76 -212 m 681 19 l 847 967 l 367 967 l 319 701 b 60 19 226 176 131 69 "},"Е":{"ha":783,"x_min":0,"x_max":0,"o":"m 67 0 b 61 6 63 0 61 1 l 233 981 b 239 986 235 985 235 986 l 758 986 b 764 981 763 986 764 985 l 763 972 b 757 967 761 968 761 967 l 251 967 l 171 510 l 622 510 b 626 504 626 510 628 508 l 625 496 b 619 490 625 492 624 490 l 168 490 l 85 19 l 607 19 b 613 14 611 19 614 18 l 611 6 b 606 0 610 1 610 0 l 67 0 "},"Ж":{"ha":1235,"x_min":0,"x_max":0,"o":"m -4 0 b -8 7 -10 0 -11 3 l 219 356 b 400 500 271 433 322 481 l 176 979 b 181 986 175 983 174 986 l 189 986 b 200 981 196 986 199 985 l 422 506 b 489 510 442 508 464 510 l 610 510 l 693 981 b 699 986 694 985 694 986 l 708 986 b 714 981 713 986 714 985 l 631 510 l 779 510 b 844 506 803 510 825 508 l 1233 981 b 1246 986 1236 985 1239 986 l 1254 986 b 1258 979 1261 986 1261 983 l 865 500 b 994 356 936 481 971 433 l 1100 7 b 1096 0 1101 3 1101 0 l 1089 0 b 1079 6 1082 0 1081 1 l 975 344 b 779 490 944 443 910 490 l 628 490 l 542 6 b 536 0 540 1 540 0 l 526 0 b 521 6 522 0 521 1 l 607 490 l 486 490 b 236 344 367 490 301 443 l 14 6 b 3 0 11 1 10 0 l -4 0 "},"З":{"ha":836,"x_min":0,"x_max":0,"o":"m 350 -19 b 42 235 138 -19 54 72 b 47 242 42 239 43 240 l 54 244 b 61 239 58 246 61 244 b 350 0 72 82 156 0 b 682 318 563 0 682 122 b 508 497 682 424 624 497 l 246 497 b 240 503 242 497 240 499 l 242 511 b 249 517 243 515 244 517 l 511 517 b 740 797 646 517 740 651 b 503 986 740 919 654 986 b 161 753 315 986 232 917 b 153 751 160 750 157 750 l 146 753 b 143 763 143 754 140 756 b 503 1006 211 922 303 1006 b 760 800 668 1006 760 932 b 576 507 760 667 694 547 b 703 322 657 489 703 414 b 350 -19 703 108 574 -19 "},"И":{"ha":951,"x_min":0,"x_max":0,"o":"m 69 0 b 64 6 65 0 64 1 l 233 981 b 238 986 235 985 233 986 l 250 986 b 254 981 254 986 254 985 l 138 310 b 89 39 121 219 106 129 l 90 39 b 292 285 158 121 225 203 l 865 982 b 872 986 865 982 868 986 l 881 986 b 888 981 885 986 888 985 l 718 6 b 713 0 717 1 717 0 l 701 0 b 697 6 699 0 697 1 l 819 701 b 864 949 833 783 850 867 l 863 949 b 678 724 799 874 739 799 l 86 6 b 78 0 82 0 81 0 l 69 0 "},"Й":{"ha":899,"x_min":0,"x_max":0,"o":"m 578 1102 b 422 1256 477 1102 432 1149 b 427 1262 422 1259 424 1262 l 437 1263 b 442 1256 441 1263 442 1262 b 580 1121 452 1162 490 1121 b 770 1260 670 1121 726 1161 b 776 1263 771 1263 773 1263 l 787 1262 b 789 1254 790 1262 791 1259 b 578 1102 743 1149 678 1102 m 69 0 b 64 6 65 0 64 1 l 233 981 b 237 986 235 985 233 986 l 250 986 b 254 981 254 986 254 985 l 137 310 b 89 39 121 219 106 129 l 90 39 b 292 285 158 121 225 203 l 865 982 b 872 986 865 982 868 986 l 881 986 b 887 981 885 986 887 985 l 718 6 b 712 0 717 1 717 0 l 701 0 b 697 6 699 0 697 1 l 819 701 b 864 949 833 783 850 867 l 862 949 b 678 724 799 874 739 799 l 86 6 b 78 0 82 0 81 0 l 69 0 "},"К":{"ha":815,"x_min":0,"x_max":0,"o":"m 67 0 b 61 6 63 0 61 1 l 233 981 b 239 986 235 985 235 986 l 249 986 b 254 981 253 986 254 985 l 171 510 l 369 510 b 407 508 383 510 397 510 l 806 981 b 818 986 808 985 811 986 l 828 986 b 832 979 835 986 835 983 l 431 504 b 574 356 515 492 550 440 l 672 7 b 668 0 674 3 674 0 l 660 0 b 650 6 653 0 651 1 l 556 346 b 375 490 529 443 490 490 l 168 490 l 82 6 b 76 0 81 1 81 0 l 67 0 "},"Л":{"ha":879,"x_min":0,"x_max":0,"o":"m -44 -18 b -53 -17 -49 -19 -51 -21 l -56 -8 b -53 0 -58 -4 -57 -1 b 244 650 78 64 150 113 l 303 981 b 308 986 304 985 304 986 l 813 986 b 818 981 817 986 818 985 l 646 6 b 640 0 644 1 644 0 l 631 0 b 625 6 626 0 625 1 l 794 967 l 322 967 l 265 647 b -44 -18 163 68 79 42 "},"М":{"ha":1093,"x_min":0,"x_max":0,"o":"m 67 0 b 61 6 63 0 61 1 l 233 981 b 239 986 235 985 235 986 l 249 986 b 258 979 254 986 257 983 l 507 268 l 1004 978 b 1017 986 1008 983 1010 986 l 1026 986 b 1032 981 1031 986 1032 985 l 860 6 b 854 0 858 1 858 0 l 844 0 b 839 6 840 0 839 1 l 967 728 b 1006 942 979 799 992 871 l 1004 942 b 882 767 963 883 924 825 l 519 249 b 510 242 517 244 514 242 l 503 242 b 492 249 497 242 494 243 l 310 774 b 249 943 289 829 269 888 l 247 943 b 210 728 235 872 222 799 l 82 6 b 76 0 81 1 81 0 l 67 0 "},"Н":{"ha":936,"x_min":0,"x_max":0,"o":"m 67 0 b 61 6 63 0 61 1 l 233 981 b 239 986 235 985 235 986 l 249 986 b 254 981 253 986 254 985 l 171 510 l 771 510 l 854 981 b 860 986 856 985 856 986 l 869 986 b 875 981 874 986 875 985 l 703 6 b 697 0 701 1 701 0 l 688 0 b 682 6 683 0 682 1 l 768 490 l 168 490 l 82 6 b 76 0 81 1 81 0 l 67 0 "},"О":{"ha":908,"x_min":0,"x_max":0,"o":"m 368 -19 b 86 317 144 -19 50 107 l 147 669 b 543 1006 185 878 322 1006 b 822 669 767 1006 858 882 l 761 317 b 368 -19 725 106 588 -19 m 365 0 b 740 318 571 0 704 114 l 801 668 b 546 986 836 869 751 986 b 168 668 338 986 203 865 l 107 318 b 365 0 72 119 161 0 "},"П":{"ha":926,"x_min":0,"x_max":0,"o":"m 67 0 b 61 6 63 0 61 1 l 233 981 b 239 986 235 985 235 986 l 860 986 b 865 981 864 986 865 985 l 693 6 b 688 0 692 1 692 0 l 678 0 b 672 6 674 0 672 1 l 842 967 l 251 967 l 82 6 b 76 0 81 1 81 0 l 67 0 "},"Р":{"ha":847,"x_min":0,"x_max":0,"o":"m 67 0 b 61 6 63 0 61 1 l 233 981 b 239 986 235 985 235 986 l 583 986 b 807 690 753 986 840 876 b 482 400 775 508 651 400 l 151 400 l 82 6 b 76 0 81 1 81 0 l 67 0 m 482 419 b 786 693 639 419 756 519 b 581 967 817 865 738 967 l 251 967 l 156 419 "},"С":{"ha":875,"x_min":0,"x_max":0,"o":"m 365 -19 b 86 317 146 -19 49 108 l 149 671 b 543 1006 185 878 321 1006 b 832 758 747 1006 821 921 b 828 751 833 754 832 753 l 819 750 b 811 754 815 749 811 749 b 543 986 797 908 731 986 b 169 672 332 986 203 865 l 106 315 b 367 1 72 124 160 1 b 725 243 561 1 656 89 b 735 246 726 247 729 247 l 742 243 b 744 233 746 242 747 240 b 365 -19 669 74 572 -19 "},"Т":{"ha":732,"x_min":0,"x_max":0,"o":"m 275 0 b 269 6 271 0 269 1 l 439 967 l 135 967 b 129 972 131 967 128 968 l 131 981 b 136 986 132 985 132 986 l 768 986 b 774 981 772 986 774 985 l 772 972 b 767 967 771 968 771 967 l 460 967 l 290 6 b 285 0 289 1 289 0 l 275 0 "},"У":{"ha":790,"x_min":0,"x_max":0,"o":"m 175 0 b 171 6 169 0 167 1 l 347 275 l 122 981 b 128 986 122 983 122 986 l 138 986 b 146 981 143 986 144 985 l 363 296 l 813 981 b 822 986 815 985 817 986 l 832 986 b 836 981 838 986 838 983 l 194 6 b 183 0 192 1 189 0 l 175 0 "},"Ф":{"ha":1135,"x_min":0,"x_max":0,"o":"m 471 -28 b 467 -22 467 -28 465 -26 l 486 90 l 390 90 b 100 443 161 90 63 224 l 118 550 b 533 903 156 769 296 903 l 629 903 l 649 1015 b 656 1021 650 1019 651 1021 l 665 1021 b 669 1015 669 1021 671 1019 l 650 903 l 750 903 b 1042 550 996 903 1079 769 l 1024 443 b 607 90 986 224 836 90 l 507 90 l 486 -22 b 481 -28 486 -26 485 -28 l 471 -28 m 489 110 l 626 883 l 531 883 b 139 550 313 883 174 756 l 121 443 b 396 110 86 238 178 110 m 610 110 b 1003 443 822 110 968 238 l 1021 550 b 747 883 1056 756 978 883 l 647 883 l 510 110 "},"Х":{"ha":815,"x_min":0,"x_max":0,"o":"m -35 0 b -36 10 -42 0 -40 4 l 394 500 l 143 981 b 147 986 143 983 143 986 l 160 986 b 168 981 165 986 167 985 l 410 517 l 815 981 b 826 986 818 985 819 986 l 839 986 b 843 981 843 986 844 983 l 422 501 l 679 10 b 676 0 683 4 683 0 l 665 0 b 657 6 660 0 658 1 l 407 483 l -12 6 b -24 0 -15 1 -18 0 l -35 0 "},"Ц":{"ha":943,"x_min":0,"x_max":0,"o":"m 747 -212 b 740 -207 742 -212 740 -211 l 776 0 l 67 0 b 61 6 63 0 61 1 l 233 981 b 239 986 235 985 235 986 l 247 986 b 254 981 253 986 254 985 l 85 19 l 678 19 l 847 981 b 853 986 849 985 849 986 l 861 986 b 868 981 867 986 868 985 l 699 19 l 794 19 b 800 14 799 19 801 18 l 761 -207 b 756 -212 761 -211 760 -212 l 747 -212 "},"Ч":{"ha":851,"x_min":0,"x_max":0,"o":"m 603 0 b 597 6 599 0 597 1 l 671 422 b 382 383 622 410 528 383 b 129 725 149 383 90 508 l 174 981 b 179 986 175 985 175 986 l 189 986 b 194 981 193 986 194 985 l 149 725 b 383 404 113 515 167 404 b 675 443 526 404 628 431 l 769 981 b 775 986 771 985 771 986 l 785 986 b 790 981 789 986 790 985 l 618 6 b 613 0 617 1 617 0 l 603 0 "},"Ш":{"ha":1240,"x_min":0,"x_max":0,"o":"m 67 0 b 61 6 63 0 61 1 l 233 981 b 239 986 235 985 235 986 l 247 986 b 254 981 251 986 254 985 l 85 19 l 526 19 l 696 981 b 701 986 697 985 697 986 l 711 986 b 717 981 715 986 717 985 l 547 19 l 989 19 l 1158 981 b 1165 986 1160 985 1161 986 l 1174 986 b 1179 981 1178 986 1179 985 l 1007 6 b 1001 0 1006 1 1006 0 l 67 0 "},"Щ":{"ha":1264,"x_min":0,"x_max":0,"o":"m 1063 -212 b 1057 -207 1058 -212 1056 -211 l 1093 0 l 67 0 b 61 6 63 0 61 1 l 233 981 b 239 986 235 985 235 986 l 249 986 b 254 981 253 986 254 985 l 85 19 l 529 19 l 699 981 b 704 986 700 985 700 986 l 714 986 b 719 981 718 986 719 985 l 550 19 l 994 19 l 1164 981 b 1169 986 1165 985 1165 986 l 1179 986 b 1185 981 1183 986 1185 985 l 1015 19 l 1111 19 b 1117 14 1115 19 1118 18 l 1078 -207 b 1072 -212 1076 -211 1076 -212 l 1063 -212 "},"Ъ":{"ha":988,"x_min":0,"x_max":0,"o":"m 193 0 b 188 6 189 0 188 1 l 357 967 l 133 967 b 128 972 129 967 126 968 l 129 981 b 135 986 131 985 131 986 l 375 986 b 381 981 379 986 382 985 l 311 586 l 596 586 b 871 365 779 586 871 519 b 535 0 871 164 746 0 l 193 0 m 535 19 b 850 364 728 19 850 176 b 593 567 850 504 765 567 l 307 567 l 211 19 "},"Ы":{"ha":1131,"x_min":0,"x_max":0,"o":"m 67 0 b 61 6 63 0 61 1 l 233 981 b 239 986 235 985 235 986 l 249 986 b 254 981 253 986 254 985 l 185 586 l 469 586 b 744 365 653 586 744 519 b 408 0 744 164 619 0 l 67 0 m 882 0 b 876 6 878 0 876 1 l 1049 981 b 1054 986 1050 985 1050 986 l 1064 986 b 1069 981 1068 986 1069 985 l 897 6 b 892 0 896 1 896 0 l 882 0 m 408 19 b 724 364 601 19 724 176 b 467 567 724 504 639 567 l 181 567 l 85 19 "},"Ь":{"ha":847,"x_min":0,"x_max":0,"o":"m 67 0 b 61 6 63 0 61 1 l 233 981 b 239 986 235 985 235 986 l 249 986 b 254 981 253 986 254 985 l 185 586 l 469 586 b 744 365 653 586 744 519 b 408 0 744 164 619 0 l 67 0 m 408 19 b 724 364 601 19 724 176 b 467 567 724 504 639 567 l 181 567 l 85 19 "},"Э":{"ha":881,"x_min":0,"x_max":0,"o":"m 338 -19 b 49 228 133 -19 60 65 b 53 235 47 232 49 233 l 61 236 b 69 232 65 238 69 238 b 338 0 83 78 150 0 b 711 314 549 0 678 121 l 743 489 l 282 489 b 276 494 278 489 276 490 l 278 503 b 283 508 279 507 279 508 l 746 508 l 775 671 b 514 985 808 863 721 985 b 156 743 319 985 225 897 b 146 740 154 739 151 739 l 139 743 b 136 753 135 744 133 746 b 515 1006 211 913 308 1006 b 794 669 735 1006 832 878 l 732 315 b 338 -19 696 108 560 -19 "},"Ю":{"ha":1250,"x_min":0,"x_max":0,"o":"m 699 -19 b 417 317 475 -19 381 107 l 447 490 l 168 490 l 82 6 b 76 0 81 1 81 0 l 67 0 b 61 6 63 0 61 1 l 233 981 b 239 986 235 985 235 986 l 249 986 b 254 981 253 986 254 985 l 171 510 l 450 510 l 478 669 b 874 1006 515 878 653 1006 b 1153 669 1097 1006 1189 882 l 1092 317 b 699 -19 1056 106 918 -19 m 696 0 b 1071 318 901 0 1035 114 l 1132 668 b 876 986 1167 869 1082 986 b 499 668 668 986 533 865 l 438 318 b 696 0 403 119 492 0 "},"Я":{"ha":879,"x_min":0,"x_max":0,"o":"m 0 0 b -4 7 -6 0 -7 3 l 189 321 b 338 456 231 389 274 433 b 138 694 213 464 135 568 b 469 986 142 879 239 986 l 813 986 b 818 981 817 986 818 985 l 646 6 b 640 0 644 1 644 0 l 631 0 b 625 6 626 0 625 1 l 704 456 l 446 456 b 206 310 336 456 267 410 l 19 6 b 7 0 17 1 15 0 l 0 0 m 708 475 l 794 967 l 469 967 b 160 696 256 967 164 868 b 354 475 157 578 236 475 "},"а":{"ha":699,"x_min":0,"x_max":0,"o":"m 247 -19 b 33 151 88 -19 33 43 b 318 392 33 324 147 392 b 539 372 414 392 510 378 b 563 533 558 482 563 504 b 374 710 563 632 515 710 b 133 583 257 710 188 656 b 125 581 131 581 129 579 l 118 585 b 118 594 114 588 115 590 b 376 728 183 682 257 728 b 582 536 531 728 582 643 b 510 96 582 493 575 469 b 446 17 501 47 488 35 b 247 -19 390 -7 326 -19 m 250 -1 b 440 33 321 -1 382 10 b 490 96 476 47 483 56 l 536 354 b 315 374 507 360 410 374 b 53 154 156 374 53 307 b 250 -1 53 51 106 -1 "},"б":{"ha":761,"x_min":0,"x_max":0,"o":"m 301 -19 b 81 240 125 -19 51 79 l 144 601 b 553 1019 200 913 293 1019 l 601 1019 b 713 1042 647 1019 689 1025 b 721 1038 717 1043 719 1043 l 724 1029 b 719 1021 724 1025 724 1025 b 601 1000 696 1008 649 1000 l 551 1000 b 163 600 307 1000 222 897 l 154 558 b 435 703 197 606 289 703 b 647 440 614 703 675 601 l 613 240 b 301 -19 583 79 478 -19 m 301 -1 b 593 240 465 -1 567 90 l 628 440 b 432 685 654 594 603 685 b 150 526 282 685 189 571 l 100 240 b 301 -1 74 89 143 -1 "},"в":{"ha":733,"x_min":0,"x_max":0,"o":"m 288 -19 b 103 18 217 -19 149 -6 b 63 101 64 38 54 54 l 151 604 b 225 694 160 650 179 674 b 407 728 274 717 339 728 b 622 532 571 728 644 661 b 483 369 607 449 554 389 b 583 185 561 347 601 290 b 288 -19 560 53 454 -19 m 429 378 b 603 535 518 378 586 438 b 404 710 624 654 554 710 b 226 675 335 710 269 696 b 172 604 193 660 178 639 l 132 378 m 289 -1 b 565 186 443 -1 544 65 b 429 360 586 300 528 360 l 129 360 l 83 110 b 114 35 76 68 81 53 b 289 -1 158 13 226 -1 "},"г":{"ha":693,"x_min":0,"x_max":0,"o":"m 267 -19 b 57 129 128 -19 57 31 b 343 367 57 297 167 349 b 592 568 501 383 592 414 b 411 710 592 665 525 710 b 154 554 294 710 218 663 b 146 551 153 551 150 549 l 139 556 b 140 569 135 558 136 564 b 413 728 197 669 285 728 b 611 571 538 728 611 678 b 340 347 611 399 510 363 b 78 133 179 333 78 281 b 265 -1 78 44 140 -1 b 540 158 399 -1 488 50 b 551 169 544 168 547 171 l 558 167 b 556 147 563 164 560 156 b 267 -19 497 33 404 -19 "},"д":{"ha":785,"x_min":0,"x_max":0,"o":"m 304 -19 b 83 236 126 -19 54 76 l 121 444 b 426 701 150 604 249 701 b 646 542 549 701 632 638 b 297 1010 708 894 618 1007 b 290 1015 290 1010 289 1011 l 292 1022 b 297 1028 293 1026 293 1028 b 667 558 639 1028 726 894 l 610 236 b 304 -19 582 76 469 -19 m 300 -1 b 590 235 453 -1 563 79 l 628 444 b 426 683 654 590 568 683 b 140 444 265 683 167 593 l 103 236 b 300 -1 76 88 140 -1 "},"е":{"ha":724,"x_min":0,"x_max":0,"o":"m 79 246 b 267 -1 51 93 111 -1 b 544 160 401 -1 486 67 b 553 161 547 163 550 163 l 560 157 b 561 149 562 156 562 153 b 267 -19 499 57 412 -19 b 58 246 94 -19 29 82 b 93 443 69 311 82 378 b 406 728 124 622 240 728 b 625 517 567 728 650 657 b 324 310 601 381 496 310 b 93 327 237 310 173 314 m 403 710 b 114 443 253 710 143 611 l 97 346 b 325 329 178 332 256 329 b 606 519 476 329 582 388 b 403 710 628 646 551 710 "},"ж":{"ha":1019,"x_min":0,"x_max":0,"o":"m -36 0 b -37 7 -40 0 -39 4 l 129 265 b 263 369 167 324 207 357 l 94 701 b 99 708 93 706 92 708 l 107 708 b 118 703 114 708 115 708 l 283 374 b 319 375 294 375 307 375 l 463 375 l 521 704 b 526 708 522 708 522 708 l 535 708 b 539 701 539 708 540 706 l 482 375 l 626 375 b 663 374 638 375 653 375 l 943 703 b 956 708 949 708 949 708 l 964 708 b 968 701 971 708 972 706 l 682 369 b 776 263 731 357 758 325 l 853 4 b 850 0 854 1 854 0 l 840 0 b 833 6 835 0 835 3 l 757 257 b 628 357 736 324 710 357 l 479 357 l 417 4 b 411 0 415 0 415 0 l 403 0 b 397 7 399 0 396 3 l 460 357 l 317 357 b 147 254 231 357 192 324 l -17 3 b -25 0 -18 0 -19 0 l -36 0 "},"з":{"ha":706,"x_min":0,"x_max":0,"o":"m 281 -19 b 25 178 53 -19 28 154 b 29 186 25 182 25 186 l 38 188 b 43 179 40 188 42 188 b 279 -1 47 158 68 -1 b 543 222 436 -1 543 86 b 388 356 543 314 494 356 l 236 356 b 232 363 232 356 231 357 l 233 368 b 240 374 235 374 236 374 l 390 374 b 590 557 511 374 590 457 b 399 710 590 646 528 710 b 115 538 188 710 115 539 b 107 533 113 533 110 532 l 101 536 b 97 544 97 538 96 540 b 399 728 99 544 171 728 b 608 558 540 728 608 660 b 460 365 608 471 558 397 l 460 364 b 561 218 524 353 561 301 b 281 -19 561 68 442 -19 "},"и":{"ha":753,"x_min":0,"x_max":0,"o":"m 271 -19 b 82 244 106 -19 53 79 l 163 703 b 168 708 163 707 164 708 l 176 708 b 182 703 181 708 182 707 l 101 246 b 272 0 72 86 122 0 b 493 43 374 0 447 21 b 536 100 525 58 532 75 l 643 703 b 649 708 643 707 644 708 l 657 708 b 663 703 660 708 663 707 l 556 100 b 497 25 549 58 536 42 b 271 -19 447 4 382 -19 "},"й":{"ha":753,"x_min":0,"x_max":0,"o":"m 432 810 b 281 971 333 810 290 858 b 285 976 281 974 282 976 l 294 978 b 300 971 299 978 300 976 b 433 829 310 872 346 829 b 618 975 521 829 575 871 b 624 978 619 978 621 978 l 635 976 b 636 968 638 976 639 974 b 432 810 592 858 529 810 m 271 -19 b 82 244 106 -19 53 79 l 163 703 b 168 708 163 707 164 708 l 176 708 b 182 703 181 708 182 707 l 101 246 b 272 0 72 86 122 0 b 493 43 374 0 447 21 b 536 100 525 58 532 75 l 643 703 b 649 708 643 707 644 708 l 657 708 b 663 703 660 708 663 707 l 556 100 b 497 25 549 58 536 42 b 271 -19 447 4 382 -19 "},"к":{"ha":706,"x_min":0,"x_max":0,"o":"m 51 0 b 46 6 47 0 46 1 l 169 703 b 175 708 169 707 171 708 l 183 708 b 189 703 188 708 189 707 l 131 375 l 343 375 l 357 375 l 649 703 b 663 708 654 708 656 708 l 669 708 b 674 701 676 708 676 706 l 379 372 b 488 264 442 364 469 328 l 558 6 b 556 0 558 3 560 0 l 549 0 b 539 4 542 0 540 1 l 469 256 b 340 357 449 331 413 357 l 128 357 l 65 6 b 60 0 64 1 64 0 l 51 0 "},"л":{"ha":735,"x_min":0,"x_max":0,"o":"m -49 -19 b -54 -17 -53 -21 -53 -19 l -57 -10 b -57 -3 -58 -7 -58 -4 b 171 451 18 32 104 76 l 215 703 b 221 708 215 707 217 708 l 635 708 b 640 703 639 708 640 707 l 517 6 b 511 0 515 1 515 0 l 503 0 b 497 6 499 0 497 1 l 618 689 l 232 689 l 190 451 b -49 -19 126 89 43 22 "},"м":{"ha":878,"x_min":0,"x_max":0,"o":"m 53 0 b 46 7 47 0 46 1 l 169 701 b 176 708 169 707 171 708 l 185 708 b 193 701 189 708 192 707 l 382 151 l 760 701 b 768 708 764 707 764 708 l 776 708 b 782 701 782 708 783 707 l 660 7 b 653 0 658 1 658 0 l 649 0 b 640 7 642 0 639 1 l 732 525 b 758 667 740 572 749 619 l 757 667 b 676 547 729 626 703 588 l 392 133 b 381 126 389 128 388 126 l 378 126 b 368 133 371 126 369 128 l 228 538 b 185 668 213 581 200 625 l 182 668 b 154 511 172 615 164 564 l 65 7 b 60 0 64 1 65 0 l 53 0 "},"н":{"ha":771,"x_min":0,"x_max":0,"o":"m 51 0 b 46 6 49 0 46 1 l 169 703 b 175 708 169 707 171 708 l 183 708 b 189 703 188 708 189 707 l 131 375 l 599 375 l 657 703 b 663 708 657 707 658 708 l 671 708 b 676 703 675 708 676 707 l 553 6 b 547 0 551 1 551 0 l 539 0 b 533 6 535 0 533 1 l 596 357 l 128 357 l 65 6 b 60 0 64 1 64 0 l 51 0 "},"о":{"ha":740,"x_min":0,"x_max":0,"o":"m 281 -19 b 58 211 125 -19 33 68 l 110 497 b 408 728 136 646 249 728 b 632 497 564 728 657 638 l 582 211 b 281 -19 557 68 436 -19 m 279 -1 b 563 210 425 -1 539 79 l 614 499 b 407 710 638 628 550 710 b 129 499 260 710 151 628 l 78 210 b 279 -1 54 81 139 -1 "},"п":{"ha":753,"x_min":0,"x_max":0,"o":"m 47 0 b 42 6 44 0 42 1 l 149 608 b 207 683 156 650 168 667 b 433 728 256 704 326 728 b 622 464 597 728 651 631 l 542 6 b 536 0 540 1 540 0 l 528 0 b 522 6 524 0 522 1 l 603 463 b 431 710 631 621 582 710 b 213 665 336 710 257 688 b 168 608 179 650 172 633 l 61 6 b 56 0 60 1 60 0 l 47 0 "},"р":{"ha":735,"x_min":0,"x_max":0,"o":"m -7 -306 b -12 -300 -11 -306 -12 -304 l 149 613 b 211 689 157 658 168 671 b 413 728 261 710 328 728 b 621 453 588 728 653 632 l 583 243 b 307 -19 554 79 468 -19 b 69 49 183 -19 99 29 l 7 -300 b 1 -306 7 -304 6 -306 l -7 -306 m 307 0 b 564 243 457 0 538 88 l 601 453 b 411 710 631 622 572 710 b 218 671 329 710 258 689 b 168 613 182 654 175 649 l 74 72 b 307 0 101 51 189 0 "},"с":{"ha":708,"x_min":0,"x_max":0,"o":"m 276 -19 b 63 244 107 -19 33 81 l 101 465 b 406 728 129 628 232 728 b 626 533 561 728 615 658 b 624 526 626 529 626 528 l 614 524 b 608 528 610 522 608 524 b 404 708 596 653 544 708 b 119 465 243 708 146 614 l 81 244 b 276 0 54 96 118 0 b 551 189 410 0 478 58 b 557 192 554 193 553 193 l 567 189 b 569 181 569 188 571 186 b 276 -19 500 44 422 -19 "},"т":{"ha":1147,"x_min":0,"x_max":0,"o":"m 47 0 b 42 6 44 0 40 1 l 149 608 b 210 688 156 650 171 669 b 400 728 254 708 318 728 b 579 649 499 728 554 701 b 832 728 626 679 694 728 b 1017 474 992 728 1046 639 l 935 6 b 929 0 933 1 933 0 l 921 0 b 915 6 917 0 914 1 l 997 472 b 831 710 1025 632 978 710 b 586 631 703 710 636 665 b 589 492 599 597 599 549 l 503 6 b 497 0 501 1 501 0 l 490 0 b 483 6 485 0 483 1 l 569 490 b 397 710 597 650 543 710 b 213 669 317 710 264 694 b 168 608 179 653 172 633 l 61 6 b 56 0 60 1 60 0 l 47 0 "},"у":{"ha":757,"x_min":0,"x_max":0,"o":"m 219 -361 b 14 -194 89 -361 36 -293 b 17 -186 13 -192 11 -189 l 22 -183 b 31 -187 28 -181 31 -183 b 221 -342 54 -276 101 -342 b 508 -62 392 -342 478 -233 l 526 38 b 271 -19 475 17 394 -19 b 82 244 106 -19 53 79 l 163 703 b 168 708 163 707 164 708 l 176 708 b 182 703 181 708 182 707 l 101 246 b 272 -1 72 86 122 -1 b 528 57 392 -1 481 36 l 643 703 b 649 708 643 707 644 708 l 657 708 b 663 703 661 708 663 707 l 526 -62 b 219 -361 494 -244 404 -361 "},"ф":{"ha":1021,"x_min":0,"x_max":0,"o":"m 367 -306 b 361 -300 363 -306 361 -304 l 414 -10 b 288 -19 371 -15 331 -19 b 61 250 168 -19 19 11 l 96 444 b 418 728 138 683 286 728 b 540 718 463 728 500 724 l 594 1022 b 600 1028 596 1026 596 1028 l 608 1028 b 614 1022 613 1028 615 1026 l 560 718 b 688 728 603 724 646 728 b 908 458 801 728 950 697 l 872 250 b 554 -19 831 13 667 -19 b 433 -10 510 -19 474 -15 l 381 -300 b 375 -306 381 -304 379 -306 l 367 -306 m 286 0 b 415 8 332 0 369 3 l 539 700 b 413 708 494 706 457 708 b 115 444 301 708 154 674 l 81 250 b 286 0 40 25 183 0 m 560 0 b 853 250 654 0 813 25 l 890 458 b 686 708 929 685 793 708 b 558 700 642 708 601 706 l 435 8 b 560 0 476 3 517 0 "},"х":{"ha":643,"x_min":0,"x_max":0,"o":"m -32 0 b -35 4 -35 0 -37 1 l 288 364 l 101 704 b 106 708 100 707 101 708 l 115 708 b 124 704 119 708 122 708 l 300 379 l 590 704 b 599 708 593 707 593 708 l 613 708 b 615 704 615 708 618 707 l 314 365 l 507 4 b 506 0 507 1 508 0 l 492 0 b 483 4 488 0 486 1 l 300 349 l -10 4 b -19 0 -12 1 -14 0 l -32 0 "},"ц":{"ha":771,"x_min":0,"x_max":0,"o":"m 604 -193 b 600 -187 600 -193 599 -192 l 625 -43 b 565 33 632 -1 624 40 b 278 -19 485 24 410 -19 b 82 242 100 -19 53 76 l 164 703 b 169 708 164 707 165 708 l 179 708 b 185 703 183 708 185 707 l 104 246 b 279 -1 75 86 122 -1 b 538 49 389 -1 465 32 l 654 703 b 660 708 654 707 656 708 l 669 708 b 675 703 672 708 675 707 l 558 51 b 644 -40 608 58 660 42 l 619 -187 b 613 -193 618 -192 617 -193 l 604 -193 "},"ч":{"ha":692,"x_min":0,"x_max":0,"o":"m 460 0 b 454 6 456 0 453 1 l 510 319 b 290 279 476 307 388 279 b 86 514 119 279 57 350 l 119 703 b 125 708 119 707 121 708 l 133 708 b 139 703 138 708 139 707 l 106 514 b 290 297 78 360 133 297 b 513 339 386 297 467 322 l 578 703 b 583 708 579 707 579 708 l 592 708 b 597 703 596 708 597 707 l 474 6 b 468 0 472 1 472 0 l 460 0 "},"ш":{"ha":1110,"x_min":0,"x_max":0,"o":"m 256 -19 b 81 233 104 -19 51 68 l 164 703 b 169 708 164 707 165 708 l 179 708 b 185 703 183 708 185 707 l 101 233 b 258 -1 75 81 119 -1 b 493 68 375 -1 463 50 b 485 229 478 101 472 161 l 568 703 b 574 708 568 707 569 708 l 583 708 b 589 703 586 708 589 707 l 504 229 b 669 -1 476 69 531 -1 b 847 38 746 -1 797 13 b 893 103 882 54 888 78 l 999 703 b 1004 708 999 707 1000 708 l 1014 708 b 1019 703 1017 708 1019 707 l 913 101 b 854 19 906 60 893 39 b 667 -19 810 -1 746 -19 b 503 51 588 -19 533 4 b 256 -19 478 36 385 -19 "},"щ":{"ha":1119,"x_min":0,"x_max":0,"o":"m 951 -193 b 947 -187 947 -193 946 -192 l 972 -42 b 911 33 979 0 968 39 b 668 -19 835 26 771 -19 b 504 51 589 -19 533 4 b 254 -19 481 38 385 -19 b 81 233 103 -19 51 68 l 164 703 b 169 708 164 707 165 708 l 179 708 b 185 703 183 708 186 707 l 101 233 b 257 -1 74 74 121 -1 b 493 68 375 -1 463 50 b 486 229 475 108 474 160 l 569 703 b 575 708 569 707 571 708 l 583 708 b 589 703 586 708 589 707 l 504 229 b 671 -1 475 68 532 -1 b 883 47 764 -1 804 29 l 1000 703 b 1007 708 1001 707 1003 708 l 1014 708 b 1019 703 1017 708 1021 707 l 903 50 b 993 -40 957 58 1006 36 l 968 -187 b 961 -193 967 -192 965 -193 l 951 -193 "},"ъ":{"ha":843,"x_min":0,"x_max":0,"o":"m 406 -19 b 218 19 321 -19 258 0 b 181 94 181 38 172 49 l 286 690 l 88 690 b 83 696 85 690 82 690 l 85 703 b 90 708 86 708 89 708 l 304 708 b 310 703 308 708 310 707 l 258 419 b 510 476 339 453 417 476 b 704 233 658 476 732 389 b 406 -19 674 60 579 -19 m 408 -1 b 683 236 569 -1 656 72 b 508 458 708 375 649 458 b 256 399 414 458 333 433 l 203 97 b 229 38 196 61 197 54 b 408 -1 265 19 326 -1 "},"ы":{"ha":947,"x_min":0,"x_max":0,"o":"m 286 -19 b 99 19 201 -19 139 0 b 61 94 61 38 53 49 l 169 703 b 175 708 169 707 171 708 l 185 708 b 190 703 189 708 190 707 l 139 419 b 390 476 219 453 297 476 b 585 233 539 476 613 389 b 286 -19 554 60 460 -19 m 715 0 b 710 6 711 0 710 1 l 833 703 b 839 708 833 707 835 708 l 847 708 b 853 703 851 708 853 707 l 729 6 b 724 0 728 1 728 0 l 715 0 m 289 -1 b 564 236 450 -1 536 72 b 389 458 589 375 524 458 b 136 399 294 458 214 433 l 83 97 b 111 38 76 61 79 54 b 289 -1 147 19 207 -1 "},"ь":{"ha":708,"x_min":0,"x_max":0,"o":"m 286 -19 b 99 19 201 -19 139 0 b 61 94 61 38 53 49 l 169 703 b 175 708 169 707 171 708 l 185 708 b 190 703 189 708 190 707 l 139 419 b 390 476 219 453 297 476 b 585 233 539 476 613 389 b 286 -19 554 60 460 -19 m 289 -1 b 564 236 450 -1 536 72 b 389 458 589 375 529 458 b 136 399 294 458 214 433 l 83 97 b 110 38 76 61 78 54 b 289 -1 146 19 207 -1 "},"э":{"ha":707,"x_min":0,"x_max":0,"o":"m 253 -19 b 29 189 104 -19 38 50 b 32 194 28 192 29 193 l 40 197 b 47 192 44 199 46 197 b 254 0 57 61 119 0 b 539 244 410 0 513 96 b 557 354 544 281 551 318 l 232 354 b 226 360 228 354 225 356 l 228 368 b 233 374 229 372 229 374 l 561 374 l 578 465 b 382 708 604 614 540 708 b 113 526 239 708 165 654 b 106 525 110 525 108 524 l 97 526 b 94 536 94 528 93 529 b 383 728 147 658 225 728 b 596 465 554 728 625 628 l 557 244 b 253 -19 529 81 419 -19 "},"ю":{"ha":1018,"x_min":0,"x_max":0,"o":"m 549 -19 b 326 211 393 -19 301 68 l 351 350 l 126 350 l 65 6 b 58 0 64 1 64 0 l 51 0 b 46 6 49 0 46 1 l 169 703 b 175 708 169 707 171 708 l 182 708 b 189 703 188 708 189 707 l 129 367 l 354 367 l 378 497 b 676 728 404 646 517 728 b 900 497 832 728 925 638 l 850 211 b 549 -19 825 68 704 -19 m 547 -1 b 831 210 693 -1 807 79 l 882 499 b 675 710 906 628 818 710 b 397 499 528 710 419 628 l 346 210 b 547 -1 322 81 407 -1 "},"я":{"ha":722,"x_min":0,"x_max":0,"o":"m 8 0 b 4 7 1 0 1 3 l 235 286 b 90 472 143 296 90 365 b 333 708 90 606 176 708 l 622 708 b 628 701 626 708 629 706 l 506 6 b 500 0 504 1 504 0 l 493 0 b 486 6 488 0 486 1 l 535 283 l 257 283 l 28 6 b 17 0 25 1 22 0 l 8 0 m 539 301 l 607 690 l 333 690 b 110 472 185 690 110 592 b 263 301 110 371 161 301 "}}}
